<svg width="40" height="40" viewBox="0 0 40 40" fill="none" xmlns="http://www.w3.org/2000/svg">
<path d="M14.9794 21.2657H3.75C1.68188 21.2657 0 22.9476 0 25.0157V36.2501C0 38.3182 1.68188 40.0001 3.75 40.0001H14.9794C17.0475 40.0001 18.7294 38.3182 18.7294 36.2501V25.0157C18.7294 22.9482 17.0469 21.2657 14.9794 21.2657ZM16.2294 36.2501C16.2294 36.9395 15.6694 37.5001 14.9794 37.5001H3.75C3.06 37.5001 2.5 36.9395 2.5 36.2501V25.0157C2.5 24.3263 3.06 23.7657 3.75 23.7657H14.9794C15.6694 23.7657 16.2294 24.3263 16.2294 25.0157V36.2501Z" fill="#F58A0E"/>
<path d="M36.25 21.2657H25.0194C22.9512 21.2657 21.2694 22.9476 21.2694 25.0157V36.2501C21.2694 38.3182 22.9512 40.0001 25.0194 40.0001H36.25C38.3181 40.0001 40 38.3182 40 36.2501V25.0157C40 22.9482 38.3181 21.2657 36.25 21.2657ZM37.5 36.2501C37.5 36.9395 36.9387 37.5001 36.25 37.5001H25.0194C24.3306 37.5001 23.7694 36.9395 23.7694 36.2501V25.0157C23.7694 24.3263 24.3306 23.7657 25.0194 23.7657H36.25C36.9387 23.7657 37.5 24.3263 37.5 25.0157V36.2501Z" fill="#F58A0E"/>
<path d="M14.9794 0H3.75C1.68188 0 0 1.68187 0 3.75V14.9806C0 17.0487 1.68188 18.7306 3.75 18.7306H14.9794C17.0475 18.7306 18.7294 17.0487 18.7294 14.9806V3.75C18.7294 1.68187 17.0469 0 14.9794 0ZM16.2294 14.9806C16.2294 15.67 15.6694 16.2306 14.9794 16.2306H3.75C3.06 16.2306 2.5 15.67 2.5 14.9806V3.75C2.5 3.06062 3.06 2.5 3.75 2.5H14.9794C15.6694 2.5 16.2294 3.06062 16.2294 3.75V14.9806Z" fill="#F58A0E"/>
<path d="M36.25 0H25.0194C22.9512 0 21.2694 1.68187 21.2694 3.75V14.9806C21.2694 17.0487 22.9512 18.7306 25.0194 18.7306H36.25C38.3181 18.7306 40 17.0487 40 14.9806V3.75C40 1.68187 38.3181 0 36.25 0ZM37.5 14.9806C37.5 15.67 36.9387 16.2306 36.25 16.2306H25.0194C24.3306 16.2306 23.7694 15.67 23.7694 14.9806V3.75C23.7694 3.06062 24.3306 2.5 25.0194 2.5H36.25C36.9387 2.5 37.5 3.06062 37.5 3.75V14.9806Z" fill="#F58A0E"/>
</svg>
