<svg width="40" height="40" viewBox="0 0 40 40" fill="none" xmlns="http://www.w3.org/2000/svg">
<path d="M39.9533 28.797C39.9523 28.791 39.9513 28.7851 39.9502 28.7792L38.2397 19.4125C37.952 17.7153 36.4958 16.4844 34.7733 16.4844H28.1959V15.2344C28.1959 11.9587 26.2734 9.12586 23.4907 7.81203C24.2345 6.98211 24.6878 5.88688 24.6878 4.6875C24.6878 2.10281 22.5849 0 20.0001 0C17.4153 0 15.3123 2.10281 15.3123 4.6875C15.3123 5.88695 15.7657 6.98219 16.5094 7.81203C13.7268 9.12586 11.7965 11.9587 11.7965 15.2344V16.4844H5.22692C3.50456 16.4844 2.04839 17.7151 1.76064 19.4122L0.0498384 28.7791C0.0487446 28.7851 0.0477289 28.791 0.0467133 28.797C-0.287993 30.8049 1.21709 32.6748 3.24338 32.8727C2.71686 33.9648 2.42106 35.1903 2.42106 36.4844V38.8281C2.42106 39.4753 2.94578 40 3.593 40H17.6563C18.3035 40 18.8204 39.4753 18.8204 38.8281V36.4844C18.8204 35.1974 18.5359 33.9704 18.0147 32.8828H21.9856C21.4645 33.9704 21.1721 35.1974 21.1721 36.4844V38.8281C21.1721 39.4753 21.6968 40 22.344 40H36.4073C37.0546 40 37.5715 39.4753 37.5715 38.8281V36.4844C37.5715 35.1903 37.2835 33.9648 36.7569 32.8727C38.783 32.6747 40.2879 30.8047 39.9533 28.797ZM20.0001 2.34375C21.2925 2.34375 22.344 3.39516 22.344 4.6875C22.344 5.97984 21.2925 7.03125 20.0001 7.03125C18.7077 7.03125 17.6562 5.97984 17.6562 4.6875C17.6562 3.39516 18.7078 2.34375 20.0001 2.34375ZM14.1327 15.2344C14.1327 12.0035 16.7691 9.375 20.0002 9.375C23.2312 9.375 25.8599 12.0035 25.8599 15.2344V16.4844H14.1327V15.2344ZM16.4843 37.6562H4.75705V36.4844C4.75705 33.2104 7.39353 30.5469 10.6246 30.5469C13.8556 30.5469 16.4843 33.2104 16.4843 36.4844V37.6562ZM8.28069 25.8594C8.28069 24.567 9.33215 23.5156 10.6246 23.5156C11.917 23.5156 12.9684 24.567 12.9684 25.8594C12.9684 27.1517 11.917 28.2031 10.6246 28.2031C9.33215 28.2031 8.28069 27.1517 8.28069 25.8594ZM35.2353 37.6562H23.5081V36.4844C23.5081 33.2104 26.1446 30.5469 29.3756 30.5469C32.6066 30.5469 35.2353 33.2104 35.2353 36.4844V37.6562ZM27.0317 25.8594C27.0317 24.567 28.0832 23.5156 29.3756 23.5156C30.668 23.5156 31.7195 24.567 31.7195 25.8594C31.7195 27.1517 30.668 28.2031 29.3756 28.2031C28.0832 28.2031 27.0317 27.1517 27.0317 25.8594ZM36.4072 30.5469H35.088C34.4398 29.9112 33.6883 29.3826 32.8617 28.9892C33.6082 28.1587 34.0633 27.0613 34.0633 25.8594C34.0633 23.2747 31.9604 21.1719 29.3755 21.1719C26.7907 21.1719 24.6878 23.2747 24.6878 25.8594C24.6878 27.0613 25.143 28.1587 25.8894 28.9892C25.0627 29.3826 24.3113 29.9112 23.6631 30.5469H16.3368C15.6886 29.9112 14.9371 29.3826 14.1105 28.9892C14.857 28.1587 15.3121 27.0613 15.3121 25.8594C15.3121 23.2747 13.2092 21.1719 10.6243 21.1719C8.0395 21.1719 5.93657 23.2747 5.93657 25.8594C5.93657 27.0613 6.39175 28.1587 7.1382 28.9892C6.31183 29.3826 5.56038 29.9112 4.91222 30.5469H3.59285C2.85687 30.5469 2.24605 29.8877 2.35747 29.1898L4.0678 19.8252C4.06889 19.8193 4.06991 19.8134 4.07092 19.8073C4.16554 19.2399 4.65166 18.8281 5.22692 18.8281C6.41168 18.8281 34.1681 18.8281 34.7733 18.8281C35.3485 18.8281 35.8347 19.2399 35.9293 19.8073C35.9303 19.8133 35.9313 19.8192 35.9324 19.8252L37.6424 29.1895C37.754 29.887 37.1437 30.5469 36.4072 30.5469Z" fill="#F58A0E"/>
</svg>
