<svg width="39" height="40" viewBox="0 0 39 40" fill="none" xmlns="http://www.w3.org/2000/svg">
<path d="M1.25 11.4439V14.7959C1.25 15.3163 1.67092 15.7372 2.19133 15.7372C2.71173 15.7372 3.125 15.3163 3.125 14.7959V11.4439C3.125 8.42857 5.58163 5.97194 8.59694 5.97194H13.3342L12.0944 7.21173C11.727 7.57908 11.727 8.16837 12.0944 8.53571C12.2781 8.71939 12.5153 8.81122 12.7602 8.81122C13.0051 8.81122 13.2423 8.71939 13.426 8.53571L16.2653 5.69643C16.4413 5.52041 16.5408 5.28316 16.5408 5.03061C16.5408 4.78571 16.4413 4.54082 16.2653 4.3648L13.426 1.52551C13.0587 1.15816 12.4694 1.15816 12.102 1.52551C11.7347 1.89286 11.7347 2.48214 12.102 2.84949L13.3418 4.08929H8.60459C4.54847 4.09694 1.25 7.39541 1.25 11.4439Z" fill="#F58A0E"/>
<path d="M18.6607 20.4669H2.26021C1.7398 20.4669 1.31888 20.8878 1.31888 21.4082V37.8087C1.31888 38.3291 1.7398 38.75 2.26021 38.75H18.6607C19.1811 38.75 19.6021 38.3291 19.6021 37.8087V21.4006C19.5944 20.8878 19.1735 20.4669 18.6607 20.4669ZM3.20154 36.8674V22.3419H17.7271V36.8674H3.20154Z" fill="#F58A0E"/>
<path d="M37.7321 24.2628C37.2117 24.2628 36.7908 24.6837 36.7908 25.2041V28.5561C36.7908 31.5714 34.3342 34.0281 31.3189 34.0281H26.5816L27.8214 32.7883C28.1888 32.4209 28.1888 31.8316 27.8214 31.4643C27.4541 31.0969 26.8648 31.0969 26.4974 31.4643L23.6582 34.3036C23.4821 34.4796 23.3827 34.7168 23.3827 34.9694C23.3827 35.2219 23.4821 35.4592 23.6582 35.6352L26.4974 38.4745C26.6811 38.6582 26.9184 38.75 27.1633 38.75C27.4082 38.75 27.6454 38.6582 27.8291 38.4745C28.1964 38.1071 28.1964 37.5179 27.8291 37.1505L26.5893 35.9107H31.3265C35.375 35.9107 38.6735 32.6122 38.6735 28.5638V25.2041C38.6735 24.6837 38.2526 24.2628 37.7321 24.2628Z" fill="#F58A0E"/>
<path d="M37.6632 1.25768H21.2627C20.7423 1.25768 20.3214 1.6786 20.3214 2.19901V18.5995C20.3214 19.1199 20.7423 19.5408 21.2627 19.5408H37.6632C38.1836 19.5408 38.6046 19.1199 38.6046 18.5995V2.19901C38.5969 1.6786 38.1836 1.25768 37.6632 1.25768ZM36.7219 17.6582H22.204V3.13268H36.7219V17.6582Z" fill="#F58A0E"/>
<path d="M1.25 11.4439V14.7959C1.25 15.3163 1.67092 15.7372 2.19133 15.7372C2.71173 15.7372 3.125 15.3163 3.125 14.7959V11.4439C3.125 8.42857 5.58163 5.97194 8.59694 5.97194H13.3342L12.0944 7.21173C11.727 7.57908 11.727 8.16837 12.0944 8.53571C12.2781 8.71939 12.5153 8.81122 12.7602 8.81122C13.0051 8.81122 13.2423 8.71939 13.426 8.53571L16.2653 5.69643C16.4413 5.52041 16.5408 5.28316 16.5408 5.03061C16.5408 4.78571 16.4413 4.54082 16.2653 4.3648L13.426 1.52551C13.0587 1.15816 12.4694 1.15816 12.102 1.52551C11.7347 1.89286 11.7347 2.48214 12.102 2.84949L13.3418 4.08929H8.60459C4.54847 4.09694 1.25 7.39541 1.25 11.4439Z" stroke="#F58A0E" stroke-width="0.6"/>
<path d="M18.6607 20.4669H2.26021C1.7398 20.4669 1.31888 20.8878 1.31888 21.4082V37.8087C1.31888 38.3291 1.7398 38.75 2.26021 38.75H18.6607C19.1811 38.75 19.6021 38.3291 19.6021 37.8087V21.4006C19.5944 20.8878 19.1735 20.4669 18.6607 20.4669ZM3.20154 36.8674V22.3419H17.7271V36.8674H3.20154Z" stroke="#F58A0E" stroke-width="0.6"/>
<path d="M37.7321 24.2628C37.2117 24.2628 36.7908 24.6837 36.7908 25.2041V28.5561C36.7908 31.5714 34.3342 34.0281 31.3189 34.0281H26.5816L27.8214 32.7883C28.1888 32.4209 28.1888 31.8316 27.8214 31.4643C27.4541 31.0969 26.8648 31.0969 26.4974 31.4643L23.6582 34.3036C23.4821 34.4796 23.3827 34.7168 23.3827 34.9694C23.3827 35.2219 23.4821 35.4592 23.6582 35.6352L26.4974 38.4745C26.6811 38.6582 26.9184 38.75 27.1633 38.75C27.4082 38.75 27.6454 38.6582 27.8291 38.4745C28.1964 38.1071 28.1964 37.5179 27.8291 37.1505L26.5893 35.9107H31.3265C35.375 35.9107 38.6735 32.6122 38.6735 28.5638V25.2041C38.6735 24.6837 38.2526 24.2628 37.7321 24.2628Z" stroke="#F58A0E" stroke-width="0.6"/>
<path d="M37.6632 1.25768H21.2627C20.7423 1.25768 20.3214 1.6786 20.3214 2.19901V18.5995C20.3214 19.1199 20.7423 19.5408 21.2627 19.5408H37.6632C38.1836 19.5408 38.6046 19.1199 38.6046 18.5995V2.19901C38.5969 1.6786 38.1836 1.25768 37.6632 1.25768ZM36.7219 17.6582H22.204V3.13268H36.7219V17.6582Z" stroke="#F58A0E" stroke-width="0.6"/>
</svg>
