<svg width="42" height="42" viewBox="0 0 42 42" fill="none" xmlns="http://www.w3.org/2000/svg">
<path d="M40.9817 10.4301C40.9817 10.2782 40.945 10.1262 40.8716 9.98269C40.7249 9.69565 40.4406 9.50148 40.1288 9.44238L21.4493 1.10131C21.1467 0.96623 20.7891 0.96623 20.4865 1.10131L1.62357 9.51836C1.25676 9.67877 1.01834 10.0165 1 10.3964V10.4048C1 10.4133 1 10.4217 1 10.4386V31.5614C1 31.9498 1.23842 32.3043 1.62357 32.4732L20.4865 40.8903C20.4956 40.8903 20.4956 40.8903 20.5048 40.8987C20.5323 40.9071 20.5598 40.9156 20.5873 40.9325C20.5965 40.9325 20.6057 40.9409 20.624 40.9409C20.6515 40.9493 20.679 40.9578 20.7066 40.9662C20.7157 40.9662 20.7249 40.9747 20.7341 40.9747C20.7616 40.9831 20.7983 40.9831 20.8258 40.9916C20.8349 40.9916 20.8441 40.9916 20.8533 40.9916C20.89 40.9916 20.9358 41 20.9725 41C21.0092 41 21.055 41 21.0917 40.9916C21.1009 40.9916 21.11 40.9916 21.1192 40.9916C21.1467 40.9916 21.1834 40.9831 21.2109 40.9747C21.2201 40.9747 21.2293 40.9662 21.2384 40.9662C21.2659 40.9578 21.2934 40.9493 21.321 40.9409C21.3301 40.9409 21.3393 40.9325 21.3576 40.9325C21.3851 40.924 21.4127 40.9156 21.4402 40.8987C21.4493 40.8987 21.4493 40.8987 21.4585 40.8903L40.3764 32.4479C40.7524 32.279 41 31.9244 41 31.5361V10.4555C40.9817 10.447 40.9817 10.4386 40.9817 10.4301ZM20.9633 3.13592L37.3228 10.4386L31.298 13.1317L14.9386 5.82904L20.9633 3.13592ZM20.9633 17.7412L4.60385 10.4386L12.4168 6.95188L28.7763 14.2545L20.9633 17.7412ZM3.20083 12.068L19.8629 19.5057V38.3575L3.20083 30.9198V12.068ZM22.0637 38.3575V19.5057L29.8858 16.0106V20.9409C29.8858 21.4981 30.381 21.954 30.9862 21.954C31.5915 21.954 32.0867 21.4981 32.0867 20.9409V15.0228L38.7808 12.0342V30.886L22.0637 38.3575Z" fill="#F58A0E" stroke="#F58A0E"/>
</svg>
