<svg width="40" height="40" viewBox="0 0 40 40" fill="none" xmlns="http://www.w3.org/2000/svg">
<path d="M39.4113 11.171C39.047 10.9621 38.599 10.9639 38.2366 11.1759L26.6406 17.9572V12.1875C26.6406 11.7677 26.416 11.3799 26.0519 11.171C25.6877 10.9621 25.2396 10.9639 24.8772 11.1759L13.2812 17.9572V1.17188C13.2812 0.524687 12.7566 0 12.1094 0H1.17188C0.524687 0 0 0.524687 0 1.17188V38.8281C0 39.4753 0.524687 40 1.17188 40H38.8281C39.4753 40 40 39.4753 40 38.8281V12.1875C40 11.7677 39.7754 11.3799 39.4113 11.171ZM2.34375 2.34375H10.9375V3.90625H2.34375V2.34375ZM37.6562 37.6562H2.34375V6.25H10.9375V20C10.9375 20.9044 11.9214 21.4674 12.7009 21.0116L24.2969 14.2303V20C24.2969 20.9044 25.2808 21.4674 26.0603 21.0116L37.6562 14.2303V37.6562Z" fill="#F58A0E"/>
<path d="M16.7969 25.8984H12.1094C11.4622 25.8984 10.9375 26.4231 10.9375 27.0703V31.7578C10.9375 32.405 11.4622 32.9297 12.1094 32.9297H16.7969C17.4441 32.9297 17.9688 32.405 17.9688 31.7578V27.0703C17.9688 26.4231 17.4441 25.8984 16.7969 25.8984ZM15.625 30.5859H13.2812V28.2422H15.625V30.5859Z" fill="#F58A0E"/>
<path d="M30.1562 25.8984H25.4688C24.8216 25.8984 24.2969 26.4231 24.2969 27.0703V31.7578C24.2969 32.405 24.8216 32.9297 25.4688 32.9297H30.1562C30.8034 32.9297 31.3281 32.405 31.3281 31.7578V27.0703C31.3281 26.4231 30.8034 25.8984 30.1562 25.8984ZM28.9844 30.5859H26.6406V28.2422H28.9844V30.5859Z" fill="#F58A0E"/>
</svg>
