<svg width="33" height="42" viewBox="0 0 33 42" fill="none" xmlns="http://www.w3.org/2000/svg">
<path d="M29.4438 1H8.01347C6.594 1 5.43934 2.15047 5.43934 3.56469V5.75523H2.50365C1.49069 5.75523 0.666626 6.57633 0.666626 7.58547V39.1698C0.666626 40.1791 1.49077 41 2.50365 41H25.4074C26.4204 41 27.2445 40.179 27.2445 39.1698V36.2448H29.4437C30.8632 36.2448 32.018 35.0942 32.018 33.68V3.56469C32.018 2.15047 30.8632 1 29.4438 1ZM25.3906 39.153H2.52051V7.60211H17.2808V13.5916C17.2808 14.7442 18.222 15.6819 19.3788 15.6819H25.3906V39.153ZM19.1349 8.90828L24.0798 13.8349H19.3789C19.2444 13.8349 19.1349 13.7259 19.1349 13.5918V8.90828ZM29.4438 34.3977H27.2446V14.7585C27.2446 14.751 27.2434 14.7443 27.2428 14.7372C27.2373 14.5044 27.145 14.2769 26.9731 14.1055L18.8633 6.0257C18.8629 6.02531 18.8624 6.02508 18.8621 6.02469C18.6944 5.8582 18.4632 5.75531 18.2079 5.75531H7.29315V3.56469C7.29315 3.16906 7.61622 2.84711 8.01339 2.84711H29.4436C29.8408 2.84711 30.1639 3.16898 30.1639 3.56469V33.68H30.164C30.1641 34.0757 29.841 34.3977 29.4438 34.3977Z" fill="#F58A0E" stroke="#F58A0E"/>
</svg>
