<svg width="20" height="20" viewBox="0 0 20 20" fill="none" xmlns="http://www.w3.org/2000/svg">
<path d="M19.8713 10.8906L18.4016 8.5585C18.2851 8.3736 18.2459 8.15033 18.292 7.93687L18.8755 5.2427C18.9665 4.82283 18.7236 4.40257 18.3146 4.27133L15.6897 3.42954C15.4816 3.36277 15.308 3.21712 15.2062 3.02388L13.9214 0.585105C13.7212 0.204911 13.2651 0.0389968 12.8673 0.201349L10.3153 1.24389C10.113 1.32631 9.88645 1.32631 9.68423 1.24389L7.13257 0.201545C6.73483 0.0391929 6.27869 0.205107 6.07836 0.585301L4.79356 3.02385C4.69174 3.21709 4.51811 3.36274 4.31007 3.4295L1.68518 4.2713C1.27597 4.40254 1.03329 4.82283 1.12427 5.24266L1.7075 7.93683C1.75384 8.1503 1.7144 8.3736 1.59796 8.55847L0.128457 10.8906C-0.100659 11.2541 -0.0161501 11.732 0.323358 11.9954L2.50191 13.6842C2.67469 13.8181 2.78799 14.0143 2.81763 14.2309L3.19096 16.962C3.24897 17.3877 3.62102 17.6997 4.05007 17.683L6.80457 17.5764C7.02284 17.5678 7.23568 17.6454 7.39783 17.7921L9.43906 19.6443C9.7573 19.9329 10.2429 19.9329 10.5609 19.6443L12.6024 17.7921C12.7641 17.6452 12.9771 17.5678 13.1956 17.5764L15.9499 17.683C16.3793 17.6997 16.751 17.3875 16.8092 16.962L17.1825 14.2309C17.2122 14.0143 17.3255 13.8181 17.498 13.6842L19.6766 11.9954C20.0161 11.732 20.1004 11.2541 19.8713 10.8906ZM7.68724 13.3307L5.25474 11.6317L6.25451 13.9488L5.5882 14.2363L4.05488 10.6834L4.75268 10.3821L7.2311 12.1272L6.20692 9.7546L6.87323 9.46683L8.40698 13.0199L7.68724 13.3307ZM9.16547 12.6925L7.63215 9.13964L10.2666 8.00236L10.5258 8.60353L8.60855 9.43091L8.94848 10.2185L10.7324 9.44846L10.9908 10.0472L9.20681 10.817L9.62416 11.7839L11.6091 10.9273L11.8674 11.526L9.16547 12.6925ZM15.1713 10.1006L13.3172 7.74948L13.7582 10.7102L12.9802 11.0459L10.5988 7.85925L11.3329 7.54206L12.922 9.7515L12.5182 7.03083L13.3717 6.66253L15.0655 8.87552L14.5396 6.15838L15.2618 5.84662L15.9323 9.77219L15.1713 10.1006Z" fill="#F58A0E"/>
</svg>
