<svg width="30" height="30" viewBox="0 0 30 30" fill="none" xmlns="http://www.w3.org/2000/svg">
<g clip-path="url(#clip0)">
<path d="M26.4122 3.46409L29.3814 0.494873H0.678955L3.64817 3.46409H26.4122Z" fill="#B9BF0A"/>
<path d="M26.4123 3.46409V19.2999L29.3815 22.2691V0.494873L26.4123 3.46409Z" fill="#B9BF0A"/>
<path d="M3.64817 3.46409L0.678955 0.494873V22.2691L3.64817 19.2999V3.46409Z" fill="#B9BF0A"/>
<path d="M3.64817 19.2999L0.678955 22.2692H29.3814L26.4122 19.2999H3.64817Z" fill="#B9BF0A"/>
<path d="M3.64825 3.46411H26.4123V19.2999H3.64825V3.46411Z" fill="#EFEADD"/>
<path d="M14.7828 27.213L16.0001 29.0589L18.2271 25.1988C18.0328 24.896 17.7764 24.6379 17.4749 24.4417C16.9304 24.2189 15.9011 24.694 15.4905 24.2832C15.0798 23.8727 15.5497 22.8481 15.332 22.3037L12.5757 27.0794L14.7828 27.213Z" fill="#E9EAD6"/>
<path d="M22.4878 24.2832C22.077 24.694 21.0479 24.2189 20.5035 24.4417C20.2019 24.6379 19.9456 24.896 19.7513 25.1988L21.9782 29.0589L23.1955 27.213L25.4026 27.0794L22.6463 22.3037C22.4286 22.8481 22.8986 23.8727 22.4878 24.2832Z" fill="#E9EAD6"/>
<path d="M23.9378 20.7845C23.9378 21.3884 22.864 21.7743 22.6463 22.2988V22.3037C22.4285 22.8481 22.8985 23.8726 22.4877 24.2832C22.077 24.6939 21.0478 24.2189 20.5034 24.4417C20.2019 24.6379 19.9455 24.8959 19.7512 25.1987C19.5236 25.4858 19.281 25.7332 18.9891 25.7332C18.6972 25.7332 18.4546 25.4858 18.227 25.1987C18.0327 24.8959 17.7763 24.6379 17.4748 24.4417C16.9304 24.2189 15.901 24.6939 15.4905 24.2832C15.0797 23.8726 15.5497 22.8481 15.3319 22.3037V22.2988C15.1142 21.7743 14.0404 21.3884 14.0404 20.7845C14.0404 20.1807 15.1142 19.7948 15.3319 19.2702C15.5547 18.7258 15.0797 17.6964 15.4905 17.2859C15.901 16.8751 16.9304 17.3501 17.4748 17.1274C17.9994 16.9096 18.3853 15.8358 18.9891 15.8358C19.5927 15.8358 19.9788 16.9096 20.5034 17.1274C21.0478 17.3501 22.077 16.8751 22.4877 17.2859C22.8985 17.6964 22.4235 18.7258 22.6463 19.2702C22.864 19.7948 23.9378 20.1807 23.9378 20.7845Z" fill="white"/>
<path d="M21.4635 20.7845C21.4635 22.151 20.3556 23.2589 18.9892 23.2589C17.6227 23.2589 16.5148 22.151 16.5148 20.7845C16.5148 19.4181 17.6227 18.3102 18.9892 18.3102C20.3556 18.3102 21.4635 19.4181 21.4635 20.7845Z" fill="#00467F"/>
<path d="M16.0199 7.42309C16.0199 7.96966 15.5767 8.41282 15.0301 8.41282C14.4836 8.41282 14.0404 7.96966 14.0404 7.42309C14.0404 6.87651 14.4836 6.43335 15.0301 6.43335C15.5767 6.43335 16.0199 6.87651 16.0199 7.42309Z" fill="#2691E8"/>
<path d="M3.64825 8.4176V19.2999H13.3676C7.97933 19.195 3.64825 14.3696 3.64825 8.4176Z" fill="#D9D6CC"/>
<path d="M0.184143 0V22.764H13.5456V21.7743H1.87366L3.85314 19.7948H13.5456V18.8051H4.1431V3.95896H25.9174V18.8051H24.4328V19.7948H26.2073L28.1868 21.7743H24.4328V22.764H29.8763V0H0.184143ZM3.15336 19.095L1.17388 21.0745V1.68952L3.15336 3.669V19.095ZM3.85314 2.96922L1.87366 0.98974H28.1868L26.2073 2.96922H3.85314ZM28.8866 21.0745L26.9071 19.095V3.669L28.8866 1.68952V21.0745Z" fill="#231F20"/>
<path d="M6.61743 9.89746H23.443V10.8872H6.61743V9.89746Z" fill="#231F20"/>
<path d="M8.59686 11.8768H13.5456V12.8666H8.59686V11.8768Z" fill="#231F20"/>
<path d="M16.5148 11.8768H21.4635V12.8666H16.5148V11.8768Z" fill="#231F20"/>
<path d="M16.5148 13.8563H17.5046V14.8461H16.5148V13.8563Z" fill="#231F20"/>
<path d="M14.5353 13.8563H15.5251V14.8461H14.5353V13.8563Z" fill="#231F20"/>
<path d="M12.5558 13.8563H13.5455V14.8461H12.5558V13.8563Z" fill="#231F20"/>
<path d="M23.5607 22.0544C23.9492 21.748 24.4328 21.3665 24.4328 20.7846C24.4328 20.2028 23.9492 19.8212 23.5607 19.5148C23.3862 19.3959 23.2321 19.25 23.104 19.0823C23.0694 18.8617 23.0728 18.637 23.1144 18.4176C23.1714 17.9094 23.2362 17.3338 22.8377 16.9361C22.4395 16.5381 21.8639 16.6019 21.3562 16.6589C21.1376 16.7007 20.9133 16.7049 20.6934 16.6708C20.5245 16.543 20.3779 16.3883 20.259 16.2131C19.9526 15.8246 19.571 15.3411 18.9892 15.3411C18.4071 15.3411 18.0255 15.8246 17.7194 16.2131C17.601 16.3873 17.4553 16.5415 17.2878 16.6698C17.067 16.7046 16.8418 16.7007 16.6221 16.6589C16.1149 16.6019 15.5389 16.5376 15.1407 16.9361C14.7422 17.3343 14.807 17.9094 14.864 18.4176C14.9053 18.6365 14.9092 18.8607 14.8753 19.0809C14.7473 19.2493 14.5926 19.3959 14.4177 19.5148C14.0291 19.8212 13.5456 20.2028 13.5456 20.7846C13.5456 21.3665 14.0291 21.748 14.4177 22.0544C14.5235 22.138 14.6497 22.2395 14.7446 22.3311L11.7471 27.5248L14.5056 27.692L16.0284 30.0001L18.3339 26.004C18.7195 26.3031 19.2586 26.3031 19.6443 26.004L21.9499 30.0001L23.4727 27.692L26.231 27.5248L23.2338 22.3311C23.3292 22.2395 23.4549 22.138 23.5607 22.0544ZM15.9704 28.1171L15.0585 26.7315L13.4026 26.6324L14.8589 24.1086C14.8997 24.3062 14.9971 24.4877 15.139 24.6307C15.535 25.0297 16.113 24.9647 16.6207 24.9079C16.8389 24.8654 17.0629 24.8613 17.2823 24.8956C17.4173 24.9896 17.5345 25.107 17.6288 25.2418L15.9704 28.1171ZM18.9892 25.2385C18.9723 25.2385 18.8768 25.2215 18.6096 24.8852L18.4873 24.7327C18.2797 24.4174 17.9958 24.1598 17.6619 23.9834C17.4768 23.9128 17.2796 23.8793 17.0815 23.8846C16.8911 23.8884 16.7011 23.9024 16.5124 23.9271C16.2911 23.9696 16.0639 23.9725 15.8419 23.9356C15.8003 23.7118 15.8015 23.4822 15.8458 23.259C15.9083 22.9146 15.9018 22.5616 15.8269 22.2197L15.789 22.1069C15.6094 21.772 15.3485 21.4873 15.0302 21.2795C14.8693 21.1529 14.5354 20.889 14.5354 20.7846C14.5354 20.6802 14.8698 20.4183 15.0302 20.2898C15.3494 20.08 15.6109 19.7932 15.7899 19.4559C15.904 19.083 15.9236 18.6877 15.8467 18.3054C15.8037 18.0844 15.8008 17.8572 15.8383 17.6354C16.0613 17.595 16.2896 17.5967 16.5119 17.6407C16.8949 17.7175 17.291 17.6977 17.6643 17.5827C18.0002 17.4041 18.2855 17.1437 18.4943 16.8257C18.6214 16.6647 18.8853 16.3308 18.9892 16.3308C19.0931 16.3308 19.3553 16.6652 19.4841 16.8257C19.6936 17.1451 19.9804 17.4066 20.3179 17.5854C20.6905 17.6989 21.0854 17.7185 21.4674 17.6422C21.6887 17.5989 21.9159 17.596 22.1379 17.6337C22.1783 17.8565 22.1764 18.0848 22.1326 18.3069C22.0558 18.6892 22.0754 19.0845 22.1894 19.4573C22.3682 19.7942 22.6292 20.0805 22.9481 20.2898C23.1091 20.4164 23.443 20.6802 23.443 20.7846C23.443 20.889 23.1083 21.1509 22.9481 21.2795C22.6297 21.4885 22.3687 21.7744 22.1899 22.111L22.152 22.2098V22.2197C22.077 22.5616 22.0705 22.9146 22.1331 23.259C22.1764 23.481 22.1788 23.7091 22.1401 23.9319C21.9171 23.972 21.6887 23.9701 21.4664 23.9266C21.083 23.8503 20.6867 23.8703 20.3129 23.9848C19.9809 24.1615 19.6984 24.4186 19.4915 24.7327L19.3637 24.8915C19.1015 25.2215 19.0061 25.2385 18.9892 25.2385ZM22.9184 26.7339L22.0065 28.1195L20.3491 25.2493C20.4419 25.115 20.5574 24.9978 20.6905 24.9028C20.9114 24.8683 21.1366 24.8719 21.3562 24.9139C21.8644 24.9712 22.44 25.036 22.8377 24.6368C22.9793 24.4932 23.0767 24.312 23.1178 24.1146L24.5743 26.6385L22.9184 26.7339Z" fill="#231F20"/>
<path d="M21.9584 20.7845C21.9584 19.1448 20.6289 17.8153 18.9892 17.8153C17.3492 17.8153 16.02 19.1448 16.02 20.7845C16.02 22.4243 17.3492 23.7538 18.9892 23.7538C20.6284 23.7521 21.9567 22.4238 21.9584 20.7845ZM18.9892 22.764C17.896 22.764 17.0097 21.8777 17.0097 20.7845C17.0097 19.6914 17.896 18.805 18.9892 18.805C20.0823 18.805 20.9686 19.6914 20.9686 20.7845C20.9686 21.8777 20.0823 22.764 18.9892 22.764Z" fill="#231F20"/>
<path d="M16.5147 7.42309C16.5147 6.60322 15.85 5.93848 15.0301 5.93848C14.2103 5.93848 13.5455 6.60322 13.5455 7.42309C13.5455 8.24296 14.2103 8.9077 15.0301 8.9077C15.85 8.9077 16.5147 8.24296 16.5147 7.42309ZM14.5353 7.42309C14.5353 7.1498 14.7568 6.92822 15.0301 6.92822C15.3034 6.92822 15.525 7.1498 15.525 7.42309C15.525 7.69638 15.3034 7.91796 15.0301 7.91796C14.7568 7.91796 14.5353 7.69638 14.5353 7.42309Z" fill="#231F20"/>
</g>
<defs>
<clipPath id="clip0">
<rect width="30" height="30" fill="white"/>
</clipPath>
</defs>
</svg>
