<svg width="16" height="16" viewBox="0 0 16 16" fill="none" xmlns="http://www.w3.org/2000/svg">
<g clip-path="url(#clip0_10658_20021)">
<path d="M8.35864 13.804C7.94604 14.364 7.3035 14.7082 6.60877 14.7424C5.91404 14.777 5.24118 14.4969 4.77567 13.98L0.604124 9.35066C-0.058866 8.61537 2.72393e-05 7.48194 0.735312 6.81895C1.4713 6.15596 2.60403 6.21521 3.26702 6.95084L6.21838 10.2263C6.26211 10.275 6.32559 10.3011 6.39083 10.2979C6.45643 10.2947 6.51638 10.2619 6.55552 10.2097L12.6219 1.98194C13.2091 1.18494 14.3312 1.01532 15.1286 1.60284C15.9252 2.19036 16.0945 3.31251 15.507 4.10915L8.35864 13.804Z" fill="white"/>
</g>
<defs>
<clipPath id="clip0_10658_20021">
<rect width="15.7143" height="15.7143" fill="white" transform="translate(0.142822 0.142578)"/>
</clipPath>
</defs>
</svg>
