<svg width="30" height="30" viewBox="0 0 30 30" fill="none" xmlns="http://www.w3.org/2000/svg">
<g clip-path="url(#clip0)">
<path d="M4.46648 27.4669C3.33145 27.4669 2.25708 26.9725 1.51917 26.1103C0.780793 25.2481 0.45784 24.1104 0.632706 22.9888L2.8215 8.95038C2.89177 8.49971 2.76703 8.06049 2.4704 7.71396C2.17377 7.36743 1.75903 7.17677 1.30287 7.17677V4.83325C2.43813 4.83325 3.51227 5.32764 4.25041 6.18983C4.98879 7.05203 5.31174 8.1898 5.13687 9.31133L2.94807 23.35C2.87781 23.8007 3.00255 24.2397 3.29918 24.5862C3.59581 24.9327 4.01054 25.1236 4.46671 25.1236H5.02815L4.46648 27.4669Z" fill="#B9BF0A"/>
<path d="M18.9413 7.95935L10.5567 10.7712L4.46637 27.4669L21.1624 21.3771L23.9742 12.9922L18.9413 7.95935Z" fill="#B0DBFF" fill-opacity="0.3"/>
<path d="M17.988 7.00608L24.9277 13.9458C25.4184 14.4365 26.2144 14.4365 26.7054 13.9458L29.0466 11.6043C29.5376 11.1134 29.5376 10.3175 29.0466 9.82659L22.1069 2.88689C21.616 2.39594 20.8201 2.39594 20.3292 2.88689L17.988 5.22812C17.497 5.71907 17.497 6.51513 17.988 7.00608Z" fill="#2691E8"/>
<path d="M17.0652 16.4058C17.0652 17.255 16.3767 17.9432 15.5278 17.9432C14.6786 17.9432 13.9904 17.255 13.9904 16.4058C13.9904 15.5567 14.6786 14.8684 15.5278 14.8684C16.3767 14.8684 17.0652 15.5567 17.0652 16.4058Z" fill="#8690A6"/>
<path d="M29.461 9.41231L22.5213 2.47261C21.8028 1.75392 20.6335 1.75392 19.915 2.47261L17.5736 4.81384C16.8551 5.53253 16.8551 6.70166 17.5736 7.42035L17.8581 7.70485L10.3704 10.2155C10.2013 10.2722 10.0674 10.4027 10.0063 10.5702L4.91135 24.5377H4.46663C4.1803 24.5377 3.93059 24.4228 3.74428 24.2052C3.55797 23.9877 3.4829 23.7231 3.52707 23.4402L5.71587 9.40155C5.91706 8.11066 5.54513 6.80122 4.69551 5.80902C3.8459 4.81659 2.60925 4.24736 1.30302 4.24736C0.979385 4.24736 0.717086 4.50966 0.717086 4.8333V7.17682C0.717086 7.50046 0.979385 7.76276 1.30302 7.76276C1.58936 7.76276 1.83907 7.87766 2.02515 8.09532C2.21146 8.31276 2.28653 8.57712 2.24236 8.86024L0.0535571 22.8987C-0.14763 24.1896 0.224303 25.499 1.07391 26.4915C1.92352 27.4837 3.15972 28.0529 4.46595 28.0529C4.46617 28.0529 4.4664 28.0531 4.46663 28.0531C4.53392 28.0531 4.6019 28.0415 4.66736 28.0177L12.2143 25.2647C12.5182 25.1539 12.6748 24.8174 12.5638 24.5135C12.453 24.2095 12.1168 24.053 11.8126 24.1637L6.75294 26.0094L14.4988 18.2636C14.81 18.4367 15.1616 18.5291 15.5278 18.5291C16.095 18.5291 16.6281 18.3083 17.0293 17.9073C17.8571 17.0794 17.8571 15.7324 17.0293 14.9043C16.6281 14.5033 16.095 14.2825 15.5278 14.2825C14.9606 14.2825 14.4274 14.5033 14.0263 14.9043C13.3422 15.5887 13.2239 16.6271 13.6707 17.4344L5.92415 25.1807L11.0104 11.237L18.7837 8.63045L23.3032 13.1499L20.6967 20.9232L16.2254 22.554C15.9215 22.665 15.7649 23.0015 15.8757 23.3054C15.9867 23.6094 16.3232 23.7659 16.6271 23.6552L21.3632 21.9276C21.5307 21.8665 21.6612 21.7323 21.7179 21.5634L24.2288 14.0755L24.5133 14.36C24.8614 14.7082 25.3242 14.9 25.8165 14.9C26.3088 14.9 26.7716 14.7082 27.1198 14.36L29.461 12.0188C30.1797 11.3001 30.1797 10.1308 29.461 9.41231ZM1.96404 25.7293C1.33736 24.9973 1.06316 24.0314 1.21147 23.0793L3.40027 9.0406C3.49732 8.41805 3.3252 7.81151 2.9155 7.33315C2.63718 7.00813 2.28401 6.78246 1.88873 6.67076V5.47165C2.62962 5.60509 3.30757 5.98961 3.80539 6.57097C4.43207 7.30293 4.70627 8.26904 4.55796 9.22119L2.36893 23.2597C2.27188 23.8822 2.44423 24.4888 2.85393 24.9673C3.26363 25.4459 3.83652 25.7096 4.46663 25.7096H4.48403L4.06586 26.8559C3.25333 26.7565 2.50305 26.3589 1.96404 25.7293ZM14.8551 15.7331C15.2261 15.3621 15.8297 15.3621 16.2005 15.7331C16.5715 16.1041 16.5715 16.7077 16.2005 17.0785C15.8297 17.4495 15.2259 17.4495 14.8551 17.0785C14.4841 16.7077 14.4841 16.1041 14.8551 15.7331ZM28.6325 11.19L27.8762 11.9463L23.9157 7.98592C23.6868 7.75703 23.316 7.75703 23.0869 7.98592C22.8582 8.2148 22.8582 8.58582 23.0869 8.8147L27.0475 12.775L26.2912 13.5313C26.1644 13.6581 25.996 13.7279 25.8165 13.7279C25.6373 13.7279 25.4686 13.6581 25.3421 13.5313L24.3885 12.578V12.5777L18.4023 6.59157C18.1405 6.32996 18.1405 5.90401 18.4023 5.6424L20.7436 3.30116C21.0052 3.03955 21.4311 3.03955 21.6928 3.30116L28.6325 10.2409C28.8941 10.5025 28.8941 10.9284 28.6325 11.19Z" fill="black"/>
<path d="M21.8437 6.15674C21.6897 6.15674 21.5384 6.21945 21.4294 6.3284C21.3205 6.43735 21.2578 6.58864 21.2578 6.74268C21.2578 6.8974 21.3205 7.04846 21.4294 7.15741C21.5386 7.26659 21.6897 7.32861 21.8437 7.32861C21.9977 7.32861 22.149 7.26659 22.258 7.15741C22.3669 7.04846 22.4296 6.8974 22.4296 6.74268C22.4296 6.58864 22.3669 6.43735 22.258 6.3284C22.149 6.21945 21.9977 6.15674 21.8437 6.15674Z" fill="black"/>
<path d="M14.2204 23.3245C14.0657 23.3245 13.9151 23.3872 13.8064 23.4964C13.6967 23.6053 13.6345 23.7564 13.6345 23.9106C13.6345 24.0647 13.6967 24.2157 13.8064 24.3247C13.9151 24.4339 14.0659 24.4966 14.2204 24.4966C14.3747 24.4966 14.5257 24.4339 14.6347 24.3247C14.7436 24.2157 14.8063 24.0647 14.8063 23.9106C14.8063 23.7564 14.7439 23.6053 14.6347 23.4964C14.5257 23.3872 14.3747 23.3245 14.2204 23.3245Z" fill="black"/>
</g>
<defs>
<clipPath id="clip0">
<rect width="30" height="30" fill="white"/>
</clipPath>
</defs>
</svg>
