<svg width="30" height="30" viewBox="0 0 30 30" fill="none" xmlns="http://www.w3.org/2000/svg">
<path d="M0 0.351562V20.8594H30V0.351562H0ZM28.2422 19.1016H1.75781V2.10938H28.2422V19.1016Z" fill="#F58A0E"/>
<path d="M14.0625 13.9453C14.0625 12.4667 13.215 11.1832 11.9806 10.5524C12.5475 9.88724 12.8906 9.02618 12.8906 8.08594C12.8906 5.98595 11.182 4.27734 9.08203 4.27734C6.98204 4.27734 5.27344 5.98595 5.27344 8.08594C5.27344 9.02618 5.61653 9.88724 6.18347 10.5524C4.94911 11.1832 4.10156 12.4667 4.10156 13.9453V16.3477H14.0625V13.9453ZM9.08203 6.03516C10.2129 6.03516 11.1328 6.95503 11.1328 8.08594C11.1328 9.21684 10.2129 10.1367 9.08203 10.1367C7.95113 10.1367 7.03125 9.21684 7.03125 8.08594C7.03125 6.95503 7.95113 6.03516 9.08203 6.03516ZM12.3047 14.5898H5.85938V13.9453C5.85938 12.8144 6.77925 11.8945 7.91016 11.8945H10.2539C11.3848 11.8945 12.3047 12.8144 12.3047 13.9453V14.5898Z" fill="#F58A0E"/>
<path d="M25.5734 8.87421L24.3306 7.63138L20.8958 11.0662L19.1238 9.2942L17.8807 10.5373L20.8958 13.5521L25.5734 8.87421Z" fill="#F58A0E"/>
<path d="M27.9492 23.4961H26.4844V22.6172H24.7266V23.4961H2.68272L0.0460052 26.1328L2.68272 28.7695H24.7266V29.6484H26.4844V28.7695H27.9492C29.0801 28.7695 30 27.8497 30 26.7188V25.5469C30 24.416 29.0801 23.4961 27.9492 23.4961ZM4.21875 27.0117H3.41103L2.53212 26.1328L3.41103 25.2539H4.21875V27.0117ZM24.7266 27.0117H5.97656V25.2539H24.7266V27.0117ZM28.2422 26.7188C28.2422 26.8803 28.1108 27.0117 27.9492 27.0117H26.4844V25.2539H27.9492C28.1108 25.2539 28.2422 25.3853 28.2422 25.5469V26.7188Z" fill="#F58A0E"/>
</svg>
