<svg width="26" height="26" viewBox="0 0 26 26" fill="none" xmlns="http://www.w3.org/2000/svg">
<path d="M23.0559 9.30023H22.4317V6.28744C22.4317 6.26866 22.4287 6.24974 22.4262 6.23072C22.4252 6.11108 22.3871 5.99362 22.3052 5.90054L17.2923 0.174364C17.2908 0.172894 17.2892 0.172372 17.2883 0.170807C17.2584 0.137424 17.2236 0.109635 17.1867 0.0856408C17.1758 0.0783381 17.1648 0.0722209 17.1533 0.0658192C17.1215 0.0484634 17.0876 0.0340003 17.0528 0.0235204C17.0433 0.0209123 17.0349 0.0171661 17.0254 0.0146054C16.9875 0.00559558 16.9482 0 16.9085 0H4.58845C4.02585 0 3.56886 0.457557 3.56886 1.01963V9.29995H2.94467C2.13985 9.29995 1.4873 9.95212 1.4873 10.7572V18.3355C1.4873 19.1398 2.13985 19.7927 2.94467 19.7927H3.56886V24.9805C3.56886 25.5426 4.02585 26 4.58845 26H21.4121C21.9741 26 22.4317 25.5426 22.4317 24.9805V19.7928H23.0559C23.8605 19.7928 24.5131 19.1401 24.5131 18.3355V10.7575C24.5132 9.95216 23.8605 9.30023 23.0559 9.30023ZM4.58845 1.01963H16.3986V6.23613C16.3986 6.51795 16.6271 6.74594 16.9084 6.74594H21.4121V9.30018H4.58845V1.01963ZM16.822 14.1322C16.822 16.4499 15.4168 17.8549 13.3505 17.8549C11.2531 17.8549 10.026 16.2714 10.026 14.2581C10.026 12.1395 11.3788 10.5561 13.4658 10.5561C15.6364 10.5561 16.822 12.1813 16.822 14.1322ZM3.05146 17.7082V10.7661C3.63871 10.6715 4.40412 10.619 5.21202 10.619C6.55425 10.619 7.42451 10.8604 8.10622 11.374C8.84029 11.9195 9.30197 12.79 9.30197 14.0378C9.30197 15.3907 8.80918 16.3239 8.12766 16.9007C7.38297 17.5195 6.25024 17.813 4.86581 17.813C4.03685 17.813 3.44984 17.7606 3.05146 17.7082ZM21.4121 24.7041H4.58845V19.7928H21.4121V24.7041ZM21.4892 16.5234C21.9716 16.5234 22.5066 16.418 22.821 16.2926L23.0625 17.5405C22.7687 17.6879 22.108 17.8444 21.2483 17.8444C18.8048 17.8444 17.5462 16.324 17.5462 14.3104C17.5462 11.8989 19.266 10.5561 21.405 10.5561C22.2335 10.5561 22.8633 10.7238 23.1466 10.8708L22.8212 12.1395C22.4964 12.0033 22.0454 11.8772 21.4788 11.8772C20.21 11.8772 19.224 12.6429 19.224 14.2158C19.2238 15.6317 20.0629 16.5234 21.4892 16.5234Z" fill="#2691E8"/>
<path d="M7.60319 14.0903C7.61367 12.6218 6.75356 11.8458 5.38012 11.8458C5.02352 11.8458 4.7923 11.8772 4.65625 11.9088V16.5338C4.79225 16.5653 5.01285 16.5653 5.21221 16.5653C6.65928 16.5756 7.60319 15.7785 7.60319 14.0903Z" fill="#2691E8"/>
<path d="M11.7148 14.2263C11.7148 15.611 12.3652 16.5861 13.4347 16.5861C14.5151 16.5861 15.1337 15.5581 15.1337 14.1845C15.1337 12.9152 14.5255 11.825 13.4243 11.825C12.3445 11.8253 11.7148 12.8529 11.7148 14.2263Z" fill="#2691E8"/>
</svg>
