<svg width="30" height="30" viewBox="0 0 30 30" fill="none" xmlns="http://www.w3.org/2000/svg">
<path d="M23.5829 0H7.51013C6.44553 0 5.57954 0.862852 5.57954 1.92352V3.56643H3.37777C2.61805 3.56643 2 4.18225 2 4.9391V28.6274C2 29.3843 2.6181 30 3.37777 30H20.5556C21.3153 30 21.9334 29.3842 21.9334 28.6274V26.4336H23.5828C24.6474 26.4336 25.5135 25.5707 25.5135 24.51V1.92352C25.5135 0.862852 24.6474 0 23.5829 0ZM20.543 28.6147H3.39041V4.95158H14.4607V9.44373C14.4607 10.3082 15.1665 11.0114 16.0342 11.0114H20.543V28.6147ZM15.8512 5.93121L19.5599 9.62619H16.0342C15.9333 9.62619 15.8512 9.54439 15.8512 9.44385V5.93121ZM23.5829 25.0482H21.9334V10.3189C21.9334 10.3133 21.9326 10.3082 21.9321 10.3029C21.928 10.1283 21.8588 9.95766 21.7298 9.8291L15.6475 3.76928C15.6472 3.76898 15.6468 3.76881 15.6466 3.76852C15.5209 3.64365 15.3474 3.56648 15.1559 3.56648H6.96989V1.92352C6.96989 1.6268 7.21219 1.38533 7.51007 1.38533H23.5827C23.8806 1.38533 24.123 1.62674 24.123 1.92352V24.51H24.123C24.1231 24.8068 23.8808 25.0482 23.5829 25.0482Z" fill="#F58A0E"/>
</svg>
