<svg width="30" height="30" viewBox="0 0 30 30" fill="none" xmlns="http://www.w3.org/2000/svg">
<g clip-path="url(#clip0_1701_9311)">
<path d="M27.0452 17.1718C26.4996 17.275 26.0102 17.5548 25.6625 17.9622C25.3149 18.3697 25.1311 18.8787 25.1434 19.4004V25.7143H4.57201V19.2857C4.57225 18.9737 4.49981 18.6654 4.35976 18.3824C4.2197 18.0994 4.01541 17.8484 3.76116 17.6471C3.50691 17.4458 3.20884 17.2989 2.88776 17.2168C2.56669 17.1347 2.23037 17.1194 1.9023 17.1718C1.35676 17.275 0.867321 17.5548 0.519655 17.9622C0.171988 18.3697 -0.0117564 18.8787 0.000583431 19.4004V27.8571C0.000583431 28.4255 0.241399 28.9705 0.670054 29.3724C1.09871 29.7742 1.68009 30 2.2863 30H27.4292C28.0354 30 28.6168 29.7742 29.0454 29.3724C29.4741 28.9705 29.7149 28.4255 29.7149 27.8571V19.2857C29.7151 18.9737 29.6427 18.6654 29.5026 18.3824C29.3626 18.0994 29.1583 17.8484 28.904 17.6471C28.6498 17.4458 28.3517 17.2989 28.0306 17.2168C27.7096 17.1347 27.3732 17.1194 27.0452 17.1718Z" fill="#FA4811"/>
<path d="M21.7149 10.7143C21.4147 10.7139 21.1173 10.7691 20.84 10.8769C20.5626 10.9847 20.3108 11.1428 20.0989 11.3421L17.1434 14.1129V2.14286C17.1434 1.57454 16.9026 1.02949 16.474 0.627628C16.0453 0.225765 15.4639 0 14.8577 0C14.2515 0 13.6701 0.225765 13.2415 0.627628C12.8128 1.02949 12.572 1.57454 12.572 2.14286V14.1129L9.61659 11.3421C9.1855 10.9518 8.60812 10.7358 8.00882 10.7407C7.40951 10.7456 6.83622 10.9709 6.41243 11.3682C5.98864 11.7656 5.74826 12.303 5.74305 12.8649C5.73784 13.4267 5.96823 13.968 6.38459 14.3721L13.2417 20.8007C13.6704 21.2024 14.2516 21.4281 14.8577 21.4281C15.4638 21.4281 16.0451 21.2024 16.4737 20.8007L23.3309 14.3721C23.6504 14.0725 23.8681 13.6907 23.9562 13.2751C24.0444 12.8595 23.9991 12.4287 23.8261 12.0372C23.6532 11.6457 23.3603 11.311 22.9845 11.0756C22.6087 10.8401 22.1669 10.7144 21.7149 10.7143Z" fill="#FA4811"/>
</g>
<defs>
<clipPath id="clip0_1701_9311">
<rect width="30" height="30" fill="white"/>
</clipPath>
</defs>
</svg>
