<svg width="24" height="24" viewBox="0 0 24 24" fill="none" xmlns="http://www.w3.org/2000/svg">
<circle cx="12" cy="11.9996" r="11.4" fill="white"/>
<path d="M12 14.52C13.3918 14.52 14.52 13.3918 14.52 12C14.52 10.6082 13.3918 9.48 12 9.48C10.6082 9.48 9.48 10.6082 9.48 12C9.48 13.3918 10.6082 14.52 12 14.52Z" fill="#183D68" fill-opacity="0.7"/>
<path d="M12 0C5.37259 0 0 5.37259 0 12C0 18.6274 5.37259 24 12 24C18.6274 24 24 18.6274 24 12C24 5.37259 18.6274 0 12 0ZM19.414 15.0499C19.3564 16.1908 19.0358 17.3158 18.2044 18.1384C17.3649 18.9688 16.2346 19.2782 15.0827 19.3352H8.91734C7.76534 19.2782 6.63514 18.969 5.79566 18.1384C4.96421 17.3158 4.64366 16.1908 4.58606 15.0499V8.95008C4.64366 7.80922 4.96426 6.68419 5.79566 5.86157C6.63514 5.03117 7.76549 4.72176 8.91734 4.66478H15.0827C16.2347 4.72176 17.3649 5.03102 18.2043 5.86157C19.0358 6.68419 19.3563 7.80922 19.4139 8.95008L19.414 15.0499Z" fill="#183D68" fill-opacity="0.7"/>
<path d="M15.0048 6.05456C13.503 6.01337 10.4973 6.01337 8.99554 6.05456C8.21405 6.07601 7.32812 6.27056 6.77132 6.86528C6.19273 7.48347 5.97408 8.23035 5.95191 9.06589C5.91293 10.5324 5.95191 14.934 5.95191 14.934C5.9773 15.7694 6.19273 16.5164 6.77132 17.1346C7.32812 17.7295 8.21405 17.9239 8.99554 17.9453C10.4973 17.9865 13.503 17.9865 15.0048 17.9453C15.7862 17.9239 16.6722 17.7293 17.229 17.1346C17.8076 16.5164 18.0262 15.7695 18.0484 14.934V9.06589C18.0262 8.23035 17.8076 7.48347 17.229 6.86528C16.672 6.27036 15.786 6.07601 15.0048 6.05456ZM12 15.9059C11.2274 15.9059 10.4722 15.6769 9.8299 15.2477C9.18756 14.8185 8.68692 14.2084 8.39128 13.4947C8.09565 12.781 8.0183 11.9956 8.16901 11.2379C8.31972 10.4802 8.69173 9.78424 9.238 9.23798C9.78426 8.69171 10.4802 8.3197 11.2379 8.16899C11.9956 8.01827 12.781 8.09562 13.4947 8.39126C14.2084 8.6869 14.8185 9.18754 15.2477 9.82988C15.6769 10.4722 15.906 11.2274 15.906 11.9999C15.906 13.0359 15.4944 14.0294 14.7619 14.7619C14.0294 15.4944 13.0359 15.9059 12 15.9059ZM15.9226 8.90019C15.7681 8.90015 15.617 8.8543 15.4886 8.76844C15.3602 8.68258 15.2601 8.56056 15.201 8.41781C15.1419 8.27506 15.1264 8.11799 15.1566 7.96647C15.1867 7.81494 15.2612 7.67576 15.3704 7.56653C15.4797 7.4573 15.6189 7.38291 15.7704 7.35279C15.9219 7.32266 16.079 7.33814 16.2217 7.39727C16.3645 7.4564 16.4865 7.55653 16.5723 7.685C16.6581 7.81346 16.7039 7.96449 16.7039 8.11899C16.7039 8.22159 16.6837 8.32319 16.6445 8.41799C16.6052 8.51278 16.5476 8.59891 16.4751 8.67145C16.4025 8.74399 16.3164 8.80153 16.2216 8.84078C16.1268 8.88003 16.0252 8.90022 15.9226 8.90019Z" fill="#183D68" fill-opacity="0.7"/>
</svg>
