<svg width="26" height="26" viewBox="0 0 26 26" fill="none" xmlns="http://www.w3.org/2000/svg">
<path d="M11.9253 11.8264C11.5756 11.8264 11.3382 11.8604 11.2139 11.8945V14.1421C11.361 14.176 11.5417 14.1874 11.7899 14.1874C12.7051 14.1874 13.27 13.7239 13.27 12.945C13.27 12.2445 12.784 11.8264 11.9253 11.8264Z" fill="#FFBC60"/>
<path d="M23.0558 9.30008H22.4315V6.28771C22.4315 6.26892 22.4285 6.25 22.426 6.23097C22.425 6.11136 22.387 5.99387 22.3051 5.90078L17.2922 0.174372C17.2907 0.172908 17.2892 0.172389 17.2882 0.170784C17.2583 0.137411 17.2234 0.109655 17.1866 0.085628C17.1757 0.0783114 17.1647 0.0721749 17.1533 0.0658496C17.1214 0.0484313 17.0875 0.0339869 17.0527 0.0235548C17.0433 0.0209114 17.0348 0.0170406 17.0253 0.014586C16.9875 0.00561727 16.9481 0 16.9083 0H4.58841C4.02584 0 3.56881 0.457548 3.56881 1.01965V9.29985H2.94463C2.13985 9.29985 1.4873 9.95211 1.4873 10.7572V18.3355C1.4873 19.14 2.13985 19.7927 2.94463 19.7927H3.56886V24.9803C3.56886 25.5424 4.02588 26 4.58846 26H21.4119C21.974 26 22.4315 25.5425 22.4315 24.9803V19.7927H23.0559C23.8604 19.7927 24.5131 19.14 24.5131 18.3355V10.7574C24.513 9.95239 23.8604 9.30008 23.0558 9.30008ZM4.58841 1.01984H16.3985V6.2365C16.3985 6.51816 16.627 6.7463 16.9083 6.7463H21.4119V9.30041H4.58841V1.01984ZM14.9752 12.8995C14.9752 13.6449 14.7267 14.2775 14.2752 14.7071C13.6874 15.2605 12.8177 15.5086 11.8016 15.5086C11.5756 15.5086 11.3719 15.4977 11.2139 15.475V18.197H9.50834V10.6861C10.0395 10.5952 10.7848 10.5278 11.8353 10.5278C12.897 10.5278 13.6538 10.7309 14.1626 11.1377C14.6479 11.5216 14.9752 12.1543 14.9752 12.8995ZM4.10849 18.1406L4.30089 16.7513C4.53824 16.8305 4.84279 16.8872 5.18162 16.8872C5.90502 16.8872 6.35644 16.5592 6.35644 15.3733V10.584H8.07315V15.3957C8.07315 17.5646 7.03372 18.3211 5.36232 18.3211C4.96732 18.3213 4.44756 18.2541 4.10849 18.1406ZM21.4119 24.7043H4.58841V19.7927H21.4119V24.7043H21.4119ZM22.431 17.8471C21.9003 18.0278 20.8951 18.2762 19.8889 18.2762C18.5004 18.2762 17.4947 17.926 16.7948 17.2485C16.0943 16.5935 15.7097 15.5995 15.7214 14.4811C15.7323 11.9509 17.5734 10.5052 20.0702 10.5052C21.0529 10.5052 21.8101 10.6968 22.1825 10.8778L21.8211 12.2557C21.4029 12.075 20.8832 11.9281 20.0473 11.9281C18.6129 11.9281 17.5291 12.7416 17.5291 14.3907C17.5291 15.9608 18.5114 16.887 19.9235 16.887C20.3188 16.887 20.6352 16.8417 20.7706 16.7737V15.1811H19.5957V13.8371H22.4309V17.8471H22.431Z" fill="#FFBC60"/>
</svg>
