<svg width="30" height="30" viewBox="0 0 30 30" fill="none" xmlns="http://www.w3.org/2000/svg">
<g clip-path="url(#clip0)">
<path d="M21.0823 29.5605H3.62091C1.86378 29.5605 0.439453 28.1362 0.439453 26.3793V3.62068C0.439453 1.86378 1.86378 0.439453 3.62091 0.439453H21.0823C22.8392 0.439453 24.2635 1.86378 24.2635 3.62068V26.3791C24.2635 28.1362 22.8392 29.5605 21.0823 29.5605Z" fill="#EEEEED"/>
<path d="M24.2635 6.6394H8.95592C8.87009 4.19998 8.87238 2.03934 8.87993 0.439453H3.62091C1.86378 0.439453 0.439453 1.86378 0.439453 3.62068V26.3791C0.439453 28.1362 1.86378 29.5605 3.62068 29.5605H15.3378C10.8197 25.6682 9.44641 16.198 9.0406 8.56453H24.2635V6.6394Z" fill="#DFDFDD"/>
<path d="M24.2635 6.6394H0.439453V3.62068C0.439453 1.86378 1.86378 0.439453 3.62091 0.439453H21.0823C22.8392 0.439453 24.2635 1.86378 24.2635 3.62068V6.6394Z" fill="#B9BF0A"/>
<path d="M28.7695 7.01386L26.0834 5.13314C25.2443 4.54537 24.0877 4.74953 23.5002 5.58861L22.2516 7.3716L27.9764 11.38L29.225 9.59702C29.8125 8.75794 29.6086 7.6014 28.7695 7.01386Z" fill="#00467F"/>
<path d="M22.2517 7.37158L14.9897 17.7427C14.1035 19.0082 13.5661 20.4847 13.4313 22.0237L13.2605 23.9756C13.1569 25.1584 14.3729 26.0099 15.4489 25.5082L17.2248 24.6799C18.6248 24.0269 19.8283 23.0168 20.7145 21.7513L27.9765 11.38L22.2517 7.37158Z" fill="#7FC6FF"/>
<path d="M14.9897 17.7427C14.1035 19.0082 13.5661 20.4847 13.4313 22.0237L13.2605 23.9756C13.1569 25.1584 14.3729 26.0099 15.4489 25.5082L16.296 25.1129C14.0477 23.3576 15.5379 18.4096 16.8906 15.0281L14.9897 17.7427Z" fill="#76ACD4"/>
<path d="M23.0955 11.4905L23.8154 11.9948L17.8107 20.5694L17.0908 20.0654L23.0955 11.4905Z" fill="#76ACD4"/>
<path d="M22.2526 7.3725L27.9776 11.3811L26.3201 13.7482L20.595 9.73959L22.2526 7.3725Z" fill="#EDF0F3"/>
<path d="M14.6135 18.3304C13.9515 19.4561 13.5457 20.717 13.4313 22.0237L13.2605 23.9756C13.1569 25.1584 14.3729 26.0099 15.4489 25.5082L17.2248 24.6799C18.4136 24.1255 19.4596 23.3127 20.2911 22.3059L14.6135 18.3304Z" fill="#B9BF0A"/>
<path d="M14.6135 18.3304C13.9515 19.4561 13.5457 20.717 13.4313 22.0237L13.2605 23.9756C13.1569 25.1584 14.3729 26.0099 15.4489 25.5082L16.296 25.1129C14.8446 23.9799 14.9511 21.5165 15.5729 19.0022L14.6135 18.3304Z" fill="#EDD35F"/>
<path d="M13.4311 22.0264L13.2605 23.9756C13.1569 25.1584 14.3729 26.0099 15.4489 25.5082L17.2222 24.681L13.4311 22.0264Z" fill="#767C82"/>
<path d="M16.2962 25.1129C15.7423 24.6806 15.4159 24.0541 15.2578 23.3054L13.4313 22.0267L13.2605 23.9756C13.1569 25.1585 14.3729 26.0099 15.4491 25.5082L16.2962 25.1129Z" fill="#41464F"/>
<path d="M8.87993 0.439453H3.62091C1.86378 0.439453 0.439453 1.86378 0.439453 3.62068V6.6394H8.95592C8.87009 4.19975 8.87238 2.03957 8.87993 0.439453Z" fill="#888C07"/>
<path d="M16.1323 2.41083H8.57072C8.11296 2.41083 7.74194 2.78207 7.74194 3.23984V3.83905C7.74194 4.29681 8.11296 4.66806 8.57072 4.66806H16.1323C16.5901 4.66806 16.9611 4.29681 16.9611 3.83905V3.23984C16.9611 2.78207 16.5901 2.41083 16.1323 2.41083Z" fill="white"/>
<path d="M8.87788 2.41083H8.57072C8.11296 2.41083 7.74194 2.78207 7.74194 3.23984V3.83905C7.74194 4.29681 8.11296 4.66806 8.57072 4.66806H8.90283C8.8875 3.86652 8.8804 3.11006 8.87788 2.41083Z" fill="#EEEEED"/>
<path d="M29.0215 6.65382L26.3354 4.7731C25.8561 4.43733 25.2793 4.29977 24.703 4.38057V3.62068C24.703 1.62437 23.0786 0 21.0823 0H6.47026C6.22742 0 6.03081 0.196838 6.03081 0.439453C6.03081 0.682068 6.22742 0.878906 6.47026 0.878906H21.0823C22.5941 0.878906 23.8241 2.10892 23.8241 3.62068V4.69345C23.5574 4.85619 23.3247 5.07294 23.1402 5.33638L22.5355 6.19995H0.878906V3.62068C0.878906 2.10892 2.10892 0.878906 3.62068 0.878906H4.43413C4.67674 0.878906 4.87358 0.682068 4.87358 0.439453C4.87358 0.196838 4.67674 0 4.43413 0H3.62068C1.62437 0 0 1.62437 0 3.62068V26.3793C0 28.3756 1.62437 30 3.62068 30H21.0823C22.6463 30 24.0278 29.0032 24.5197 27.5196C24.5961 27.2891 24.4711 27.0406 24.2409 26.9641C24.0104 26.8879 23.7616 27.0126 23.6854 27.2429C23.3128 28.3662 22.2668 29.1211 21.0823 29.1211H3.62068C2.10892 29.1211 0.878906 27.8911 0.878906 26.3793V7.07886H21.9202L21.8919 7.11937C21.8919 7.11937 21.8919 7.11937 21.8916 7.11937V7.1196L20.2348 9.48601C20.2345 9.48624 20.2345 9.48624 20.2343 9.48647C20.2341 9.48669 20.2341 9.48669 20.2338 9.48692L18.9819 11.2752H4.79507C4.55223 11.2752 4.35562 11.472 4.35562 11.7146C4.35562 11.9575 4.55223 12.1541 4.79507 12.1541H18.3664L16.3374 15.0517H4.79507C4.55223 15.0517 4.35562 15.2486 4.35562 15.4912C4.35562 15.734 4.55223 15.9306 4.79507 15.9306H15.7219L14.6297 17.4907C14.488 17.693 14.3559 17.9013 14.2312 18.1135C14.2305 18.1149 14.2296 18.1162 14.2289 18.1178C14.0929 18.3495 13.9671 18.5861 13.8522 18.8283H4.79507C4.55223 18.8283 4.35562 19.0251 4.35562 19.2677C4.35562 19.5106 4.55223 19.7072 4.79507 19.7072H13.4896C13.2312 20.4369 13.0634 21.1988 12.9948 21.9747C12.9945 21.9761 12.9943 21.9777 12.9943 21.9791C12.9941 21.9811 12.9939 21.9832 12.9936 21.9852L12.8226 23.9371C12.7602 24.651 13.0733 25.3226 13.6601 25.7336C14.0023 25.9733 14.3958 26.095 14.7931 26.095C15.0776 26.095 15.3639 26.0326 15.6347 25.9062L17.4104 25.0781C17.414 25.0765 17.4177 25.0745 17.4213 25.0729C17.4216 25.0726 17.4218 25.0726 17.422 25.0724C18.885 24.3876 20.148 23.3267 21.0745 22.0033L23.8241 18.0766V25.3839C23.8241 25.6265 24.0207 25.8234 24.2635 25.8234C24.5064 25.8234 24.703 25.6265 24.703 25.3839V16.8214L26.6792 13.9993C26.6792 13.9993 26.6792 13.9993 26.6792 13.9991C26.6792 13.9991 26.6792 13.9991 26.6794 13.9989L29.585 9.84924C30.3106 8.81287 30.0577 7.37938 29.0215 6.65382ZM15.2632 25.1097C14.9016 25.2782 14.491 25.2425 14.1644 25.0136C13.8375 24.7849 13.6633 24.4112 13.6981 24.0138L13.8025 22.823L16.3465 24.6043L15.2632 25.1097ZM17.2625 24.1729L13.895 21.815C14.0119 20.8216 14.3069 19.8576 14.762 18.9709L19.6383 22.3853C18.9608 23.1161 18.1558 23.7231 17.2625 24.1729ZM23.8994 16.4367C23.8994 16.4369 23.8992 16.4371 23.8989 16.4374L20.3547 21.4993C20.3053 21.5696 20.2547 21.6392 20.2034 21.7078L15.2055 18.2082C15.2525 18.1364 15.3005 18.0652 15.3497 17.9947L20.7024 10.3505L25.7071 13.8549L23.8994 16.4367ZM26.2113 13.1351L21.2064 9.63066L22.3597 7.98363L27.3644 11.488L26.2113 13.1351ZM28.865 9.34502L27.8687 10.768L22.8637 7.26357L23.8602 5.84061C24.077 5.53093 24.4013 5.32425 24.7737 5.25856C24.8568 5.24391 24.9399 5.23659 25.0225 5.23659C25.3102 5.23659 25.5906 5.32448 25.8314 5.49294L28.5175 7.37389C29.1568 7.82135 29.3127 8.70575 28.865 9.34502ZM16.1323 5.1075C16.8315 5.1075 17.4005 4.5385 17.4005 3.83904V3.23982C17.4005 2.54036 16.8315 1.97136 16.1323 1.97136H8.57071C7.87148 1.97136 7.30247 2.54036 7.30247 3.23982V3.83904C7.30247 4.5385 7.87148 5.1075 8.57071 5.1075H16.1323ZM8.18138 3.83904V3.23982C8.18138 3.02513 8.35602 2.85027 8.57071 2.85027H16.132C16.347 2.85027 16.5216 3.02513 16.5216 3.23982V3.83904C16.5216 4.05373 16.347 4.22859 16.132 4.22859H8.57071C8.35602 4.22859 8.18138 4.05373 8.18138 3.83904ZM4.79507 22.6048C4.55223 22.6048 4.35562 22.8017 4.35562 23.0443C4.35562 23.2871 4.55223 23.4837 4.79507 23.4837H8.88634C9.12918 23.4837 9.32579 23.2871 9.32579 23.0443C9.32579 22.8017 9.12918 22.6048 8.88634 22.6048H4.79507Z" fill="black"/>
</g>
<defs>
<clipPath id="clip0">
<rect width="30" height="30" fill="white"/>
</clipPath>
</defs>
</svg>
