<svg width="31" height="30" viewBox="0 0 31 30" fill="none" xmlns="http://www.w3.org/2000/svg">
<g id="loading">
<path id="Vector" d="M15.5 2.5C15.8315 2.5 16.1495 2.6317 16.3839 2.86611C16.6183 3.10054 16.75 3.41848 16.75 3.75V7.5C16.75 7.83153 16.6183 8.14946 16.3839 8.38389C16.1495 8.6183 15.8315 8.75 15.5 8.75C15.1685 8.75 14.8505 8.6183 14.6161 8.38389C14.3818 8.14946 14.25 7.83153 14.25 7.5V3.75C14.25 3.41848 14.3818 3.10054 14.6161 2.86611C14.8505 2.6317 15.1685 2.5 15.5 2.5ZM15.5 21.25C15.8315 21.25 16.1495 21.3818 16.3839 21.6161C16.6183 21.8505 16.75 22.1685 16.75 22.5V26.25C16.75 26.5815 16.6183 26.8995 16.3839 27.1339C16.1495 27.3683 15.8315 27.5 15.5 27.5C15.1685 27.5 14.8505 27.3683 14.6161 27.1339C14.3818 26.8995 14.25 26.5815 14.25 26.25V22.5C14.25 22.1685 14.3818 21.8505 14.6161 21.6161C14.8505 21.3818 15.1685 21.25 15.5 21.25ZM28 15C28 15.3315 27.8683 15.6495 27.6339 15.8839C27.3995 16.1183 27.0815 16.25 26.75 16.25H23C22.6685 16.25 22.3505 16.1183 22.1161 15.8839C21.8818 15.6495 21.75 15.3315 21.75 15C21.75 14.6685 21.8818 14.3505 22.1161 14.1161C22.3505 13.8818 22.6685 13.75 23 13.75H26.75C27.0815 13.75 27.3995 13.8818 27.6339 14.1161C27.8683 14.3505 28 14.6685 28 15ZM9.25 15C9.25 15.3315 9.1183 15.6495 8.88389 15.8839C8.64946 16.1183 8.33153 16.25 8 16.25H4.25C3.91848 16.25 3.60054 16.1183 3.36611 15.8839C3.1317 15.6495 3 15.3315 3 15C3 14.6685 3.1317 14.3505 3.36611 14.1161C3.60054 13.8818 3.91848 13.75 4.25 13.75H8C8.33153 13.75 8.64946 13.8818 8.88389 14.1161C9.1183 14.3505 9.25 14.6685 9.25 15ZM24.3388 23.8388C24.1044 24.0731 23.7865 24.2048 23.455 24.2048C23.1235 24.2048 22.8056 24.0731 22.5713 23.8388L19.92 21.1875C19.6923 20.9518 19.5663 20.636 19.5691 20.3083C19.572 19.9805 19.7035 19.667 19.9353 19.4353C20.167 19.2035 20.4805 19.072 20.8083 19.0691C21.136 19.0663 21.4518 19.1923 21.6875 19.42L24.3388 22.07C24.455 22.1861 24.5471 22.324 24.6101 22.4758C24.673 22.6275 24.7054 22.7901 24.7054 22.9544C24.7054 23.1186 24.673 23.2813 24.6101 23.433C24.5471 23.5848 24.455 23.7226 24.3388 23.8388ZM11.08 10.58C10.8456 10.8143 10.5277 10.946 10.1963 10.946C9.8648 10.946 9.54691 10.8143 9.3125 10.58L6.6625 7.93C6.42795 7.69561 6.29611 7.37765 6.296 7.04606C6.29588 6.71448 6.42749 6.39643 6.66188 6.16188C6.89626 5.92733 7.21423 5.79549 7.54581 5.79538C7.8774 5.79525 8.19545 5.92686 8.43 6.16125L11.08 8.8125C11.3143 9.04691 11.446 9.3648 11.446 9.69625C11.446 10.0277 11.3143 10.3456 11.08 10.58ZM6.6625 23.8388C6.42816 23.6044 6.29651 23.2865 6.29651 22.955C6.29651 22.6235 6.42816 22.3056 6.6625 22.0713L9.31375 19.42C9.42906 19.3006 9.56699 19.2054 9.7195 19.1399C9.872 19.0744 10.036 19.0399 10.202 19.0384C10.368 19.037 10.5326 19.0686 10.6862 19.1315C10.8398 19.1944 10.9794 19.2871 11.0968 19.4045C11.2141 19.5219 11.3069 19.6614 11.3698 19.815C11.4326 19.9686 11.4643 20.1333 11.4628 20.2993C11.4614 20.4653 11.4269 20.6293 11.3614 20.7818C11.2959 20.9343 11.2006 21.0723 11.0813 21.1875L8.43125 23.8388C8.31516 23.955 8.1773 24.0471 8.02555 24.1101C7.8738 24.173 7.71115 24.2054 7.54688 24.2054C7.3826 24.2054 7.21995 24.173 7.0682 24.1101C6.91645 24.0471 6.77859 23.955 6.6625 23.8388ZM19.92 10.58C19.6856 10.3456 19.554 10.0277 19.554 9.69625C19.554 9.3648 19.6856 9.04691 19.92 8.8125L22.57 6.16125C22.8044 5.9267 23.1224 5.79486 23.4539 5.79475C23.7855 5.79463 24.1036 5.92624 24.3381 6.16063C24.5726 6.39501 24.7045 6.71298 24.7046 7.04456C24.7048 7.37615 24.5731 7.6942 24.3388 7.92875L21.6875 10.58C21.4531 10.8143 21.1353 10.946 20.8038 10.946C20.4723 10.946 20.1544 10.8143 19.92 10.58Z" fill="url(#paint0_linear_2211_11781)"/>
</g>
<defs>
<linearGradient id="paint0_linear_2211_11781" x1="15.5" y1="-3.24845e-07" x2="15.5" y2="30" gradientUnits="userSpaceOnUse">
<stop stop-color="#F6F8FF"/>
<stop offset="0.979167" stop-color="#1B3A7F"/>
</linearGradient>
</defs>
</svg>
