<svg width="30" height="30" viewBox="0 0 30 30" fill="none" xmlns="http://www.w3.org/2000/svg">
<path d="M28.3887 16.8164H1.61133C1.04502 16.8164 0.585938 16.3573 0.585938 15.791V12.2168C0.585938 11.6505 1.04502 11.1914 1.61133 11.1914H28.3887C28.955 11.1914 29.4141 11.6505 29.4141 12.2168V15.791C29.4141 16.3573 28.955 16.8164 28.3887 16.8164Z" fill="#E9EAD6"/>
<path d="M17.156 21.5106H12.8587C10.4138 21.5106 8.43182 23.4926 8.43182 25.9375V29.414H21.5829V25.9375C21.5829 23.4926 19.601 21.5106 17.156 21.5106Z" fill="#2691E8"/>
<path d="M17.9007 15.0075H14.3169C13.1004 15.0075 12.1142 15.9936 12.1142 17.2102V17.2122V18.6175C12.1142 20.2154 13.4095 21.5107 15.0074 21.5107C16.6054 21.5107 17.9007 20.2154 17.9007 18.6175V15.0075Z" fill="white"/>
<path d="M6.96064 6.22089H3.82061C2.03414 6.22089 0.585938 7.66909 0.585938 9.45555V11.1914H10.1953V9.45555C10.1953 7.66909 8.74711 6.22089 6.96064 6.22089Z" fill="#B9BF0A"/>
<path d="M7.18292 6.22089L5.39059 8.01321L3.59827 6.22089H7.18292Z" fill="white"/>
<path d="M4.88594 0.585938H7.50461V1.88549C7.50461 2.55955 6.95817 3.10594 6.28417 3.10594H3.27649V2.19539C3.27649 1.30652 3.99708 0.585938 4.88594 0.585938Z" fill="#7FC6FF"/>
<path d="M7.50461 3.10596V4.10685C7.50461 5.27439 6.55809 6.22091 5.39055 6.22091C4.22301 6.22091 3.27649 5.27439 3.27649 4.10685V3.10596H7.50461Z" fill="white"/>
<path d="M16.57 6.22089H13.43C11.6435 6.22089 10.1953 7.66909 10.1953 9.45555V11.1914H19.8047V9.45555C19.8047 7.66909 18.3565 6.22089 16.57 6.22089Z" fill="#42A4F4"/>
<path d="M16.7923 6.22089L15 8.01321L13.2076 6.22089H16.7923Z" fill="white"/>
<path d="M14.4953 0.585938H17.114V1.88549C17.114 2.55955 16.5676 3.10594 15.8936 3.10594H12.8859V2.19539C12.8859 1.30652 13.6065 0.585938 14.4953 0.585938Z" fill="#7FC6FF"/>
<path d="M17.114 3.10596V4.10685C17.114 5.27439 16.1675 6.22091 14.9999 6.22091C13.8324 6.22091 12.8859 5.27439 12.8859 4.10685V3.10596H17.114Z" fill="white"/>
<path d="M26.1794 6.22089H23.0394C21.2529 6.22089 19.8047 7.66909 19.8047 9.45555V11.1914H29.4141V9.45555C29.4141 7.66909 27.9659 6.22089 26.1794 6.22089Z" fill="#6890B1" fill-opacity="0.75"/>
<path d="M26.4017 6.22089L24.6094 8.01321L22.8171 6.22089H26.4017Z" fill="white"/>
<path d="M24.1048 0.585938H26.7234V1.88549C26.7234 2.55955 26.177 3.10594 25.503 3.10594H22.4953V2.19539C22.4953 1.30652 23.2159 0.585938 24.1048 0.585938Z" fill="#7FC6FF"/>
<path d="M26.7234 3.10596V4.10685C26.7234 5.27439 25.7769 6.22091 24.6094 6.22091C23.4418 6.22091 22.4953 5.27439 22.4953 4.10685V3.10596H26.7234Z" fill="white"/>
<path d="M20.9807 17.2307C21.0896 17.1217 21.1523 16.9705 21.1523 16.8164C21.1523 16.6623 21.0896 16.5111 20.9807 16.4021C20.8717 16.2932 20.7205 16.2305 20.5664 16.2305C20.4123 16.2305 20.2611 16.2932 20.1521 16.4021C20.0432 16.5111 19.9805 16.6623 19.9805 16.8164C19.9805 16.9705 20.0432 17.1217 20.1521 17.2307C20.2611 17.3396 20.4123 17.4023 20.5664 17.4023C20.7205 17.4023 20.8717 17.3396 20.9807 17.2307Z" fill="black"/>
<path d="M17.591 20.9448C18.1473 20.3278 18.4866 19.5115 18.4866 18.6174V15.0074C18.4866 14.6838 18.2243 14.4215 17.9006 14.4215H14.3168C12.7792 14.4215 11.5282 15.6725 11.5282 17.21V18.6174C11.5282 19.5115 11.8675 20.3278 12.4238 20.9448C9.86274 21.1661 7.84589 23.32 7.84589 25.9375V29.414C7.84589 29.7376 8.10821 29.9999 8.43182 29.9999H21.583C21.9066 29.9999 22.1689 29.7376 22.1689 29.414V25.9375C22.1689 23.32 20.1521 21.1661 17.591 20.9448ZM12.7001 17.21C12.7001 16.3185 13.4253 15.5933 14.3168 15.5933H17.3147V18.6173C17.3147 19.8896 16.2796 20.9246 15.0074 20.9246C13.7352 20.9246 12.7001 19.8895 12.7001 18.6173V17.21ZM20.997 26.0156H16.4453C16.1217 26.0156 15.8594 26.2779 15.8594 26.6015C15.8594 26.9251 16.1217 27.1874 16.4453 27.1874H20.997V28.8281H9.01776V25.9375C9.01776 23.8195 10.7408 22.0965 12.8587 22.0965H17.156C19.274 22.0965 20.997 23.8195 20.997 25.9375V26.0156H20.997Z" fill="black"/>
<path d="M30 9.45557C30 7.55941 28.6112 5.98213 26.7976 5.6857C27.1191 5.24133 27.3094 4.696 27.3094 4.10684V0.585938C27.3094 0.262324 27.0471 0 26.7234 0H24.1048C22.8942 0 21.9094 0.984844 21.9094 2.19539V4.10684C21.9094 4.69605 22.0996 5.24133 22.4212 5.6857C21.3204 5.86559 20.3769 6.51738 19.8047 7.426C19.2325 6.51732 18.2889 5.86559 17.1882 5.6857C17.5097 5.24133 17.7 4.696 17.7 4.10684V0.585938C17.7 0.262324 17.4377 0 17.1141 0H14.4954C13.2848 0 12.3 0.984844 12.3 2.19539V4.10684C12.3 4.69605 12.4903 5.24133 12.8118 5.6857C11.7111 5.86559 10.7675 6.51738 10.1953 7.426C9.62314 6.51732 8.67955 5.86559 7.57881 5.6857C7.90037 5.24133 8.09062 4.696 8.09062 4.10684V0.585938C8.09062 0.262324 7.8283 0 7.50469 0H4.88602C3.67547 0 2.69062 0.984844 2.69062 2.19539V4.10684C2.69062 4.69605 2.88088 5.24133 3.20244 5.6857C1.38879 5.98213 0 7.55941 0 9.45557V11.1914C0 11.3347 0.0516211 11.4659 0.137051 11.5677C0.0491602 11.7664 0 11.9859 0 12.2168V15.791C0 16.6795 0.722813 17.4023 1.61133 17.4023H9.35549C9.6791 17.4023 9.94143 17.14 9.94143 16.8164C9.94143 16.4928 9.6791 16.2305 9.35549 16.2305H1.61133C1.36898 16.2305 1.17188 16.0334 1.17188 15.791V12.2168C1.17188 11.9745 1.36898 11.7773 1.61133 11.7773H10.1953H19.8047H28.3887C28.631 11.7773 28.8281 11.9745 28.8281 12.2168V15.791C28.8281 16.0334 28.631 16.2305 28.3887 16.2305H22.8171C22.4934 16.2305 22.2311 16.4928 22.2311 16.8164C22.2311 17.14 22.4934 17.4023 22.8171 17.4023H28.3887C29.2772 17.4023 30 16.6795 30 15.791V12.2168C30 11.9859 29.9508 11.7664 29.8629 11.5677C29.9484 11.4659 30 11.3347 30 11.1914V9.45557ZM26.1375 4.10684C26.1375 4.94941 25.452 5.63496 24.6094 5.63496C23.7668 5.63496 23.0813 4.94941 23.0813 4.10684V3.69187H25.503C25.7262 3.69187 25.94 3.65092 26.1376 3.5765V4.10684H26.1375ZM24.9871 6.80684L24.6094 7.18459L24.2316 6.80684H24.9871ZM23.0813 2.19539C23.0813 1.63102 23.5404 1.17188 24.1048 1.17188H26.1375V1.88549C26.1375 2.23541 25.8529 2.52006 25.5029 2.52006H23.0813V2.19539ZM16.5281 4.10684C16.5281 4.94941 15.8426 5.63496 15 5.63496C14.1574 5.63496 13.4719 4.94941 13.4719 4.10684V3.69187H15.8936C16.1169 3.69187 16.3306 3.65092 16.5282 3.5765L16.5281 4.10684ZM15.3778 6.80684L15 7.18459L14.6222 6.80684H15.3778ZM13.4719 2.19539C13.4719 1.63102 13.931 1.17188 14.4954 1.17188H16.5281V1.88549C16.5281 2.23541 16.2435 2.52006 15.8936 2.52006H13.4719V2.19539ZM6.91875 4.10684C6.91875 4.94941 6.2332 5.63496 5.39062 5.63496C4.54805 5.63496 3.8625 4.94941 3.8625 4.10684V3.69187H6.28424C6.50748 3.69187 6.72123 3.65092 6.91881 3.5765L6.91875 4.10684ZM5.76838 6.80684L5.39062 7.18459L5.01287 6.80684H5.76838ZM3.8625 2.19539C3.8625 1.63102 4.32164 1.17188 4.88602 1.17188H6.91875V1.88549C6.91875 2.23541 6.6341 2.52006 6.28418 2.52006H3.8625V2.19539ZM1.17188 10.6055V9.45557C1.17188 8.14137 2.1341 7.04813 3.391 6.84223L4.97631 8.42754C5.08617 8.5374 5.23523 8.59916 5.39062 8.59916C5.54602 8.59916 5.69508 8.5374 5.80494 8.42754L7.39031 6.84217C8.64715 7.04813 9.60938 8.14131 9.60938 9.45551V10.6055H1.61133H1.17188ZM10.7812 9.45557C10.7812 8.14137 11.7435 7.04813 13.0004 6.84223L14.5857 8.42754C14.6955 8.5374 14.8446 8.59916 15 8.59916C15.1554 8.59916 15.3045 8.5374 15.4143 8.42754L16.9997 6.84217C18.2565 7.04813 19.2188 8.14131 19.2188 9.45551V10.6055H10.7812V9.45557ZM20.3906 10.6055V9.45557C20.3906 8.14137 21.3528 7.04813 22.6097 6.84223L24.1951 8.42754C24.3049 8.5374 24.454 8.59916 24.6094 8.59916C24.7648 8.59916 24.9138 8.5374 25.0237 8.42754L26.6091 6.84217C27.8659 7.04813 28.8281 8.14131 28.8281 9.45551V10.6055H28.3887H20.3906Z" fill="black"/>
<path d="M14.2383 26.0156C14.0842 26.0156 13.933 26.0783 13.824 26.1873C13.715 26.2963 13.6523 26.4475 13.6523 26.6016C13.6523 26.7557 13.715 26.9068 13.824 27.0158C13.933 27.1248 14.0842 27.1875 14.2383 27.1875C14.3924 27.1875 14.5436 27.1248 14.6525 27.0158C14.7615 26.9068 14.8242 26.7557 14.8242 26.6016C14.8242 26.4475 14.7615 26.2963 14.6525 26.1873C14.5436 26.0783 14.3924 26.0156 14.2383 26.0156Z" fill="black"/>
</svg>
