<svg width="36" height="36" viewBox="0 0 36 36" fill="none" xmlns="http://www.w3.org/2000/svg">
<g clip-path="url(#clip0)">
<path d="M35.7685 19.6032L33.123 15.4053C32.9134 15.0725 32.8428 14.6706 32.9258 14.2864L33.976 9.43688C34.1398 8.68112 33.7026 7.92465 32.9664 7.68842L28.2415 6.17319C27.8671 6.05301 27.5545 5.79084 27.3713 5.44302L25.0586 1.05321C24.6984 0.368864 23.8773 0.0702187 23.1614 0.362452L18.5677 2.23903C18.2037 2.38738 17.7958 2.38738 17.4318 2.23903L12.8388 0.362805C12.1229 0.0705716 11.3018 0.369217 10.9412 1.05357L8.62858 5.44296C8.44529 5.79078 8.13276 6.05295 7.75829 6.17313L3.03349 7.68836C2.29691 7.92459 1.86009 8.68112 2.02385 9.43682L3.07367 14.2863C3.15708 14.6706 3.08608 15.0725 2.87649 15.4053L0.231388 19.6032C-0.181022 20.2575 -0.0289053 21.1176 0.582209 21.5917L4.5036 24.6315C4.8146 24.8726 5.01854 25.2257 5.07189 25.6156L5.74389 30.5317C5.8483 31.2979 6.518 31.8595 7.29029 31.8294L12.2484 31.6375C12.6413 31.6221 13.0244 31.7618 13.3163 32.0258L16.9905 35.3598C17.5633 35.8792 18.4374 35.8792 19.0098 35.3598L22.6844 32.0258C22.9755 31.7614 23.359 31.6221 23.7523 31.6375L28.71 31.8294C29.483 31.8595 30.1519 31.2975 30.2567 30.5317L30.9287 25.6156C30.9821 25.2257 31.186 24.8727 31.4966 24.6315L35.418 21.5917C36.0291 21.1176 36.1809 20.2575 35.7685 19.6032ZM13.8372 23.9952L9.4587 20.937L11.2583 25.1078L10.0589 25.6254L7.29894 19.2302L8.55499 18.6878L13.0161 21.829L11.1726 17.5583L12.372 17.0403L15.1327 23.4359L13.8372 23.9952ZM16.498 22.8466L13.738 16.4514L18.4801 14.4043L18.9466 15.4864L15.4955 16.9757L16.1074 18.3932L19.3185 17.0073L19.7835 18.0849L16.5724 19.4705L17.3237 21.2111L20.8965 19.6692L21.3615 20.7469L16.498 22.8466ZM27.3085 18.1811L23.9712 13.9491L24.7649 19.2783L23.3646 19.8827L19.0781 14.1467L20.3995 13.5757L23.2597 17.5527L22.5329 12.6555L24.0692 11.9926L27.118 15.976L26.1715 11.0851L27.4715 10.5239L28.6783 17.59L27.3085 18.1811Z" fill="#F58A0E"/>
</g>
<defs>
<clipPath id="clip0">
</clipPath>
</defs>
</svg>
