<svg width="124" height="22" viewBox="0 0 124 22" fill="none" xmlns="http://www.w3.org/2000/svg">
<path d="M50.2891 17H48.4141V7.17969H43.375V17H41.5078V5.57812H50.2891V17ZM61.9906 17L60.85 13.8281H56.4828L55.3656 17H53.3969L57.6703 5.53125H59.7016L63.975 17H61.9906ZM60.3578 12.2188L59.2875 9.10938C59.2094 8.90104 59.1 8.57292 58.9594 8.125C58.824 7.67708 58.7302 7.34896 58.6781 7.14062C58.5375 7.78125 58.3318 8.48177 58.0609 9.24219L57.0297 12.2188H60.3578ZM74.6453 9.03125C74.6453 10.224 74.2547 11.138 73.4734 11.7734C72.6922 12.4089 71.5802 12.7266 70.1375 12.7266H68.95V17H67.0828V5.57812H70.3719C71.799 5.57812 72.8667 5.86979 73.575 6.45312C74.2885 7.03646 74.6453 7.89583 74.6453 9.03125ZM68.95 11.1562H69.9422C70.9005 11.1562 71.6036 10.9896 72.0516 10.6562C72.4995 10.3229 72.7234 9.80208 72.7234 9.09375C72.7234 8.4375 72.5229 7.94792 72.1219 7.625C71.7208 7.30208 71.0958 7.14062 70.2469 7.14062H68.95V11.1562ZM78.5266 5.57812H80.2375V11.5156C80.2375 12.1354 80.2219 12.763 80.1906 13.3984C80.1594 14.0286 80.1359 14.4557 80.1203 14.6797H80.1906L86.0266 5.57812H88.2062V17H86.4875V11.1094C86.4875 10.2083 86.537 9.11458 86.6359 7.82812H86.5734L80.7141 17H78.5266V5.57812ZM96.7438 17H94.8766V7.17969H91.5172V5.57812H100.103V7.17969H96.7438V17ZM109.922 17H103.461V5.57812H109.922V7.15625H105.328V10.2656H109.633V11.8281H105.328V15.4141H109.922V17ZM117.944 17H116.077V7.17969H112.717V5.57812H121.303V7.17969H117.944V17Z" fill="#292C2E"/>
<rect x="24.9696" y="0.311523" width="8.08363" height="19.76" transform="rotate(45 24.9696 0.311523)" fill="#E62E2E"/>
<rect x="13.9724" width="8.08363" height="19.76" transform="rotate(45 13.9724 0)" fill="#183D68"/>
</svg>
