<svg width="30" height="30" viewBox="0 0 30 30" fill="none" xmlns="http://www.w3.org/2000/svg">
<path d="M15 0C6.72938 0 0 6.72832 0 14.9976C0 23.267 6.72938 29.9953 15 29.9953C23.2706 29.9953 30 23.267 30 14.9976C30 6.72832 23.2706 0 15 0ZM15 28.1206C7.76438 28.1206 1.875 22.234 1.875 14.9976C1.875 7.76128 7.76438 1.87471 15 1.87471C22.2356 1.87471 28.125 7.76128 28.125 14.9976C28.125 22.234 22.2356 28.1206 15 28.1206Z" fill="#F58A0E"/>
<path d="M18.75 7.49884H14.0625C13.545 7.49884 13.125 7.91877 13.125 8.43619V16.8724H10.3125C9.795 16.8724 9.375 17.2923 9.375 17.8097C9.375 18.3271 9.795 18.7471 10.3125 18.7471H13.125V21.5591C13.125 22.0766 13.545 22.4965 14.0625 22.4965C14.58 22.4965 15 22.0766 15 21.5591V18.7471H17.8125C18.33 18.7471 18.75 18.3271 18.75 17.8097C18.75 17.2923 18.33 16.8724 17.8125 16.8724H15V14.9977H18.75C20.8181 14.9977 22.5 13.3161 22.5 11.2483C22.5 9.18045 20.8181 7.49884 18.75 7.49884ZM18.75 13.123H15V9.37355H18.75C19.785 9.37355 20.625 10.2153 20.625 11.2483C20.625 12.2812 19.785 13.123 18.75 13.123Z" fill="#F58A0E"/>
</svg>
