<svg width="26" height="26" viewBox="0 0 26 26" fill="none" xmlns="http://www.w3.org/2000/svg">
<path d="M7.56917 13.3221C7.56917 12.622 7.08302 12.2042 6.22508 12.2042C5.87511 12.2042 5.63801 12.2379 5.51367 12.2718V14.5199C5.66067 14.5533 5.84136 14.5647 6.08918 14.5647C7.00452 14.5647 7.56917 14.1017 7.56917 13.3221Z" fill="#DA221B"/>
<path d="M12.8794 12.2267C12.4949 12.2267 12.247 12.2605 12.0996 12.2944V17.2755C12.2467 17.3099 12.4839 17.3099 12.6986 17.3099C14.2572 17.3208 15.2738 16.4628 15.2738 14.6441C15.2852 13.0622 14.3587 12.2267 12.8794 12.2267Z" fill="#DA221B"/>
<path d="M23.0549 9.30008H22.4306V6.28771C22.4306 6.26892 22.4276 6.25 22.4251 6.23097C22.4241 6.11136 22.3861 5.99387 22.3042 5.90078L17.2912 0.174372C17.2897 0.172908 17.2883 0.172389 17.2872 0.170784C17.2573 0.137411 17.2225 0.109655 17.1857 0.085628C17.1748 0.0783114 17.1638 0.0721749 17.1524 0.0658496C17.1204 0.0484313 17.0866 0.0339869 17.0518 0.0235548C17.0423 0.0209114 17.0338 0.0170406 17.0244 0.014586C16.9865 0.00561727 16.9472 0 16.9074 0H4.58744C4.02487 0 3.56784 0.457548 3.56784 1.01965V9.29985H2.94366C2.13888 9.29985 1.48633 9.95211 1.48633 10.7572V18.3355C1.48633 19.14 2.13888 19.7927 2.94366 19.7927H3.56788V24.9803C3.56788 25.5424 4.02491 26 4.58749 26H21.411C21.9731 26 22.4306 25.5425 22.4306 24.9803V19.7927H23.0549C23.8595 19.7927 24.5122 19.14 24.5122 18.3355V10.7574C24.5121 9.95239 23.8594 9.30008 23.0549 9.30008ZM4.58744 1.01984H16.3976V6.2365C16.3976 6.51816 16.6261 6.7463 16.9074 6.7463H21.411V9.30041H4.58744V1.01984ZM17.104 14.5871C17.104 16.0446 16.5733 17.0495 15.838 17.6711C15.0369 18.3375 13.8167 18.6536 12.3262 18.6536C11.4341 18.6536 10.8017 18.5971 10.3719 18.5408V11.063C11.0044 10.9615 11.8295 10.905 12.6993 10.905C14.1443 10.905 15.082 11.165 15.8166 11.7182C16.6069 12.3056 17.104 13.2429 17.104 14.5871ZM3.80858 18.5747V11.063C4.3392 10.9731 5.08507 10.905 6.13555 10.905C7.19721 10.905 7.95418 11.1084 8.46228 11.5153C8.94811 11.8991 9.2749 12.5318 9.2749 13.2773C9.2749 14.0231 9.02708 14.6556 8.57491 15.0845C7.9876 15.6381 7.11796 15.8868 6.10109 15.8868C5.87555 15.8868 5.67153 15.8753 5.51411 15.8527V18.5749H3.80858V18.5747ZM21.411 24.7043H4.58744V19.7927H21.411V24.7043H21.411ZM22.8884 12.3734H19.9622V14.113H22.696V15.5137H19.9622V18.5748H18.2349V10.9615H22.8884V12.3734Z" fill="#DA221B"/>
</svg>
