<svg width="30" height="30" viewBox="0 0 30 30" fill="none" xmlns="http://www.w3.org/2000/svg">
<circle cx="15" cy="15" r="14.5" stroke="white"/>
<path d="M21.6329 18.2746L19.675 16.3208C18.9758 15.6231 17.7871 15.9022 17.5074 16.8093C17.2976 17.4373 16.5984 17.7862 15.9691 17.6466C14.5706 17.2977 12.6827 15.4835 12.3331 14.0182C12.1233 13.3902 12.5429 12.6924 13.1722 12.4831C14.0812 12.204 14.3609 11.0178 13.6616 10.3201L11.7038 8.36633C11.1444 7.87789 10.3053 7.87789 9.81584 8.36633L8.4873 9.69208C7.15876 11.0876 8.62715 14.7858 11.9135 18.0653C15.1999 21.3448 18.9059 22.8799 20.3043 21.4843L21.6329 20.1586C22.1224 19.6003 22.1224 18.763 21.6329 18.2746Z" fill="white"/>
</svg>
