<svg width="60" height="60" viewBox="0 0 60 60" fill="none" xmlns="http://www.w3.org/2000/svg">
<path d="M57.6507 30.4707C56.3564 30.4707 55.3072 29.4215 55.3072 28.1272C55.3072 15.2053 44.7944 4.6924 31.8724 4.6924C30.5781 4.6924 29.529 3.64323 29.529 2.34892C29.529 1.05462 30.5781 0.00544441 31.8724 0.00544441C46.9884 -0.306824 60.3067 13.0114 59.994 28.1274C59.9942 29.4215 58.945 30.4707 57.6507 30.4707ZM41.2464 28.1272C41.2464 22.9584 37.0412 18.7533 31.8724 18.7533C30.5781 18.7533 29.529 19.8025 29.529 21.0968C29.529 22.3911 30.5781 23.4402 31.8724 23.4402C34.4568 23.4402 36.5594 25.5428 36.5594 28.1272C36.5594 29.4215 37.6086 30.4707 38.9029 30.4707C40.1972 30.4707 41.2464 29.4215 41.2464 28.1272ZM50.6203 28.1272C50.6203 17.7896 42.2101 9.37936 31.8724 9.37936C30.5781 9.37936 29.529 10.4285 29.529 11.7228C29.529 13.0171 30.5781 14.0663 31.8724 14.0663C39.6256 14.0663 45.9333 20.374 45.9333 28.1272C45.9333 29.4215 46.9825 30.4707 48.2768 30.4707C49.5711 30.4707 50.6203 29.4215 50.6203 28.1272ZM41.2975 59.9991C41.9008 59.9856 42.4758 59.74 42.9025 59.3133L51.339 50.8768C52.2542 49.9615 52.2542 48.4777 51.339 47.5626L38.5965 34.82C37.6812 33.9047 36.1973 33.9047 35.2822 34.82L32.104 37.9982C28.9248 36.4699 23.4718 30.9968 21.9932 27.8235L25.1395 24.6772C26.0473 23.8045 26.0473 22.2357 25.1395 21.3631L12.3201 8.54356C11.4048 7.62832 9.92107 7.62832 9.00594 8.54356L0.686585 16.8629C0.25679 17.2927 0.0107248 17.8727 0.00053071 18.4805C-0.0357932 35.6572 23.2584 59.7853 41.1936 60.0001C41.2434 60.0001 41.2785 59.9995 41.2975 59.9991ZM10.663 13.5149L20.1683 23.0202L17.5595 25.6289C16.9685 26.22 16.737 27.0812 16.952 27.889C18.1824 32.8374 27.1739 41.8168 32.0257 43.0469C32.8341 43.264 33.6979 43.0329 34.2902 42.4406L36.9393 39.7914L46.3677 49.2198L40.3215 55.2659C27.3246 54.5045 6.42237 36.4362 4.74186 19.4359L10.663 13.5149Z" fill="#F58A0E"/>
</svg>
