<svg width="24" height="25" viewBox="0 0 24 25" fill="none" xmlns="http://www.w3.org/2000/svg">
<g clip-path="url(#clip0)">
<path d="M12 0.181824C5.37267 0.181824 0 5.5544 0 12.1818C0 18.8092 5.37267 24.1818 12 24.1818C18.6273 24.1818 24 18.8092 24 12.1818C24 5.5544 18.6273 0.181824 12 0.181824ZM16.1475 12.8179L10.1475 16.5679C10.0261 16.6437 9.88805 16.6818 9.75 16.6818C9.62494 16.6818 9.49969 16.6507 9.38634 16.5877C9.14794 16.4555 9 16.2046 9 15.9318V8.43182C9 8.15901 9.14794 7.90814 9.38634 7.77595C9.62475 7.64301 9.91627 7.65107 10.1475 7.79573L16.1475 11.5457C16.3667 11.6831 16.5 11.9233 16.5 12.1818C16.5 12.4403 16.3667 12.6806 16.1475 12.8179Z" fill="white"/>
</g>
<defs>
<clipPath id="clip0">
<rect width="24" height="24" fill="white" />
</clipPath>
</defs>
</svg>
