<svg width="26" height="26" viewBox="0 0 26 26" fill="none" xmlns="http://www.w3.org/2000/svg">
<path d="M6.43993 13.0617C6.43993 12.401 5.98153 12.0066 5.17075 12.0066C4.8408 12.0066 4.61724 12.0385 4.50027 12.0706V14.1913C4.63867 14.2232 4.80894 14.2336 5.04406 14.2336C5.90662 14.2342 6.43993 13.7968 6.43993 13.0617Z" fill="#FFBC60"/>
<path d="M22.5685 9.30008H21.9442V6.28771C21.9442 6.26892 21.9412 6.25 21.9387 6.23097C21.9377 6.11136 21.8997 5.99387 21.8178 5.90078L16.8049 0.174372C16.8034 0.172908 16.8019 0.172389 16.8009 0.170784C16.771 0.137411 16.7362 0.109655 16.6993 0.085628C16.6884 0.0783114 16.6774 0.0721749 16.666 0.0658496C16.6341 0.0484313 16.6003 0.0339869 16.5654 0.0235548C16.556 0.0209114 16.5475 0.0170406 16.538 0.014586C16.5002 0.00561727 16.4609 0 16.421 0H4.10111C3.53854 0 3.08151 0.457548 3.08151 1.01965V9.29985H2.45733C1.65255 9.29985 1 9.95211 1 10.7572V18.3355C1 19.14 1.65255 19.7927 2.45733 19.7927H3.08155V24.9803C3.08155 25.5424 3.53858 26 4.10116 26H20.9247C21.4867 26 21.9443 25.5425 21.9443 24.9803V19.7927H22.5686C23.3731 19.7927 24.0258 19.14 24.0258 18.3355V10.7574C24.0258 9.95239 23.3731 9.30008 22.5685 9.30008ZM4.10111 1.01984H15.9112V6.2365C15.9112 6.51816 16.1397 6.7463 16.421 6.7463H20.9246V9.30041H4.10111V1.01984ZM10.5749 15.8539V18.0173H9.08316V10.8344H10.98L12.4722 13.4665C12.8982 14.2232 13.3249 15.1178 13.644 15.9284H13.6759C13.5693 14.9794 13.5374 14.0099 13.5374 12.9337V10.8344H15.0297V18.0173H13.3249L11.79 15.2463C11.3628 14.4791 10.8945 13.5521 10.542 12.7102L10.5106 12.7207C10.5542 13.6693 10.5749 14.6817 10.5749 15.8539ZM2.89061 10.9306C3.39159 10.8454 4.09507 10.7814 5.08588 10.7814C6.08731 10.7814 6.80189 10.9731 7.28129 11.3569C7.73908 11.7191 8.04859 12.3158 8.04859 13.0194C8.04859 13.7226 7.81451 14.3198 7.38778 14.7246C6.8337 15.2468 6.01306 15.4813 5.05397 15.4813C4.84052 15.4813 4.64835 15.4704 4.49999 15.4494V18.0179H2.89061V10.9306ZM20.9247 24.7043H4.10111V19.7927H20.9246V24.7043H20.9247ZM22.4376 17.6868C21.9368 17.857 20.9878 18.092 20.0394 18.092C18.7291 18.092 17.7796 17.7614 17.1195 17.1222C16.4589 16.5038 16.0959 15.5659 16.1069 14.511C16.1174 12.1239 17.8548 10.76 20.2097 10.76C21.137 10.76 21.8516 10.9408 22.2026 11.1115L21.8621 12.4116C21.467 12.2409 20.9769 12.1024 20.1883 12.1024C18.8356 12.1024 17.812 12.8698 17.812 14.4258C17.812 15.9072 18.7395 16.7809 20.0718 16.7809C20.4445 16.7809 20.7429 16.7384 20.8711 16.6744V15.1716H19.7622V13.9033H22.4376V17.6868H22.4376Z" fill="#FFBC60"/>
</svg>
