<svg width="87" height="86" viewBox="0 0 87 86" fill="none" xmlns="http://www.w3.org/2000/svg">
<g clip-path="url(#clip0)">
<path d="M26.7972 51.207C23.0025 58.5901 11.8434 59.5252 11.8434 59.5252L14.559 54.2529L9.28265 51.5359L33.908 38.8538L26.7972 51.207Z" fill="#F29C1F"/>
<path d="M33.9842 39.3776L29.9082 11.4452L35.1819 14.1567L37.8964 8.88472C37.8964 8.88472 43.6227 18.502 39.8234 25.8863L33.9842 39.3776Z" fill="#F29C1F"/>
<path d="M33.9337 37.3373L26.9798 35.2909C26.9798 35.2909 18.2463 32.7179 13.9124 39.9543C13.6704 40.3709 13.5544 40.8487 13.5784 41.3298C13.6469 44.5524 14.8941 47.638 17.084 50.0031C17.8762 50.8013 18.9808 51.2085 20.1015 51.1156C22.183 50.935 25.8451 50.3136 28.3653 48.1583L33.9337 37.3373Z" fill="#F0C419"/>
<path d="M32.6879 39.7596L26.9806 35.2923C26.9806 35.2923 19.8125 29.6823 23.1768 21.9491C23.3753 21.5101 23.6967 21.1382 24.1022 20.8782C26.7636 19.0591 29.9998 18.2794 33.1976 18.6867C34.3061 18.865 35.2794 19.5234 35.8575 20.4859C37.4692 23.0047 38.3037 25.9423 38.257 28.9323L32.6879 39.7596Z" fill="#F0C419"/>
<path d="M70.793 38.147L78.4699 66.7973C78.8048 68.0626 78.0553 69.3609 76.792 69.7035L42.4116 78.9157C41.1463 79.2507 39.8479 78.5011 39.5054 77.2378L31.5215 47.4414L69.3399 37.308C69.9729 37.1384 70.6234 37.514 70.793 38.147Z" fill="#E64C3C"/>
<path d="M44.1964 44.0452L35.2647 61.4113L31.5215 47.4414L44.1964 44.0452Z" fill="#C03A2B"/>
<path d="M46.4199 43.4495L55.588 40.9929L64.1861 73.0813L55.018 75.5379L46.4199 43.4495Z" fill="#F0C419"/>
<path d="M68.054 46.2511C67.4211 46.4207 66.7705 46.045 66.6009 45.4121L65.9868 43.1201C65.8172 42.4871 66.1928 41.8366 66.8257 41.667C67.4586 41.4974 68.1092 41.873 68.2788 42.5059L68.8929 44.798C69.0625 45.4309 68.6869 46.0815 68.054 46.2511Z" fill="#C03A2B"/>
<path d="M73.5807 66.8791C72.9477 67.0487 72.2972 66.6731 72.1276 66.0402L67.8286 49.996C67.659 49.3631 68.0346 48.7125 68.6675 48.5429C69.3004 48.3733 69.951 48.7489 70.1206 49.3819L74.4196 65.426C74.5892 66.059 74.2136 66.7095 73.5807 66.8791Z" fill="#C03A2B"/>
<path d="M43.7838 74.8631C43.1509 75.0327 42.5003 74.6571 42.3307 74.0242L38.0317 57.98C37.8621 57.3471 38.2377 56.6965 38.8706 56.5269C39.5036 56.3573 40.1541 56.7329 40.3237 57.3658L44.6227 73.41C44.7923 74.0429 44.4167 74.6935 43.7838 74.8631Z" fill="#C03A2B"/>
<path d="M25.9708 39.2377C24.1992 39.1351 20.5355 39.3061 18.1536 42.1061C17.9392 42.3601 17.9916 42.7391 18.2691 42.8122C21.2311 43.5668 24.372 43.1013 26.9877 41.5201L25.9708 39.2377Z" fill="#F29C1F"/>
<path d="M29.5939 32.1746C28.4856 30.7888 26.5056 27.7081 27.3955 24.1533C27.4677 23.8269 27.8244 23.6453 28.0348 23.8346C30.3808 25.7961 31.8304 28.6257 32.0519 31.6756L32.055 31.6871L29.5939 32.1746Z" fill="#F29C1F"/>
<path d="M56.3249 31.3292C55.7575 31.0017 55.0321 31.1961 54.7045 31.7634L54.4587 32.1891L54.0329 31.9433C53.4669 31.6295 52.7538 31.8272 52.4302 32.3877C52.1065 32.9483 52.2919 33.6647 52.8467 33.998L53.2724 34.2438L53.0266 34.6695C52.8058 35.0371 52.8005 35.4952 53.0127 35.8678C53.225 36.2404 53.6217 36.4694 54.0505 36.467C54.4793 36.4645 54.8734 36.2308 55.0813 35.8558L55.3271 35.4301L55.7528 35.6759C56.3189 35.9897 57.032 35.792 57.3556 35.2314C57.6792 34.6709 57.4939 33.9545 56.9391 33.6212L56.5133 33.3754L56.7591 32.9496C57.0866 32.3823 56.8922 31.6568 56.3249 31.3292Z" fill="#955BA5"/>
<path d="M68.6238 26.8051C68.0564 26.4776 67.3309 26.672 67.0033 27.2393L66.7575 27.6651L66.3317 27.4192C65.7657 27.1054 65.0526 27.3032 64.729 27.8637C64.4054 28.4242 64.5907 29.1406 65.1455 29.4739L65.5712 29.7197L65.3254 30.1455C65.1046 30.513 65.0993 30.9711 65.3115 31.3437C65.5238 31.7163 65.9205 31.9454 66.3493 31.9429C66.7781 31.9404 67.1722 31.7067 67.3801 31.3317L67.6259 30.906L68.0516 31.1518C68.6177 31.4656 69.3308 31.2679 69.6544 30.7074C69.978 30.1469 69.7927 29.4304 69.2379 29.0971L68.8122 28.8513L69.058 28.4256C69.3854 27.8582 69.1911 27.1327 68.6238 26.8051Z" fill="#955BA5"/>
<path d="M72.0858 18.1481L72.3316 17.7223C72.6454 17.1563 72.4477 16.4432 71.8872 16.1196C71.3267 15.796 70.6103 15.9813 70.277 16.5361L70.0311 16.9618L69.6054 16.716C69.0393 16.4022 68.3262 16.5999 68.0026 17.1604C67.679 17.7209 67.8643 18.4374 68.4191 18.7707L68.8449 19.0165L68.5991 19.4423C68.3783 19.8098 68.3729 20.2679 68.5852 20.6405C68.7974 21.0131 69.1942 21.2421 69.623 21.2397C70.0518 21.2372 70.4458 21.0035 70.6537 20.6285L70.8995 20.2028L71.3253 20.4486C71.8913 20.7624 72.6045 20.5647 72.9281 20.0041C73.2517 19.4436 73.0664 18.7272 72.5116 18.3939L72.0858 18.1481Z" fill="#F0C419"/>
<path d="M61.0515 21.4648C60.4841 21.1373 59.7587 21.3317 59.431 21.899L59.1852 22.3248L58.7595 22.0789C58.1934 21.7651 57.4803 21.9629 57.1567 22.5234C56.8331 23.0839 57.0184 23.8003 57.5732 24.1336L57.999 24.3794L57.7532 24.8052C57.5324 25.1727 57.527 25.6308 57.7393 26.0034C57.9515 26.376 58.3483 26.6051 58.7771 26.6026C59.2058 26.6001 59.5999 26.3665 59.8078 25.9914L60.0536 25.5657L60.4794 25.8115C61.0454 26.1253 61.7585 25.9276 62.0821 25.3671C62.4057 24.8066 62.2204 24.0901 61.6656 23.7568L61.2399 23.511L61.4857 23.0853C61.8132 22.5179 61.6188 21.7924 61.0515 21.4648Z" fill="#F0C419"/>
<path d="M61.935 15.5947L62.1808 15.1689L62.6065 15.4147C63.1726 15.7285 63.8857 15.5308 64.2093 14.9703C64.5329 14.4098 64.3476 13.6933 63.7928 13.36L63.3671 13.1142L63.6129 12.6885C63.9267 12.1224 63.729 11.4093 63.1684 11.0857C62.6079 10.7621 61.8915 10.9474 61.5582 11.5022L61.3124 11.928L60.8866 11.6822C60.3206 11.3684 59.6075 11.5661 59.2839 12.1266C58.9603 12.6871 59.1456 13.4035 59.7004 13.7368L60.1261 13.9826L59.8803 14.4084C59.6595 14.776 59.6542 15.2341 59.8664 15.6066C60.0787 15.9792 60.4754 16.2083 60.9042 16.2058C61.333 16.2033 61.7271 15.9697 61.935 15.5947Z" fill="#955BA5"/>
<path d="M24.6359 55.4169L41.9985 21.6394C42.5978 20.4734 44.0288 20.0141 45.1948 20.6134L50.4725 23.3263C51.0555 23.626 51.2851 24.3415 50.9855 24.9244L32.5378 60.8131C32.2381 61.3961 31.5226 61.6258 30.9396 61.3261L25.6619 58.6132C24.496 58.0139 24.0366 56.5829 24.6359 55.4169Z" fill="#E64C3C"/>
<path d="M30.0625 44.861L36.5735 32.1944L45.0179 36.5351L38.5069 49.2017L30.0625 44.861Z" fill="#F0C419"/>
<path d="M36.0238 33.2717L33.9132 32.184C32.7939 31.6079 31.4915 31.5002 30.2927 31.8845C29.0939 32.2688 28.097 33.1137 27.5212 34.2332L26.4364 36.3455C25.2375 38.6761 26.1548 41.5373 28.4854 42.7363L30.5953 43.8218L36.0238 33.2717Z" fill="#F3D55B"/>
</g>
<defs>
<clipPath id="clip0">
<rect width="70" height="70" fill="white" transform="translate(0.382812 18.3223) rotate(-15)"/>
</clipPath>
</defs>
</svg>
