<svg width="18" height="15" viewBox="0 0 18 15" fill="none" xmlns="http://www.w3.org/2000/svg">
<path d="M0.0828337 10.3749C0.0828337 12.4784 1.923 14.1836 4.19306 14.1836C6.46316 14.1836 8.30333 12.4784 8.30333 10.3749C8.30333 8.2713 6.46316 6.56615 4.19306 6.56615C3.72653 6.56615 3.27995 6.64152 2.86188 6.77433C3.78686 1.8585 7.92373 -1.31165 4.08886 1.29745C-0.163433 4.19065 0.0782795 10.2585 0.0830376 10.3697C0.0830376 10.3714 0.0828337 10.3729 0.0828337 10.3749Z" fill="#2691E8"/>
<path d="M9.12526 10.3749C9.12526 12.4784 10.9654 14.1836 13.2355 14.1836C15.5056 14.1836 17.3458 12.4784 17.3458 10.3749C17.3458 8.2713 15.5056 6.56615 13.2355 6.56615C12.7689 6.56615 12.3224 6.64152 11.9043 6.77433C12.8293 1.8585 16.9661 -1.31165 13.1313 1.29745C8.879 4.19065 9.12067 10.2585 9.12547 10.3697C9.12547 10.3714 9.12526 10.3729 9.12526 10.3749Z" fill="#2691E8"/>
</svg>
