<svg width="26" height="26" viewBox="0 0 26 26" fill="none" xmlns="http://www.w3.org/2000/svg">
<path d="M12.8073 13.3276C12.6711 12.8756 12.5358 12.3109 12.4229 11.859H12.4002C12.2876 12.3109 12.1746 12.8869 12.0502 13.3276L11.5985 14.9424H13.2819L12.8073 13.3276Z" fill="#A5518E"/>
<path d="M23.0557 9.30007H22.4313V6.28771C22.4313 6.26893 22.4284 6.25001 22.4259 6.231C22.4249 6.11136 22.3867 5.9939 22.3049 5.90076L17.292 0.174364C17.2905 0.172894 17.289 0.172372 17.288 0.170807C17.2581 0.137423 17.2233 0.109635 17.1864 0.0856407C17.1755 0.078338 17.1645 0.0722208 17.1531 0.0658191C17.1212 0.0484633 17.0873 0.0340002 17.0525 0.0235204C17.043 0.0209123 17.0345 0.0170712 17.0251 0.0146054C16.9873 0.00559557 16.948 0 16.9082 0H4.58819C4.02565 0 3.56861 0.457556 3.56861 1.01963V9.29979H2.94437C2.13961 9.29979 1.48706 9.9521 1.48706 10.7571V18.3354C1.48706 19.1401 2.13961 19.7927 2.94437 19.7927H3.56861V24.9804C3.56861 25.5425 4.02565 26 4.58819 26H21.4117C21.9738 26 22.4313 25.5425 22.4313 24.9804V19.7928H23.0556C23.8601 19.7928 24.5128 19.1401 24.5128 18.3355V10.7574C24.5128 9.95238 23.8602 9.30007 23.0557 9.30007ZM4.58819 1.01986H16.3983V6.23655C16.3983 6.51817 16.6268 6.74631 16.9082 6.74631H21.4117V9.3004H4.58819V1.01986ZM15.9697 18.1841H14.1167L13.5297 16.23H11.3494L10.8075 18.1841H9.02296L11.3494 10.5711H13.6083L15.9697 18.1841ZM4.48169 15.1911V18.1841H2.77613V10.673C3.32952 10.5823 4.1543 10.5147 5.06903 10.5147C6.19862 10.5147 6.98959 10.684 7.53151 11.1133C7.98295 11.4745 8.23195 12.0057 8.23195 12.706C8.23195 13.6774 7.54308 14.3438 6.88788 14.5811V14.6151C7.41889 14.8297 7.71223 15.3375 7.90428 16.0383C8.14152 16.8966 8.37838 17.8905 8.52572 18.1842H6.76382C6.63935 17.9695 6.45839 17.3489 6.23286 16.4109C6.02948 15.4622 5.70214 15.2021 5.00165 15.1911L4.48169 15.1911ZM21.4117 24.7043H4.58819V19.7928H21.4117V24.7043H21.4117ZM20.9746 18.1841C20.8501 17.9694 20.6694 17.3488 20.4434 16.4108C20.2405 15.4621 19.9125 15.202 19.2127 15.191H18.693V18.1841H16.9873V10.673C17.5409 10.5823 18.3649 10.5147 19.2799 10.5147C20.4098 10.5147 21.2002 10.684 21.7425 11.1133C22.1944 11.4745 22.4433 12.0057 22.4433 12.706C22.4433 13.6774 21.7537 14.3438 21.0986 14.5811V14.6151C21.6298 14.8297 21.9235 15.3375 22.1152 16.0383C22.3527 16.8966 22.5897 17.8905 22.7368 18.1842H20.9746V18.1841Z" fill="#A5518E"/>
<path d="M6.5262 12.853C6.5262 12.1526 6.05191 11.8025 5.26118 11.7908C4.84312 11.7908 4.60612 11.8247 4.4814 11.8473V13.9479H5.15922C6.01819 13.9484 6.5262 13.5192 6.5262 12.853Z" fill="#A5518E"/>
<path d="M19.4725 11.791C19.0541 11.791 18.8174 11.8249 18.6927 11.8476V13.9484H19.3705C20.2283 13.9484 20.7371 13.5192 20.7371 12.853C20.7371 12.1525 20.2632 11.8025 19.4725 11.791Z" fill="#A5518E"/>
</svg>
