<svg width="60" height="60" viewBox="0 0 60 60" fill="none" xmlns="http://www.w3.org/2000/svg">
<rect width="60" height="60" fill="white"/>
<path d="M47.0794 32.1675V11.5146C47.0794 9.02378 45.0556 7 42.5648 7H11.0146C8.52378 7 6.5 9.02378 6.5 11.5146V43.0648C6.5 45.5556 8.52378 47.5794 11.0146 47.5794M21.0297 47.5794H33.5356M34.7811 40.8335H13.2978V37.4086C13.2978 31.7524 22.2232 29.3654 26.7897 29.3654C30.2146 29.3654 36.1302 30.7146 38.8286 33.7762M26.7897 27.2897C23.0535 27.2897 20.0438 24.2281 20.0438 20.5438C20.0438 16.8594 23.1054 13.7978 26.7897 13.7978C30.474 13.7978 33.5356 16.8594 33.5356 20.5438C33.5356 24.2281 30.5259 27.2897 26.7897 27.2897Z" stroke="#183D68" stroke-width="1.5" stroke-miterlimit="10"/>
<path d="M46.4044 54.9999C51.8496 54.9999 56.2638 50.5857 56.2638 45.1405C56.2638 39.6952 51.8496 35.281 46.4044 35.281C40.9591 35.281 36.5449 39.6952 36.5449 45.1405C36.5449 50.5857 40.9591 54.9999 46.4044 54.9999Z" fill="white" stroke="#183D68" stroke-width="1.5" stroke-miterlimit="10"/>
<path d="M46.7 40L48.3 43.25L51.85 43.75L49.3 46.3L49.9 49.85L46.7 48.15L43.5 49.85L44.1 46.3L41.5 43.75L45.1 43.25L46.7 40Z" stroke="#183D68" stroke-width="1.5" stroke-miterlimit="10"/>
<path d="M16.8264 48.41C17.2849 48.41 17.6566 48.0383 17.6566 47.5797C17.6566 47.1212 17.2849 46.7495 16.8264 46.7495C16.3678 46.7495 15.9961 47.1212 15.9961 47.5797C15.9961 48.0383 16.3678 48.41 16.8264 48.41Z" fill="#183D68"/>
</svg>
