<svg width="60" height="60" viewBox="0 0 60 60" fill="none" xmlns="http://www.w3.org/2000/svg">
<rect width="60" height="60" fill="white"/>
<path d="M28.0215 34.2478L37.8169 24.4523" stroke="#183D68" stroke-width="1.5" stroke-miterlimit="10"/>
<path d="M35.6334 30.3083C34.4622 30.3083 33.5039 31.2665 33.5039 32.4377C33.5039 33.6089 34.4622 34.6204 35.6866 34.6204C36.8578 34.6204 37.8693 33.6622 37.8693 32.4377C37.8693 31.2665 36.911 30.3083 35.6334 30.3083Z" stroke="#183D68" stroke-width="1.5" stroke-miterlimit="10"/>
<path d="M29.7237 28.7108C30.8949 28.7108 31.9064 27.7525 31.9064 26.5281C31.9064 25.3569 30.9481 24.3454 29.7237 24.3454C28.5525 24.3454 27.541 25.3036 27.541 26.5281C27.541 27.7525 28.4993 28.7108 29.7237 28.7108Z" stroke="#183D68" stroke-width="1.5" stroke-miterlimit="10"/>
<path d="M28.4995 17.3184C29.9369 16.7328 31.4807 16.4666 33.0246 16.4666C36.1655 16.4666 39.1467 17.6378 41.4359 19.7141L41.8085 19.9802L50.1666 12.8466L49.7407 12.4207C45.3221 8.0021 39.3597 5.5 33.0246 5.5C29.6707 5.5 26.4233 6.24531 23.2824 7.62945L22.75 7.84239L28.0736 17.4781L28.4995 17.3184Z" stroke="#183D68" stroke-width="1.5" stroke-miterlimit="10"/>
<path d="M25.6789 39.518C22.4848 37.2288 20.4086 33.5023 20.4086 29.2434C20.4086 25.2507 22.3783 21.4709 25.5725 19.0753L25.9451 18.8091L20.6747 9.06689L20.1424 9.33308C13.3814 13.7517 9.38867 21.1515 9.38867 29.1369C9.38867 42.1265 19.9827 52.7205 32.9723 52.7205C36.3262 52.7205 39.5736 51.9752 42.7145 50.5911L43.2469 50.3782" stroke="#183D68" stroke-width="1.5" stroke-miterlimit="10"/>
<path d="M56.6614 31.2133L45.5351 28.445M52.1363 15.2956L51.7637 14.8698L43.4056 22.0034L43.6718 22.376C45.0027 24.399 45.6948 26.7947 45.6948 29.1903C45.6948 33.183 43.725 36.9628 40.5309 39.3584L40.1582 39.6246L45.4818 49.2603L46.0142 48.9941C52.7752 44.6288 56.7679 37.2289 56.7679 29.2435C56.6082 24.1861 55.0643 19.3948 52.1363 15.2956ZM55.3837 21.471L46.4933 19.3416L55.3837 21.471ZM56.6082 26.422L44.5236 23.6005L56.6082 26.422ZM51.604 43.8302L41.3294 41.3814L51.604 43.8302ZM54.2125 39.8375L42.7135 37.0692L54.2125 39.8375ZM55.8629 35.5786L44.843 32.97L55.8629 35.5786Z" stroke="#183D68" stroke-width="1.5" stroke-miterlimit="10"/>
<path d="M13.1149 54.85C18.7012 54.85 23.2297 50.3214 23.2297 44.7351C23.2297 39.1488 18.7012 34.6202 13.1149 34.6202C7.52858 34.6202 3 39.1488 3 44.7351C3 50.3214 7.52858 54.85 13.1149 54.85Z" fill="white" stroke="#183D68" stroke-width="1.5" stroke-miterlimit="10"/>
<path d="M8 46.2L8.85 46.1C8.95 46.6 9.1 46.95 9.35 47.15C9.6 47.35 9.9 47.45 10.2 47.45C10.6 47.45 10.95 47.3 11.2 47.05C11.5 46.75 11.6 46.4 11.6 46C11.6 45.6 11.45 45.3 11.2 45C10.95 44.75 10.6 44.6 10.2 44.6C10.05 44.6 9.85 44.65 9.6 44.7L9.7 43.95C9.75 43.95 9.8 43.95 9.85 43.95C10.2 43.95 10.55 43.85 10.85 43.65C11.15 43.45 11.3 43.15 11.3 42.75C11.35 42.5 11.25 42.2 11.05 42C10.85 41.8 10.55 41.7 10.2 41.7C9.9 41.7 9.6 41.8 9.35 42C9.1 42.2 9 42.55 8.95 42.95L8.1 42.8C8.2 42.2 8.45 41.8 8.8 41.45C9.15 41.15 9.65 41 10.2 41C10.6 41 10.95 41.1 11.25 41.25C11.55 41.4 11.8 41.65 12 41.9C12.2 42.15 12.25 42.5 12.25 42.8C12.25 43.1 12.15 43.4 12 43.65C11.85 43.9 11.6 44.1 11.25 44.25C11.7 44.35 12 44.55 12.25 44.85C12.45 45.15 12.6 45.5 12.6 45.95C12.6 46.55 12.4 47.1 11.95 47.5C11.5 47.9 10.95 48.15 10.25 48.15C9.65 48.15 9.15 47.95 8.7 47.6C8.3 47.25 8.05 46.75 8 46.2Z" fill="#183D68"/>
<path d="M13.4492 44.55C13.4492 43.7 13.5492 43.05 13.6992 42.55C13.8492 42.05 14.0992 41.65 14.4492 41.4C14.7992 41.15 15.1992 41 15.6992 41C16.0992 41 16.3992 41.1 16.6992 41.25C16.9992 41.4 17.1992 41.6 17.3992 41.9C17.5992 42.2 17.7492 42.55 17.8492 42.95C17.9492 43.35 17.9992 43.9 17.9992 44.55C17.9992 45.35 17.8992 46.05 17.7492 46.55C17.5992 47.05 17.3492 47.45 16.9992 47.7C16.6492 47.95 16.2492 48.1 15.7492 48.1C15.0992 48.1 14.5492 47.85 14.1492 47.35C13.6492 46.85 13.4492 45.9 13.4492 44.55ZM14.2992 44.55C14.2992 45.7 14.4492 46.45 14.6992 46.85C14.9492 47.25 15.2992 47.4 15.6992 47.4C16.0992 47.4 16.4492 47.2 16.6992 46.85C16.9492 46.5 17.0992 45.7 17.0992 44.55C17.0992 43.4 16.9492 42.65 16.6992 42.25C16.4492 41.85 16.0992 41.7 15.6992 41.7C15.2992 41.7 14.9992 41.85 14.7492 42.2C14.4492 42.65 14.2992 43.45 14.2992 44.55Z" fill="#183D68"/>
<path d="M31.3752 42.233C31.8456 42.233 32.227 41.8517 32.227 41.3813C32.227 40.9108 31.8456 40.5295 31.3752 40.5295C30.9048 40.5295 30.5234 40.9108 30.5234 41.3813C30.5234 41.8517 30.9048 42.233 31.3752 42.233Z" fill="#183D68"/>
</svg>
