<svg width="120" height="120" viewBox="0 0 120 120" fill="none" xmlns="http://www.w3.org/2000/svg">
<path d="M120 0H0V120H120V0Z" fill="white"/>
<path d="M59.75 86.3102C50.7 86.3102 42.21 81.4002 37.61 73.5002C37.42 73.1702 37.02 72.9702 36.64 72.9702C36.46 72.9702 36.29 73.0102 36.13 73.1002L16.93 83.9802C16.58 84.1802 16.49 84.4002 16.45 84.5802C16.37 84.9002 16.41 85.1902 16.55 85.4502C25.37 100.94 41.92 110.56 59.75 110.56C72.42 110.56 84.47 105.81 93.69 97.1902" stroke="#183D68" stroke-width="1.5" stroke-miterlimit="10" stroke-linecap="round"/>
<path d="M75.61 82.9599C75.61 83.4183 75.2383 83.7899 74.78 83.7899C74.3216 83.7899 73.95 83.4183 73.95 82.9599C73.95 82.5015 74.3216 82.1299 74.78 82.1299C75.2383 82.1299 75.61 82.5015 75.61 82.9599Z" fill="#183D68" stroke="#183D68" stroke-width="1.5"/>
<path d="M49.5299 34.63C49.9999 34.47 50.2099 34.01 50.2099 33.62V16.11C50.2099 15.77 50.0399 15.44 49.7699 15.23C49.6599 15.15 49.4699 15.04 49.2299 15.04C49.1699 15.04 49.0999 15.05 49.0299 15.07C27.6099 20.1 12.6899 38.92 12.6899 60.86C12.6899 65.29 13.3199 69.76 14.5699 74.13C14.6599 74.4 14.9099 74.66 15.2399 74.79C15.4499 74.87 15.7799 74.92 16.1399 74.71L16.1599 74.7L31.4599 65.95C31.9599 65.68 32.0099 65.13 31.9999 64.88C31.7599 63.7 31.6399 62.35 31.6399 60.87C31.6399 49.19 38.6599 38.9 49.5299 34.63Z" stroke="#183D68" stroke-width="1.5" stroke-miterlimit="10"/>
<path d="M102.19 82.35L101.43 83.84L84.1498 73.79L84.7598 72.48C86.4598 68.83 87.3498 64.81 87.3498 60.86C87.3498 46.53 76.5598 34.7 62.2498 33.34L60.8198 33.2V13.29L62.4898 13.39C87.6198 14.86 107.31 35.71 107.31 60.86C107.31 68.41 105.59 75.65 102.19 82.35Z" stroke="#183D68" stroke-width="1.5" stroke-miterlimit="10"/>
</svg>
