<svg width="120" height="120" viewBox="0 0 120 120" fill="none" xmlns="http://www.w3.org/2000/svg">
<path d="M19.53 90.0998C22.5234 90.0998 24.95 87.6731 24.95 84.6798C24.95 81.6864 22.5234 79.2598 19.53 79.2598C16.5366 79.2598 14.11 81.6864 14.11 84.6798C14.11 87.6731 16.5366 90.0998 19.53 90.0998Z" stroke="black" stroke-miterlimit="10"/>
<path d="M120 0H0V120H120V0Z" fill="white"/>
<path d="M36.79 83.9602H99.55C104.35 83.9602 108.25 80.0602 108.25 75.2602V14.0702C108.25 13.5702 107.9 13.2202 107.4 13.2202H13.25C12.75 13.2202 12.4 13.5702 12.4 14.0702V68.9902" stroke="#183D68" stroke-width="1.5" stroke-miterlimit="10" stroke-linecap="round" stroke-linejoin="round"/>
<path d="M76.6 107.62L60.91 91.9302C60.73 91.7502 60.51 91.6802 60.28 91.6602C60.14 91.6602 59.95 91.7001 59.78 91.8801L44.04 107.62" stroke="#183D68" stroke-width="1.5" stroke-miterlimit="10" stroke-linecap="round"/>
<path d="M60.3201 109.09V91.6704" stroke="#183D68" stroke-width="1.5" stroke-miterlimit="10" stroke-linecap="round"/>
<path d="M43.8501 54.8C40.8101 54.8 38.4301 52.42 38.4301 49.38C38.4301 46.34 40.8101 43.96 43.8501 43.96C46.8901 43.96 49.2701 46.34 49.2701 49.38C49.2701 52.41 46.8901 54.8 43.8501 54.8Z" stroke="#183D68" stroke-width="1.5" stroke-miterlimit="10"/>
<path d="M72.0201 65.8502C72.0201 68.8902 69.6401 71.2702 66.6001 71.2702C63.5601 71.2702 61.1801 68.8902 61.1801 65.8502C61.1801 62.8102 63.5601 60.4302 66.6001 60.4302C69.6401 60.4302 72.0201 62.8102 72.0201 65.8502Z" stroke="#183D68" stroke-width="1.5" stroke-miterlimit="10"/>
<path d="M88.56 38.32C85.52 38.32 83.14 35.94 83.14 32.9C83.14 29.86 85.52 27.48 88.56 27.48C91.6 27.48 93.98 29.86 93.98 32.9C93.99 35.94 91.6 38.32 88.56 38.32Z" stroke="#183D68" stroke-width="1.5" stroke-miterlimit="10"/>
<path d="M22.5 80.1198L40.66 53.7798" stroke="#183D68" stroke-width="1.5" stroke-miterlimit="10"/>
<path d="M48.27 52.54L62.01 62.93" stroke="#183D68" stroke-width="1.5" stroke-miterlimit="10"/>
<path d="M69.92 61.5398L85.68 37.5098" stroke="#183D68" stroke-width="1.5" stroke-miterlimit="10"/>
</svg>
