<svg width="120" height="120" viewBox="0 0 120 120" fill="none" xmlns="http://www.w3.org/2000/svg">
<path d="M120 0H0V120H120V0Z" fill="white"/>
<path d="M73.0298 83.9701C72.7198 87.1901 69.1398 88.3501 67.4198 88.7201C66.0698 89.0101 64.7798 89.0201 63.3998 88.4401L47.9698 81.5201C47.5098 81.3101 46.9598 81.5201 46.7398 81.9801C46.6398 82.1901 46.6398 82.4201 46.7298 82.6501C46.8198 82.8801 46.9998 83.0701 47.2198 83.1801L63.1698 90.2701C64.9798 91.0801 66.9498 91.1201 68.6998 90.4101L68.8698 90.3501C69.0198 90.3101 70.0098 89.8801 70.0398 89.8701L100.38 77.0001C101.72 76.4401 103.25 76.4401 104.58 77.0001C105.91 77.5501 106.99 78.6301 107.54 79.9601C108.09 81.2901 108.09 82.8201 107.54 84.1501C106.99 85.4801 105.91 86.5601 104.58 87.1101L59.5498 106.11C55.4898 107.82 50.9298 107.69 47.0398 105.75L28.0398 96.5001" stroke="#183D68" stroke-width="1.5" stroke-miterlimit="10"/>
<path d="M73.0099 84.1901C73.2199 81.0601 72.0499 78.2601 69.2299 77.0401L48.4499 67.7701C40.1699 64.0801 30.5299 65.2101 23.2999 70.7101L20.0499 73.2501L19.2999 74.0101C19.0999 74.2101 19.0199 74.3901 19.0199 74.6301V101.68H12.6499" stroke="#183D68" stroke-width="1.5" stroke-miterlimit="10"/>
<path d="M75.8699 79.0902L88.5699 73.8002C90.7499 72.8702 93.2999 73.4702 94.9099 75.3102L97.5199 78.2102" stroke="#183D68" stroke-width="1.5" stroke-miterlimit="10"/>
<path d="M33.5 52.5401V28.6001H47.54V52.9801" stroke="#183D68" stroke-width="1.5" stroke-miterlimit="10" stroke-linecap="round" stroke-linejoin="round"/>
<path d="M86.28 60.0701V28.6001H100.33V60.6401" stroke="#183D68" stroke-width="1.5" stroke-miterlimit="10" stroke-linecap="round" stroke-linejoin="round"/>
<path d="M60.73 55.4298V12.3198H74.77V60.6398" stroke="#183D68" stroke-width="1.5" stroke-miterlimit="10" stroke-linecap="round" stroke-linejoin="round"/>
</svg>
