<svg width="60" height="60" viewBox="0 0 60 60" fill="none" xmlns="http://www.w3.org/2000/svg">
<rect width="60" height="60" fill="white"/>
<path d="M18.3457 13.442H39.2016" stroke="#183D68" stroke-width="1.5" stroke-miterlimit="10"/>
<path d="M18.3457 19.4835H32.6349" stroke="#183D68" stroke-width="1.5" stroke-miterlimit="10"/>
<path d="M18.3457 25.5248H31.1639" stroke="#183D68" stroke-width="1.5" stroke-miterlimit="10"/>
<path d="M18.3457 31.4612H34.2634" stroke="#183D68" stroke-width="1.5" stroke-miterlimit="10"/>
<path d="M18.3457 37.5024H29.9557" stroke="#183D68" stroke-width="1.5" stroke-miterlimit="10"/>
<path d="M18.2929 53H49.8657C52.2297 53 54.0159 51.1088 54.0159 48.5872C54.0159 48.2194 54.0159 47.1162 54.0159 47.1162V46.5909H46.7662M46.6086 11.8135C46.6086 9.23934 44.5073 7.08546 41.9857 7.03293H11.0958C10.9382 7.03293 10.7806 7.03293 10.728 7.03293C8.15389 7.19053 6 9.29188 6 11.9711V13.3895M46.9238 46.5909L23.4412 46.801L21.9703 46.7485C21.9703 46.7485 22.1279 47.3789 22.2329 48.0618C22.2855 48.5346 22.2329 49.0074 22.2329 49.2701C22.1279 51.3714 20.3943 53 18.3454 53C16.2966 53 14.4579 51.2664 14.4579 49.165V10.8154C14.3529 8.0836 13.3022 6.77026 10.3603 7.03293" stroke="#183D68" stroke-width="1.5" stroke-miterlimit="10"/>
<path d="M46.6088 32.249C43.4042 32.249 40.8301 29.6749 40.8301 26.4703C40.8301 23.2657 43.4042 20.6916 46.6088 20.6916C49.8134 20.6916 52.3875 23.2657 52.3875 26.4703C52.3875 29.6749 49.7608 32.249 46.6088 32.249Z" stroke="#183D68" stroke-width="1.5" stroke-miterlimit="10"/>
<path d="M41.1973 32.722V42.1255C41.1973 42.2831 41.2498 42.3882 41.4074 42.4933C41.5125 42.5458 41.7226 42.5458 41.8277 42.4407L44.7696 40.3394C45.3474 39.9191 45.9778 39.7615 46.6608 39.7615C47.3437 39.7615 47.9741 39.9716 48.552 40.3394L51.4939 42.4407C51.599 42.4933 51.6515 42.5458 51.704 42.5458C51.7566 42.5458 51.8091 42.5458 51.9142 42.4933C52.0718 42.3882 52.0718 42.2831 52.0718 42.1781V32.722" stroke="#183D68" stroke-width="1.5" stroke-miterlimit="10"/>
<path d="M9.20508 47.6941V17.9074" stroke="#183D68" stroke-width="1.5" stroke-miterlimit="10"/>
<path d="M6 20.7443L9.20456 17.4872L12.4091 20.7443" stroke="#183D68" stroke-width="1.5" stroke-miterlimit="10"/>
<path d="M12.4091 44.4897L9.20456 47.6942L6 44.4897" stroke="#183D68" stroke-width="1.5" stroke-miterlimit="10"/>
</svg>
