<svg width="51" height="48" viewBox="0 0 51 48" fill="none" xmlns="http://www.w3.org/2000/svg">
<path d="M31.6351 14.6103V4.65155C31.6351 2.65979 30.0227 1 28.0784 1C28.0784 1 18.4041 1.04742 11.4804 1.04742C10.0103 1.04742 8.63505 1.04742 7.49691 1.04742C6.12165 1.04742 5.12577 1.04742 4.69897 1.04742C2.65979 1.04742 1 2.70722 1 4.65155V6.0268M23.4309 47H46.2887C48.0907 47 49.466 45.5773 49.466 43.5856C49.466 43.301 49.466 42.4474 49.466 42.4474V42.0206L42.8742 41.9732H26.3711L25.7072 42.0206L25.8969 43.7278C25.9918 43.8701 25.9918 44.2021 25.9918 44.3918C25.9918 45.767 24.8536 46.9526 23.4309 46.9526C22.0557 46.9526 20.8701 45.8144 20.8701 44.3918L20.7278 17.9299C20.7278 16.934 20.301 14.5629 17.266 14.6103H40.3134C41.6887 14.6103 42.8742 15.7485 42.8742 17.1711M30.4969 14.6103H18.499C18.499 14.6103 17.1711 14.6103 17.1237 14.6103C15.0845 14.6103 13.4722 16.2701 13.4722 18.2619V31.9196C13.4722 33.2948 12.334 34.4804 10.9113 34.4804C9.48866 34.4804 8.35051 33.3423 8.35051 31.9196V30.1175V5.83711C8.35051 4.84124 8.87217 1.09485 4.69897 1.09485M42.4948 29.6907L42.1629 30.0701L48.7546 36.0454C48.9918 36.2825 49.134 36.567 49.134 36.9464C49.134 37.3258 48.9918 37.6103 48.7546 37.8474C48.5175 38.0845 48.233 38.2268 47.901 38.2268C47.5216 38.2268 47.2371 38.0845 47 37.7526L41.3093 30.8289L40.8351 31.1134C39.4598 32.1093 37.8948 32.6309 36.1876 32.6309C32.2515 32.6309 28.7423 29.5959 28.3155 25.7072C28.0309 23.4309 28.7897 21.2495 30.3072 19.4948C31.967 17.6928 34.3381 16.6969 36.899 16.8392C40.8351 17.1237 43.9649 20.3959 44.1072 24.332C44.2021 26.3711 43.633 28.268 42.4948 29.6907Z" stroke="#183D68" stroke-width="1.5" stroke-miterlimit="10"/>
</svg>
