<svg width="60" height="60" viewBox="0 0 60 60" fill="none" xmlns="http://www.w3.org/2000/svg">
<rect width="60" height="60" fill="white"/>
<path d="M48.8379 40.0543C48.9819 39.7664 49.2218 39.3825 49.3658 39.0465" stroke="#183D68" stroke-width="1.5" stroke-miterlimit="10"/>
<path d="M50.1816 37.223C50.3256 36.8391 50.4216 36.5511 50.5656 36.1672" stroke="#183D68" stroke-width="1.5" stroke-miterlimit="10"/>
<path d="M47.3012 47.253C46.5813 47.9729 45.6694 48.3569 44.6616 48.3569C43.6538 48.3569 42.7899 47.9729 42.022 47.253C41.926 47.1571 41.8301 47.0611 41.8301 46.9651C41.2062 46.2452 40.9182 45.3334 41.0142 44.5175C41.0142 44.4215 41.0142 44.4215 41.0142 44.3255C41.1102 43.5097 41.4461 42.6938 42.022 42.0699C42.6459 41.446 43.5578 40.9661 44.5656 40.9661C44.6616 40.9661 44.6616 40.9661 44.7576 40.9661C45.5734 40.9661 46.3893 41.35 47.0132 41.8779C47.1092 41.9739 47.1092 41.9739 47.2052 42.0699C48.7889 43.5097 48.7889 45.8133 47.3012 47.253Z" stroke="#183D68" stroke-width="1.5" stroke-miterlimit="10"/>
<path d="M39.0469 49.4124C39.4308 49.2685 39.7188 49.1245 40.0547 48.8845" stroke="#183D68" stroke-width="1.5" stroke-miterlimit="10"/>
<path d="M36.168 50.4201C36.5519 50.3242 36.9358 50.1802 37.2238 50.0362" stroke="#183D68" stroke-width="1.5" stroke-miterlimit="10"/>
<path d="M29.9767 54.5C28.009 54.5 26.2812 52.8683 26.2812 50.8046C26.2812 50.7086 26.2812 50.6126 26.2812 50.5167C26.3772 49.7008 26.7132 48.9809 27.2891 48.357C27.4811 48.165 27.577 48.0691 27.721 47.9251C28.3449 47.4932 29.0648 47.2052 29.8807 47.2052H29.9767C30.7925 47.2052 31.5124 47.4932 32.0403 47.9251C32.2323 48.1171 32.4243 48.213 32.5682 48.357C33.0961 48.8849 33.4801 49.6048 33.5761 50.4207C33.5761 50.5167 33.5761 50.6126 33.5761 50.8046C33.6721 52.7723 31.9443 54.5 29.9767 54.5Z" stroke="#183D68" stroke-width="1.5" stroke-miterlimit="10"/>
<path d="M22.6816 50.1321C23.0656 50.2761 23.3535 50.3721 23.7375 50.5161" stroke="#183D68" stroke-width="1.5" stroke-miterlimit="10"/>
<path d="M19.8008 48.8367C20.0887 48.9806 20.4727 49.2206 20.8086 49.3646" stroke="#183D68" stroke-width="1.5" stroke-miterlimit="10"/>
<path d="M9.43555 36.1191C9.53153 36.503 9.67551 36.887 9.81948 37.1749" stroke="#183D68" stroke-width="1.5" stroke-miterlimit="10"/>
<path d="M10.5391 38.9984C10.683 39.3824 10.827 39.6703 11.067 40.0062" stroke="#183D68" stroke-width="1.5" stroke-miterlimit="10"/>
<path d="M5.5 29.9282C5.5 27.9606 7.08374 26.2808 9.14741 26.2808C9.24339 26.2808 9.33938 26.2808 9.48335 26.2808C11.3551 26.4728 12.7948 28.0565 12.7948 29.8322C12.7948 31.7039 11.3551 33.2877 9.48335 33.4797C9.38737 33.4797 9.29139 33.4797 9.1954 33.4797C7.08374 33.5756 5.5 31.8959 5.5 29.9282Z" stroke="#183D68" stroke-width="1.5" stroke-miterlimit="10"/>
<path d="M9.77066 22.6331C9.62668 23.0171 9.5307 23.305 9.38672 23.6889" stroke="#183D68" stroke-width="1.5" stroke-miterlimit="10"/>
<path d="M11.067 19.7541C10.923 20.042 10.683 20.426 10.5391 20.7619" stroke="#183D68" stroke-width="1.5" stroke-miterlimit="10"/>
<path d="M12.6035 12.5551C13.3234 11.8352 14.2352 11.4513 15.1951 11.4513C16.1549 11.4513 17.0668 11.8352 17.7866 12.5551L17.8826 12.6511L17.9786 12.8431C18.6025 13.563 18.8905 14.4748 18.7945 15.3867V15.4826C18.6985 16.2985 18.4105 17.2104 17.6907 17.8343C16.4429 19.0821 14.1872 19.274 12.7475 18.0262C12.6515 17.9302 12.6515 17.9302 12.5555 17.8343C11.1637 16.3465 11.1637 13.9949 12.6035 12.5551Z" stroke="#183D68" stroke-width="1.5" stroke-miterlimit="10"/>
<path d="M23.7375 9.38696C23.3535 9.48295 22.9696 9.62692 22.6816 9.7709" stroke="#183D68" stroke-width="1.5" stroke-miterlimit="10"/>
<path d="M20.9063 10.4915C20.5223 10.6355 20.2344 10.7795 19.8984 11.0194" stroke="#183D68" stroke-width="1.5" stroke-miterlimit="10"/>
<path d="M29.9767 5.5C31.8963 5.5 33.5761 7.08374 33.5761 9.09942C33.5761 9.1954 33.5761 9.38737 33.5761 9.43536C33.4801 10.2512 33.1441 11.0191 32.6162 11.547C32.4243 11.739 32.2803 11.835 32.0883 11.9789C31.4644 12.4109 30.7445 12.6988 29.9767 12.6988C29.9767 12.6988 29.9767 12.6988 29.8807 12.6988C29.0648 12.6988 28.2969 12.4109 27.673 11.883C27.4811 11.787 27.3851 11.595 27.2411 11.547C26.7132 11.0191 26.3772 10.2992 26.2812 9.53135V9.43536C26.2812 9.33938 26.2812 9.24339 26.2812 9.14741C26.3292 7.08374 28.009 5.5 29.9767 5.5Z" stroke="#183D68" stroke-width="1.5" stroke-miterlimit="10"/>
<path d="M37.2707 9.72305C36.8867 9.57907 36.5988 9.48309 36.2148 9.33911" stroke="#183D68" stroke-width="1.5" stroke-miterlimit="10"/>
<path d="M40.1016 11.0194C39.8136 10.8755 39.4297 10.6355 39.0938 10.4915" stroke="#183D68" stroke-width="1.5" stroke-miterlimit="10"/>
<path d="M50.4679 23.6889C50.3719 23.305 50.228 22.9211 50.084 22.6331" stroke="#183D68" stroke-width="1.5" stroke-miterlimit="10"/>
<path d="M49.4127 20.8576C49.2687 20.4737 49.1247 20.1857 48.8848 19.8498" stroke="#183D68" stroke-width="1.5" stroke-miterlimit="10"/>
<path d="M12.6033 47.3008C11.1635 45.861 11.1635 43.5094 12.6033 42.0696L12.6992 41.9736L12.7952 41.8776C13.4191 41.3497 14.235 41.0618 15.0509 41.0618C15.1469 41.0618 15.1469 41.0618 15.2428 41.0618C16.2507 41.0618 17.0665 41.4457 17.7864 42.1656C18.4103 42.7895 18.7943 43.6054 18.8902 44.5172V44.6132C18.8902 45.525 18.6023 46.4369 18.0744 47.1568C17.9784 47.2528 17.8824 47.3487 17.8824 47.4447C16.3946 48.6445 13.947 48.6445 12.6033 47.3008Z" stroke="#183D68" stroke-width="1.5" stroke-miterlimit="10"/>
<path d="M50.8528 33.6237C50.7568 33.6237 50.6608 33.6237 50.4688 33.6237C48.5971 33.4317 47.1094 31.8 47.1094 30.0243C47.1094 28.1526 48.5491 26.5209 50.4688 26.4249C50.5648 26.4249 50.6608 26.4249 50.7568 26.4249C52.7245 26.4249 54.4522 28.0566 54.4522 30.1203C54.5482 31.896 52.8684 33.6237 50.8528 33.6237Z" stroke="#183D68" stroke-width="1.5" stroke-miterlimit="10"/>
<path d="M47.3007 12.555C48.7404 13.9948 48.7404 16.3464 47.3007 17.6902L47.2047 17.7862L47.1087 17.8822C46.4848 18.4101 45.6689 18.6981 44.7571 18.6981C43.7492 18.6981 42.8374 18.3141 42.1175 17.5942C41.4936 16.9703 41.1097 16.0585 41.0137 15.1466C41.0137 14.2348 41.3016 13.3229 41.8295 12.603C41.9255 12.5071 41.9255 12.5071 42.0215 12.4111C42.7414 11.6912 43.6532 11.3073 44.6611 11.3073C45.7169 11.4992 46.5808 11.8352 47.3007 12.555Z" stroke="#183D68" stroke-width="1.5" stroke-miterlimit="10"/>
<path d="M29.9276 28.9202C32.2865 28.9202 34.1989 27.0079 34.1989 24.6489C34.1989 22.29 32.2865 20.3776 29.9276 20.3776C27.5686 20.3776 25.6562 22.29 25.6562 24.6489C25.6562 27.0079 27.5686 28.9202 29.9276 28.9202Z" stroke="#183D68" stroke-width="1.5" stroke-miterlimit="10"/>
<path d="M32.1361 37.5107H21.3379V35.3511C21.3379 31.7996 27.001 30.2159 29.9285 30.2159C32.856 30.2159 38.5191 31.7516 38.5191 35.3511V37.5587H37.2713" stroke="#183D68" stroke-width="1.5" stroke-miterlimit="10"/>
<path d="M34.9671 38.2789C35.3912 38.2789 35.735 37.9351 35.735 37.511C35.735 37.087 35.3912 36.7432 34.9671 36.7432C34.543 36.7432 34.1992 37.087 34.1992 37.511C34.1992 37.9351 34.543 38.2789 34.9671 38.2789Z" fill="#183D68"/>
</svg>
