<svg width="22" height="22" viewBox="0 0 22 22" fill="none" xmlns="http://www.w3.org/2000/svg">
<path d="M10.0718 12.9603L10.9211 12.1108L8.99776 11.0366L10.0718 12.9603Z" fill="#183D68"/>
<path d="M19.6293 0H14.5387C13.4212 0 11.9267 0.619019 11.1366 1.40924L0.6922 11.8535C0.245728 12.2998 0 12.895 0 13.5296C0 14.1642 0.245895 14.7594 0.6922 15.2057L6.7941 21.3078C7.2404 21.7541 7.83575 22 8.47021 22C9.10484 22 9.70003 21.7541 10.1465 21.3078L20.5908 10.8634C21.381 10.0733 22 8.57881 22 7.46129V2.37033C21.9998 1.06331 20.9364 0 19.6293 0ZM9.11021 16.5579C8.47072 17.1976 7.66035 17.3636 7.3772 17.0804C7.24057 16.9436 7.16235 16.6116 7.31375 16.4602C7.51382 16.2603 8.02156 16.5042 8.51956 16.0064C8.81245 15.7133 8.93448 15.3278 8.64159 15.0349C7.90927 14.3026 6.56683 16.0941 5.4097 14.9372C4.68242 14.2097 5.05823 13.3359 5.61967 12.7745C5.9077 12.4865 6.61551 11.9153 6.93777 12.2375C7.05006 12.3497 7.19659 12.6525 7.02086 12.8282C6.86946 12.9794 6.5717 12.9062 6.16148 13.3163C5.81018 13.6679 5.7516 14.0097 5.98592 14.2438C6.59117 14.8494 7.94838 13.0722 9.21277 14.3366C9.91084 15.0347 9.78395 15.8843 9.11021 16.5579ZM12.7323 12.848C12.6251 12.9554 12.5079 13.0041 12.3906 12.9359L11.5559 12.472L10.4379 13.59L10.9018 14.4247C10.9701 14.5419 10.9211 14.6592 10.8137 14.7665C10.643 14.9373 10.3061 15.0594 10.1499 14.9033C10.1401 14.8934 10.1254 14.869 10.1107 14.8447L7.98228 10.8318C7.87973 10.6413 7.99219 10.3922 8.17279 10.2118C8.35826 10.0263 8.60718 9.91386 8.79752 10.0164L12.8106 12.1449C12.8349 12.1597 12.8545 12.1694 12.869 12.184C13.0204 12.3352 12.9034 12.6771 12.7323 12.848ZM15.2952 10.285L13.7477 11.8327C13.606 11.9743 13.401 12.0427 13.2691 11.9107L10.096 8.73759C9.95918 8.6008 10.057 8.38596 10.218 8.22482C10.3743 8.06873 10.594 7.96617 10.7306 8.1028L13.5474 10.9198L14.7386 9.72856C14.8657 9.6015 15.0658 9.67485 15.2074 9.81651C15.344 9.95314 15.4221 10.1582 15.2952 10.285ZM17.8483 7.73203L16.1104 9.46991C15.9688 9.61157 15.7638 9.67989 15.6319 9.54796L12.4636 6.37968C12.3317 6.24792 12.4 6.04282 12.5417 5.90132L14.2796 4.16327C14.4164 4.02664 14.6213 4.10486 14.7532 4.23662C14.9044 4.38802 14.963 4.59296 14.8361 4.72002L13.4544 6.10139L14.431 7.07776L15.173 6.33588C15.2999 6.20898 15.4953 6.25783 15.627 6.38942C15.7393 6.50171 15.8076 6.69708 15.6708 6.83371L14.9288 7.57576L15.91 8.55699L17.2916 7.17545C17.4186 7.04855 17.6237 7.10713 17.775 7.25853C17.9069 7.39029 17.9849 7.5954 17.8483 7.73203ZM18.3938 4.55469C18.2738 4.67453 18.1076 4.74335 17.9379 4.74335C17.7681 4.74335 17.6022 4.67453 17.4824 4.55469C17.3621 4.43484 17.2934 4.26868 17.2934 4.09882C17.2934 3.92912 17.3621 3.76329 17.4824 3.64328C17.6022 3.52344 17.7681 3.45479 17.9379 3.45479C18.1076 3.45479 18.2738 3.52344 18.3938 3.64328C18.5137 3.76329 18.5825 3.92912 18.5825 4.09882C18.5825 4.26868 18.5137 4.43484 18.3938 4.55469Z" fill="#183D68"/>
</svg>
