<svg width="30" height="30" viewBox="0 0 30 30" fill="none" xmlns="http://www.w3.org/2000/svg">
<path d="M25.6066 4.39336C22.7735 1.56029 19.0066 0 15 0C10.9934 0 7.22654 1.56029 4.39336 4.39336C1.56029 7.22654 0 10.9934 0 15C0 19.0066 1.56029 22.7735 4.39336 25.6066C7.22654 28.4397 10.9934 30 15 30C19.0066 30 22.7735 28.4397 25.6066 25.6066C28.4397 22.7735 30 19.0066 30 15C30 10.9934 28.4397 7.22654 25.6066 4.39336ZM24.3636 24.3636C21.8625 26.8648 18.5371 28.2422 15 28.2422C11.4629 28.2422 8.1375 26.8648 5.63637 24.3636C3.13523 21.8625 1.75781 18.5371 1.75781 15C1.75781 11.4629 3.13523 8.1375 5.63637 5.63637C8.1375 3.13523 11.4629 1.75781 15 1.75781C18.5371 1.75781 21.8625 3.13523 24.3636 5.63637C26.8648 8.1375 28.2422 11.4629 28.2422 15C28.2422 18.5371 26.8648 21.8625 24.3636 24.3636Z" fill="#F58A0E"/>
<path d="M6.86731 8.24617L7.11094 7.96258C7.40497 7.62039 7.30905 7.13858 7.00108 6.87397C6.7053 6.61985 6.18973 6.60174 5.89782 6.94153L5.25516 7.68953L6.99071 9.18062L7.40016 8.70397L6.86731 8.24617ZM6.66803 7.63733L6.4517 7.8891L6.08016 7.56989L6.286 7.33036C6.33639 7.2717 6.44098 7.23403 6.58518 7.35795C6.72452 7.47766 6.71848 7.57867 6.66803 7.63733Z" fill="#F58A0E"/>
<path d="M9.18564 5.59481C8.83091 5.1318 8.13341 4.93141 7.61163 5.3312C7.10257 5.7212 7.06741 6.43833 7.43585 6.9192C7.7945 7.38725 8.49324 7.57856 9.01244 7.18077C9.52402 6.78883 9.55015 6.07053 9.18564 5.59481ZM8.67851 6.73434C8.43042 6.92442 8.13241 6.77928 7.94626 6.53624C7.76398 6.29829 7.69232 5.97163 7.94298 5.77961C8.18855 5.59147 8.48322 5.72706 8.67136 5.97256C8.85359 6.21051 8.93175 6.54028 8.67851 6.73434Z" fill="#F58A0E"/>
<path d="M11.2547 5.07476C11.0692 4.68839 10.7639 4.67058 10.3262 4.73415C10.0518 4.773 9.89533 4.81947 9.84377 4.712C9.80891 4.63941 9.86176 4.57823 9.96055 4.53083C10.2075 4.4123 10.5973 4.45741 10.5973 4.45741L10.6167 3.87259C10.3862 3.8689 10.0358 3.87628 9.73666 4.01995C9.33002 4.21519 9.08264 4.63068 9.3016 5.08671C9.44668 5.38876 9.68035 5.46599 10.1021 5.41366C10.3894 5.37933 10.614 5.30368 10.6712 5.42275C10.6977 5.47794 10.6709 5.53378 10.5488 5.59232C10.2322 5.74437 9.77774 5.68378 9.77774 5.68378L9.77223 6.29767C10.0889 6.32439 10.4864 6.2515 10.7856 6.10782C11.169 5.92372 11.4932 5.57152 11.2547 5.07476Z" fill="#F58A0E"/>
<path d="M13.0139 3.52082L12.876 2.99066L10.9925 3.48045L11.1303 4.0106L11.7696 3.84437L12.2075 5.52842L12.8156 5.37027L12.3777 3.68629L13.0139 3.52082Z" fill="#F58A0E"/>
<path d="M15.1846 2.8332C14.5434 2.82283 14.0706 3.36318 14.0609 3.96898C14.0514 4.55867 14.4803 5.1425 15.1345 5.15299C15.7789 5.16336 16.2454 4.6165 16.255 4.01715C16.2644 3.43391 15.842 2.84375 15.1846 2.8332ZM15.1498 4.5957C14.8373 4.59066 14.6939 4.29178 14.6988 3.98574C14.7036 3.68604 14.8502 3.38539 15.1661 3.39049C15.4754 3.39547 15.6222 3.68469 15.6172 3.994C15.6124 4.29365 15.4689 4.60074 15.1498 4.5957Z" fill="#F58A0E"/>
<path d="M18.3026 3.83631L18.4182 3.30082L16.8842 2.96994L16.4018 5.20629L17.016 5.33877L17.1954 4.50727L17.945 4.66899L18.0524 4.17123L17.3027 4.00957L17.3829 3.63791L18.3026 3.83631Z" fill="#F58A0E"/>
<path d="M20.1753 4.57146L20.3819 4.06386L18.928 3.47218L18.0653 5.59175L18.6475 5.8287L18.9683 5.04056L19.6788 5.32972L19.8707 4.85804L19.1602 4.56888L19.3036 4.21661L20.1753 4.57146Z" fill="#F58A0E"/>
<path d="M20.787 4.30359L19.6448 6.28622L20.1892 6.5999L21.3314 4.61727L20.787 4.30359Z" fill="#F58A0E"/>
<path d="M22.6709 5.55365C22.1266 5.11976 21.445 5.31845 21.0976 5.75445C20.7322 6.21318 20.7109 6.95855 21.21 7.35617C21.4948 7.5831 21.9455 7.6949 22.2571 7.51062L22.0472 6.95187C21.8682 7.07304 21.6809 7.01855 21.5675 6.9282C21.3406 6.74749 21.3857 6.41673 21.5846 6.16724C21.7633 5.94294 22.0665 5.7848 22.3134 5.98156C22.4244 6.06997 22.5349 6.23632 22.4542 6.4564L23.0426 6.48845C23.116 6.16372 22.9884 5.80665 22.6709 5.55365Z" fill="#F58A0E"/>
<path d="M24.3814 8.11249L24.7985 7.75718L23.7596 6.53784L22.0177 8.02196L23.0754 9.2634L23.4924 8.90802L22.8424 8.14507L23.1171 7.91093L23.6564 8.54386L24.0441 8.21362L23.5047 7.58063L23.7501 7.37163L24.3814 8.11249Z" fill="#F58A0E"/>
<path d="M23.0092 20.8194L22.5997 21.2961L23.1326 21.7539L22.889 22.0375C22.5949 22.3797 22.6908 22.8615 22.9988 23.1261C23.2947 23.3802 23.8102 23.3983 24.1021 23.0585L24.7447 22.3105L23.0092 20.8194ZM23.7138 22.6697C23.6634 22.7284 23.5588 22.766 23.4147 22.6421C23.2753 22.5224 23.2814 22.4214 23.3318 22.3627L23.5481 22.111L23.9196 22.4302L23.7138 22.6697Z" fill="#F58A0E"/>
<path d="M22.5643 23.0807C22.2056 22.6127 21.5069 22.4213 20.9877 22.8191C20.4762 23.2111 20.45 23.9294 20.8145 24.4052C21.1693 24.8681 21.8667 25.0685 22.3885 24.6687C22.8975 24.2787 22.9328 23.5616 22.5643 23.0807ZM22.0572 24.2203C21.8116 24.4084 21.5169 24.2729 21.3288 24.0273C21.1466 23.7894 21.0684 23.4596 21.3217 23.2656C21.5697 23.0755 21.8677 23.2206 22.0538 23.4637C22.2361 23.7016 22.3078 24.0283 22.0572 24.2203Z" fill="#F58A0E"/>
<path d="M20.6985 24.9136C20.5533 24.6115 20.3197 24.5343 19.898 24.5866C19.6106 24.6209 19.386 24.6966 19.3289 24.5775C19.3023 24.5223 19.3292 24.4665 19.4512 24.4079C19.7678 24.2559 20.2223 24.3165 20.2223 24.3165L20.2278 23.7026C19.9112 23.6759 19.5137 23.7488 19.2144 23.8924C18.831 24.0765 18.5068 24.4288 18.7453 24.9255C18.9308 25.3119 19.2361 25.3297 19.6738 25.2661C19.9483 25.2273 20.1047 25.1808 20.1562 25.2883C20.1912 25.3609 20.1383 25.422 20.0395 25.4694C19.7926 25.588 19.4028 25.5429 19.4028 25.5429L19.3833 26.1277C19.6139 26.1314 19.9642 26.124 20.2634 25.9803C20.6701 25.7851 20.9174 25.3696 20.6985 24.9136Z" fill="#F58A0E"/>
<path d="M18.8698 25.9899L18.2303 26.1561L17.7924 24.4717L17.1841 24.6298L17.622 26.3143L16.9857 26.4797L17.1235 27.0101L19.0076 26.5202L18.8698 25.9899Z" fill="#F58A0E"/>
<path d="M14.8657 24.847C14.2213 24.8366 13.7548 25.3835 13.7452 25.9829C13.7358 26.5661 14.1582 27.1563 14.8156 27.1668C15.4568 27.1772 15.9296 26.6368 15.9394 26.031C15.9488 25.4413 15.5199 24.8575 14.8657 24.847ZM14.8341 26.6095C14.5248 26.6045 14.378 26.3153 14.383 26.006C14.3878 25.7064 14.5313 25.3993 14.8504 25.4043C15.1629 25.4093 15.3064 25.7082 15.3014 26.0143C15.2966 26.314 15.15 26.6146 14.8341 26.6095Z" fill="#F58A0E"/>
<path d="M12.9841 24.6611L12.8047 25.4927L12.0551 25.3309L11.9477 25.8287L12.6974 25.9903L12.6171 26.362L11.6975 26.1636L11.5819 26.6991L13.1159 27.03L13.5983 24.7937L12.9841 24.6611Z" fill="#F58A0E"/>
<path d="M11.3526 24.1712L11.0318 24.9594L10.3213 24.6702L10.1294 25.1419L10.8399 25.4311L10.6965 25.7833L9.8248 25.4285L9.6182 25.9361L11.0721 26.5278L11.9348 24.4082L11.3526 24.1712Z" fill="#F58A0E"/>
<path d="M9.81049 23.4003L8.66827 25.383L9.21274 25.6966L10.355 23.714L9.81049 23.4003Z" fill="#F58A0E"/>
<path d="M8.79028 22.6439C8.50545 22.4169 8.05481 22.3051 7.74315 22.4894L7.95309 23.0481C8.13203 22.927 8.31936 22.9815 8.4328 23.0718C8.65967 23.2525 8.61456 23.5833 8.41569 23.8328C8.23698 24.0571 7.93381 24.2152 7.68684 24.0185C7.57592 23.93 7.46541 23.7637 7.54604 23.5436L6.95764 23.5116C6.88428 23.8363 7.01184 24.1934 7.32941 24.4464C7.87369 24.8802 8.55526 24.6816 8.90266 24.2456C9.26811 23.7868 9.28932 23.0415 8.79028 22.6439Z" fill="#F58A0E"/>
<path d="M6.9247 20.7366L6.50763 21.0919L7.15767 21.8549L6.88292 22.089L6.34362 21.4561L5.95597 21.7863L6.49532 22.4193L6.24993 22.6283L5.6187 21.8875L5.20157 22.2428L6.2405 23.4621L7.98237 21.978L6.9247 20.7366Z" fill="#F58A0E"/>
<path d="M6.96766 15.6104C6.96766 15.4665 7.1851 15.3596 7.37577 15.2491C7.67348 15.0751 7.84745 14.9079 7.84745 14.5399C7.84745 14.0515 7.53631 13.7772 6.99438 13.7772C6.5595 13.7772 6.0311 13.9545 5.85379 14.1552L6.41231 14.5801C6.5394 14.4563 6.73012 14.3393 6.90409 14.3393C7.01782 14.3393 7.12153 14.3894 7.12153 14.55C7.12159 14.7941 6.88071 14.9112 6.60303 15.0417C6.09456 15.2826 5.85385 15.5635 5.85385 16.1791H7.85079V15.6104H6.96766Z" fill="#F58A0E"/>
<path d="M9.35248 15.6103V13.7871H8.7035C8.69682 13.8005 8.39236 14.1049 8.15154 14.1049V14.687C8.33219 14.687 8.6299 14.5031 8.7035 14.3993V15.6103H8.22848V16.179H9.77734V15.6103H9.35248Z" fill="#F58A0E"/>
<path d="M10.645 15.5636H10.1298V16.1792H10.645V15.5636Z" fill="#F58A0E"/>
<path d="M12.2652 15.6103V13.7871H11.6162C11.6095 13.8005 11.3051 14.1049 11.0643 14.1049V14.687C11.2449 14.687 11.5426 14.5031 11.6162 14.3993V15.6103H11.1412V16.179H12.6901V15.6103H12.2652Z" fill="#F58A0E"/>
<path d="M13.8374 15.6104C13.8374 15.4665 14.0548 15.3596 14.2455 15.2491C14.5432 15.0751 14.7172 14.9079 14.7172 14.5399C14.7172 14.0515 14.406 13.7772 13.8641 13.7772C13.4292 13.7772 13.0679 13.9545 12.8906 14.1552L13.282 14.5801C13.4091 14.4563 13.5998 14.3393 13.7738 14.3393C13.8875 14.3393 13.9913 14.3894 13.9913 14.55C13.9912 14.7941 13.7504 14.9112 13.4727 15.0417C12.9642 15.2826 12.8906 15.5635 12.8906 16.1791H14.7205V15.6104H13.8374Z" fill="#F58A0E"/>
<path d="M15.6194 15.5636H15.1043V16.1792H15.6194V15.5636Z" fill="#F58A0E"/>
<path d="M17.0274 15.6104C17.0274 15.4665 17.2447 15.3596 17.4355 15.2491C17.7332 15.0751 17.9072 14.9079 17.9072 14.5399C17.9072 14.0515 17.596 13.7772 17.0541 13.7772C16.6192 13.7772 16.2579 13.9545 16.0806 14.1552L16.472 14.5801C16.5991 14.4563 16.7898 14.3393 16.9638 14.3393C17.0775 14.3393 17.1812 14.3894 17.1812 14.55C17.1812 14.7941 16.9404 14.9112 16.6627 15.0417C16.1542 15.2826 16.0806 15.5635 16.0806 16.1791H17.9105V15.6104H17.0274Z" fill="#F58A0E"/>
<path d="M19.2654 13.8039C18.5997 13.8039 18.1882 14.4361 18.1882 15.0082C18.1882 15.5434 18.5561 16.2125 19.2654 16.2125C19.9311 16.2125 20.3425 15.5869 20.3425 15.0082C20.3425 14.4897 19.9746 13.8039 19.2654 13.8039ZM19.2654 15.6338C18.9676 15.6338 18.8506 15.2993 18.8506 15.0082C18.8506 14.7439 18.9576 14.3826 19.2654 14.3826C19.5564 14.3826 19.6802 14.7171 19.6802 15.0082C19.6802 15.2725 19.5731 15.6338 19.2654 15.6338Z" fill="#F58A0E"/>
<path d="M21.801 15.6103V13.7871H21.152C21.1453 13.8005 20.8408 14.1049 20.6 14.1049V14.687C20.7807 14.687 21.0784 14.5031 21.152 14.3993V15.6103H20.677V16.179H22.2258V15.6103H21.801Z" fill="#F58A0E"/>
<path d="M23.3766 14.5967C23.2194 14.5967 23.1023 14.6335 23.0153 14.7105C23.0253 14.4729 23.1592 14.3325 23.3766 14.3325C23.5271 14.3325 23.6744 14.396 23.7914 14.5131L24.1427 14.105C23.932 13.8943 23.6744 13.7839 23.3867 13.7839C22.7913 13.7839 22.43 14.2589 22.43 15.0416C22.43 15.7809 22.7544 16.2125 23.3231 16.2125C23.8316 16.2125 24.213 15.8445 24.213 15.3762C24.213 14.9312 23.855 14.5967 23.3766 14.5967ZM23.3231 15.6806C23.1726 15.6806 23.0388 15.5401 23.0388 15.3761C23.0388 15.2189 23.1658 15.0951 23.3231 15.0951C23.4804 15.0951 23.6075 15.2189 23.6075 15.3761C23.6075 15.5401 23.4736 15.6806 23.3231 15.6806Z" fill="#F58A0E"/>
<path d="M15 6.12142C11.6904 6.12142 8.67713 7.94321 7.13629 10.8758L8.69237 11.6934C9.92858 9.34079 12.3455 7.87922 15 7.87922C17.6546 7.87922 20.0716 9.34073 21.3077 11.6934L22.8638 10.8757C21.3229 7.94321 18.3097 6.12142 15 6.12142Z" fill="#F58A0E"/>
<path d="M21.3077 18.3065C20.0715 20.6592 17.6545 22.1207 15 22.1207C12.3455 22.1207 9.92852 20.6592 8.69237 18.3065L7.13629 19.1242C8.67713 22.0568 11.6904 23.8785 15 23.8785C18.3097 23.8785 21.3229 22.0567 22.8638 19.1242L21.3077 18.3065Z" fill="#F58A0E"/>
</svg>
