<svg width="20" height="20" viewBox="0 0 20 20" fill="none" xmlns="http://www.w3.org/2000/svg">
<path d="M18.3617 17.3551L14.2404 13.2338C15.2619 11.9883 15.8777 10.393 15.8777 8.65418C15.8777 4.66584 12.6415 1.42969 8.6532 1.42969C4.66136 1.42969 1.42871 4.66584 1.42871 8.65418C1.42871 12.6425 4.66136 15.8787 8.6532 15.8787C10.392 15.8787 11.9838 15.2664 13.2293 14.2448L17.3506 18.3626C17.6305 18.6425 18.0818 18.6425 18.3617 18.3626C18.6415 18.0862 18.6415 17.6314 18.3617 17.3551ZM8.6532 14.4408C5.45903 14.4408 2.86311 11.8448 2.86311 8.65418C2.86311 5.46351 5.45903 2.86409 8.6532 2.86409C11.8439 2.86409 14.4433 5.46351 14.4433 8.65418C14.4433 11.8448 11.8439 14.4408 8.6532 14.4408Z" fill="#0070CD" stroke="#0070CD" stroke-width="0.5"/>
</svg>
