<svg width="30" height="30" viewBox="0 0 30 30" fill="none" xmlns="http://www.w3.org/2000/svg">
<g clip-path="url(#clip0)">
<path d="M26.796 12.9411H25.4419V0.882353C25.4419 0.395059 25.0468 0 24.5595 0H1.20657C0.719278 0 0.324219 0.395059 0.324219 0.882353V23.4841C0.324219 25.0879 1.62875 26.407 3.23222 26.4246C3.23545 26.4246 3.23869 26.4246 3.24193 26.4246H8.39545V29.1176C8.39545 29.6049 8.79051 30 9.27781 30H28.7948C29.2821 30 29.6772 29.6049 29.6772 29.1176V15.8229C29.6772 14.2339 28.3847 12.9411 26.796 12.9411ZM2.08892 1.76471H23.6772V12.9411H7.27893C7.27851 12.9411 7.27816 12.9412 7.27781 12.9412H7.27369C5.72451 12.9412 4.46004 14.153 4.39504 15.6999C4.39451 15.7123 4.39428 15.7246 4.39428 15.737V23.4841C4.39428 24.122 3.87604 24.6485 3.23916 24.6595C2.60387 24.6458 2.08898 24.1213 2.08898 23.4841V1.76471H2.08892ZM5.91169 24.66C6.06822 24.3045 6.15893 23.8984 6.15893 23.4842V15.7582C6.19193 15.1684 6.67734 14.7059 7.27893 14.7059C7.89457 14.7059 8.3954 15.207 8.3954 15.8229V24.66H5.91169ZM27.9125 28.2353H10.1601C10.1601 27.9065 10.1601 16.1438 10.1601 15.8229C10.1601 15.4346 10.0799 15.0495 9.93487 14.7059C10.4892 14.7059 26.2601 14.7058 26.796 14.7058C27.4116 14.7058 27.9125 15.2069 27.9125 15.8229V28.2353Z" fill="#F58A0E"/>
<path d="M4.88863 6.00494H5.78757V9.45188C5.78757 9.93918 6.18263 10.3342 6.66993 10.3342C7.15722 10.3342 7.55228 9.93918 7.55228 9.45188V6.00494H8.45122C8.93851 6.00494 9.33357 5.60988 9.33357 5.12259C9.33357 4.63529 8.93851 4.24024 8.45122 4.24024H4.88863C4.40134 4.24024 4.00628 4.63529 4.00628 5.12259C4.00628 5.60988 4.40134 6.00494 4.88863 6.00494Z" fill="#F58A0E"/>
<path d="M10.8464 10.3342C11.3337 10.3342 11.7287 9.93918 11.7287 9.45188V8.94118H13.5266V9.45188C13.5266 9.93918 13.9217 10.3342 14.409 10.3342C14.8963 10.3342 15.2913 9.93918 15.2913 9.45188V6.90394C15.2913 5.43518 14.0965 4.24029 12.6277 4.24029C11.1589 4.24029 9.96404 5.43518 9.96404 6.90394V9.45188C9.96404 9.93918 10.3591 10.3342 10.8464 10.3342ZM12.6277 6.00494C13.1233 6.00494 13.5266 6.40818 13.5266 6.90388V7.17647H11.7287V6.90388C11.7287 6.40818 12.132 6.00494 12.6277 6.00494Z" fill="#F58A0E"/>
<path d="M16.7542 10.1332C17.1303 10.4428 17.6865 10.3889 17.9962 10.0125L19.0962 8.67582L20.1961 10.0125C20.5059 10.3889 21.0619 10.4427 21.4381 10.1332C21.8144 9.82353 21.8684 9.26747 21.5588 8.89124L20.2388 7.28724L21.5588 5.68324C21.8684 5.307 21.8144 4.75088 21.4381 4.44129C21.0619 4.13153 20.5057 4.18553 20.1961 4.56194L19.0962 5.89865L17.9962 4.56194C17.6865 4.18571 17.1305 4.13171 16.7542 4.44129C16.3779 4.75088 16.3239 5.307 16.6336 5.68324L17.9535 7.28724L16.6336 8.89124C16.3239 9.26747 16.3779 9.82353 16.7542 10.1332Z" fill="#F58A0E"/>
<path d="M19.0693 18.5294H12.9913C12.504 18.5294 12.109 18.9245 12.109 19.4118C12.109 19.8991 12.504 20.2941 12.9913 20.2941H19.0693C19.5566 20.2941 19.9517 19.8991 19.9517 19.4118C19.9517 18.9245 19.5566 18.5294 19.0693 18.5294Z" fill="#F58A0E"/>
<path d="M19.0693 22.7647H12.9913C12.504 22.7647 12.109 23.1598 12.109 23.6471C12.109 24.1344 12.504 24.5294 12.9913 24.5294H19.0693C19.5566 24.5294 19.9517 24.1344 19.9517 23.6471C19.9517 23.1598 19.5566 22.7647 19.0693 22.7647Z" fill="#F58A0E"/>
<path d="M25.6772 18.5294H22.6968C22.2095 18.5294 21.8144 18.9245 21.8144 19.4118C21.8144 19.8991 22.2095 20.2941 22.6968 20.2941H25.6772C26.1645 20.2941 26.5595 19.8991 26.5595 19.4118C26.5595 18.9245 26.1645 18.5294 25.6772 18.5294Z" fill="#F58A0E"/>
<path d="M25.6772 22.7647H22.6968C22.2095 22.7647 21.8144 23.1598 21.8144 23.6471C21.8144 24.1344 22.2095 24.5294 22.6968 24.5294H25.6772C26.1645 24.5294 26.5595 24.1344 26.5595 23.6471C26.5595 23.1598 26.1645 22.7647 25.6772 22.7647Z" fill="#F58A0E"/>
</g>
<defs>
<clipPath id="clip0">
<rect width="30" height="30" fill="white"/>
</clipPath>
</defs>
</svg>
