<svg width="61" height="60" viewBox="0 0 61 60" fill="none" xmlns="http://www.w3.org/2000/svg">
<g clip-path="url(#clip0)">
<path d="M58.1506 30.4706C56.8563 30.4706 55.8071 29.4214 55.8071 28.1271C55.8071 15.2052 45.2943 4.69234 32.3723 4.69234C31.078 4.69234 30.0288 3.64317 30.0288 2.34886C30.0288 1.05456 31.078 0.00538337 32.3723 0.00538337C47.4882 -0.306885 60.8066 13.0113 60.4938 28.1274C60.4941 29.4214 59.4449 30.4706 58.1506 30.4706ZM41.7462 28.1271C41.7462 22.9584 37.5411 18.7532 32.3723 18.7532C31.078 18.7532 30.0288 19.8024 30.0288 21.0967C30.0288 22.391 31.078 23.4402 32.3723 23.4402C34.9567 23.4402 37.0593 25.5428 37.0593 28.1271C37.0593 29.4214 38.1085 30.4706 39.4028 30.4706C40.6971 30.4706 41.7462 29.4214 41.7462 28.1271ZM51.1202 28.1271C51.1202 17.7896 42.71 9.3793 32.3723 9.3793C31.078 9.3793 30.0288 10.4285 30.0288 11.7228C30.0288 13.0171 31.078 14.0663 32.3723 14.0663C40.1255 14.0663 46.4332 20.374 46.4332 28.1271C46.4332 29.4214 47.4824 30.4706 48.7767 30.4706C50.071 30.4706 51.1202 29.4214 51.1202 28.1271ZM41.7973 59.9991C42.4007 59.9856 42.9756 59.74 43.4024 59.3132L51.8389 50.8767C52.754 49.9615 52.754 48.4777 51.8389 47.5626L39.0964 34.8199C38.1811 33.9046 36.6972 33.9046 35.7821 34.8199L32.6039 37.9981C29.4247 36.4698 23.9717 30.9967 22.493 27.8234L25.6394 24.6772C26.5471 23.8045 26.5471 22.2356 25.6394 21.363L12.82 8.5435C11.9047 7.62826 10.4209 7.62826 9.50582 8.5435L1.18646 16.8629C0.756668 17.2926 0.510603 17.8727 0.500409 18.4804C0.464085 35.6571 23.7583 59.7852 41.6935 60C41.7433 60 41.7784 59.9994 41.7973 59.9991ZM11.1629 13.5148L20.6682 23.0201L18.0594 25.6289C17.4684 26.2199 17.2368 27.0811 17.4519 27.8889C18.6823 32.8373 27.6738 41.8167 32.5256 43.0468C33.334 43.2639 34.1978 43.0328 34.7901 42.4405L37.4392 39.7913L46.8676 49.2198L40.8214 55.2658C27.8244 54.5044 6.92225 36.4362 5.24174 19.4359L11.1629 13.5148Z" fill="#F58A0E"/>
</g>
<defs>
<clipPath id="clip0">
<rect width="60" height="60" fill="white" transform="translate(0.5)"/>
</clipPath>
</defs>
</svg>
