<svg width="30" height="30" viewBox="0 0 30 30" fill="none" xmlns="http://www.w3.org/2000/svg">
<path d="M14.8722 15.6434C14.9087 15.6434 14.9452 15.6434 14.989 15.6434C15.0036 15.6434 15.0182 15.6434 15.0328 15.6434C15.0547 15.6434 15.084 15.6434 15.1059 15.6434C17.2458 15.6133 18.9768 14.9941 20.2549 13.8097C23.0668 11.2005 22.5994 6.7275 22.5483 6.30064C22.3657 3.09621 20.5252 1.56314 19.006 0.847701C17.8739 0.312627 16.552 0.0240483 15.0767 0H15.0255C15.0182 0 15.0036 0 14.9963 0H14.9525C14.1418 0 12.5496 0.108217 11.0231 0.823653C9.48939 1.53909 7.61966 3.07217 7.43707 6.30064C7.38595 6.7275 6.91852 11.2005 9.73041 13.8097C11.0012 14.9941 12.7322 15.6133 14.8722 15.6434ZM9.38714 6.45095C9.38714 6.43291 9.39444 6.41487 9.39444 6.40285C9.63546 2.0922 13.353 1.62927 14.9452 1.62927H14.9744C14.989 1.62927 15.0109 1.62927 15.0328 1.62927C17.0048 1.66534 20.3572 2.32667 20.5836 6.40285C20.5836 6.42088 20.5836 6.43892 20.5909 6.45095C20.5982 6.49303 21.1094 10.5812 18.7869 12.7336C17.8666 13.5873 16.6396 14.0081 15.0255 14.0201C15.0109 14.0201 15.0036 14.0201 14.989 14.0201C14.9744 14.0201 14.9671 14.0201 14.9525 14.0201C13.3457 14.0081 12.1114 13.5873 11.1984 12.7336C8.88319 10.5933 9.37984 6.48702 9.38714 6.45095Z" fill="#F58A0E"/>
<path d="M29.998 23.0623C29.998 23.0563 29.998 23.0503 29.998 23.0443C29.998 22.9962 29.9907 22.9481 29.9907 22.894C29.9468 21.7036 29.8519 18.92 26.6821 18.0302C26.6602 18.0242 26.631 18.0182 26.6091 18.0122C23.3151 17.3208 20.5763 15.7576 20.5471 15.7396C20.1015 15.4811 19.488 15.5713 19.174 15.938C18.8599 16.3047 18.9695 16.8097 19.415 17.0683C19.5392 17.1404 22.446 18.8058 26.0832 19.5753C27.785 20.0743 27.9749 21.5713 28.026 22.9421C28.026 22.9962 28.026 23.0443 28.0333 23.0924C28.0406 23.6334 27.9968 24.4691 27.8799 24.9501C26.6967 25.5032 22.0589 27.415 15.0036 27.415C7.97754 27.415 3.31053 25.4972 2.12004 24.9441C2.00318 24.4631 1.95205 23.6274 1.96666 23.0863C1.96666 23.0382 1.97397 22.9901 1.97397 22.936C2.02509 21.5653 2.21498 20.0683 3.91673 19.5693C7.55393 18.7997 10.4608 17.1284 10.5849 17.0623C11.0305 16.8037 11.14 16.2987 10.826 15.932C10.5119 15.5652 9.89839 15.4751 9.45287 15.7336C9.42366 15.7516 6.69941 17.3148 3.39087 18.0061C3.36165 18.0122 3.33974 18.0182 3.31783 18.0242C0.14806 18.92 0.0531133 21.7036 0.00929157 22.8879C0.00929157 22.9421 0.00929141 22.9901 0.00198779 23.0382C0.00198779 23.0443 0.00198779 23.0503 0.00198779 23.0563C-0.00531583 23.3689 -0.0126193 24.9741 0.374473 25.7797C0.447509 25.9361 0.578974 26.0683 0.754261 26.1585C0.97337 26.2787 6.22467 29.0323 15.0109 29.0323C23.7972 29.0323 29.0485 26.2727 29.2676 26.1585C29.4356 26.0683 29.5743 25.9361 29.6474 25.7797C30.0126 24.9801 30.0053 23.3749 29.998 23.0623Z" fill="#F58A0E"/>
</svg>
