<svg width="24" height="24" viewBox="0 0 24 24" fill="none" xmlns="http://www.w3.org/2000/svg">
<g clip-path="url(#clip0_10756_9497)">
<path d="M19.7073 23.5916C14.5854 24.1381 9.42002 24.1381 4.29818 23.5916C3.30357 23.4866 2.37501 23.0438 1.66731 22.3371C0.959605 21.6304 0.515522 20.7025 0.409094 19.708C-0.137341 14.5862 -0.137341 9.42075 0.409094 4.29892C0.514126 3.3043 0.956907 2.37575 1.66362 1.66804C2.37033 0.960338 3.29827 0.516254 4.29273 0.409826C9.41456 -0.136609 14.58 -0.136609 19.7018 0.409826C20.6964 0.514858 21.625 0.957639 22.3327 1.66435C23.0404 2.37106 23.4845 3.299 23.5909 4.29346C24.1373 9.41529 24.1373 14.5807 23.5909 19.7026C23.4859 20.6972 23.0431 21.6257 22.3364 22.3334C21.6297 23.0411 20.7017 23.4852 19.7073 23.5916Z" fill="white" fill-opacity="0.3"/>
<path d="M18.9164 16.2867C18.5673 16.3358 16.86 16.2867 16.7713 16.2867C16.33 16.2924 15.9042 16.1238 15.5864 15.8176C15.2264 15.4713 14.9045 15.0894 14.5527 14.7267C14.4487 14.6166 14.336 14.5149 14.2159 14.4226C13.935 14.2058 13.6568 14.2549 13.5245 14.5863C13.4212 14.9443 13.3491 15.3107 13.3091 15.6813C13.2859 16.0167 13.0732 16.2267 12.6968 16.2499C12.4636 16.2622 12.2304 16.2663 12 16.2608C11.1601 16.2554 10.3335 16.0512 9.58771 15.6649C8.78081 15.2153 8.07779 14.6005 7.52453 13.8608C6.61499 12.699 5.88817 11.4226 5.23908 10.1067C5.20499 10.0413 4.53953 8.62581 4.52317 8.55899C4.46317 8.33536 4.52317 8.12126 4.70726 8.04763C4.82453 8.00263 7.01726 8.04763 7.05408 8.04763C7.21709 8.04621 7.37632 8.09673 7.50871 8.19185C7.6411 8.28698 7.73978 8.42177 7.79044 8.57672C8.19579 9.61461 8.75075 10.5876 9.43771 11.4649C9.53386 11.5822 9.64637 11.6851 9.77181 11.7704C9.95044 11.8917 10.1195 11.8494 10.1932 11.6435C10.2804 11.3578 10.3317 11.0624 10.3459 10.764C10.3582 10.1722 10.3459 9.78217 10.3132 9.19172C10.2914 8.81263 10.1577 8.4799 9.59862 8.37354C9.42681 8.34354 9.41181 8.20172 9.52226 8.0599C9.75271 7.76536 10.0677 7.71899 10.4209 7.70126C10.9473 7.67126 11.4736 7.69172 12 7.70126H12.1145C12.3436 7.70043 12.5722 7.72374 12.7963 7.77081C12.9289 7.79761 13.0492 7.86652 13.1394 7.96727C13.2296 8.06802 13.2848 8.19522 13.2968 8.3299C13.3237 8.47923 13.3352 8.63095 13.3309 8.78263C13.3173 9.42899 13.2859 10.074 13.2791 10.7204C13.2728 10.9763 13.2961 11.2321 13.3486 11.4826C13.4236 11.8263 13.6595 11.9122 13.8941 11.664C14.1978 11.3432 14.4763 10.9994 14.7273 10.6358C15.171 9.97314 15.537 9.26165 15.8182 8.51536C15.9709 8.13217 16.0909 8.04763 16.5 8.04763H18.8263C18.9647 8.0452 19.1026 8.06359 19.2354 8.10217C19.2825 8.11453 19.3264 8.13647 19.3646 8.1666C19.4027 8.19674 19.4343 8.23443 19.4572 8.27731C19.4801 8.3202 19.4939 8.36735 19.4978 8.41582C19.5016 8.46429 19.4954 8.51303 19.4795 8.55899C19.365 9.06899 19.0895 9.50399 18.7977 9.92263C18.3245 10.5935 17.8254 11.2467 17.3413 11.9067C17.2801 11.9943 17.2241 12.0853 17.1736 12.1794C16.9909 12.5081 17.0045 12.6922 17.2691 12.9663C17.6918 13.3999 18.1432 13.8076 18.5509 14.2549C18.8503 14.5801 19.1204 14.931 19.3582 15.3035C19.6568 15.7658 19.4727 16.2076 18.9164 16.2867Z" fill="white"/>
</g>
<defs>
<clipPath id="clip0_10756_9497">
<rect width="24" height="24" fill="white"/>
</clipPath>
</defs>
</svg>
