<svg width="26" height="26" viewBox="0 0 26 26" fill="none" xmlns="http://www.w3.org/2000/svg">
<path d="M23.0561 9.30008H22.4318V6.28771C22.4318 6.26892 22.4288 6.25 22.4265 6.23083C22.4255 6.11136 22.3872 5.99382 22.3053 5.90078L17.2922 0.174372C17.2907 0.172908 17.2892 0.172389 17.2882 0.170784C17.2583 0.137411 17.2234 0.109655 17.1866 0.085628C17.1757 0.0783114 17.1647 0.0721749 17.1533 0.0657079C17.1214 0.0484313 17.0875 0.0338453 17.0527 0.0234132C17.0433 0.0209114 17.0348 0.0170406 17.0253 0.0145388C16.9875 0.00561727 16.9481 0 16.9083 0H4.58841C4.02584 0 3.56881 0.457548 3.56881 1.01965V9.29985H2.94463C2.13985 9.29985 1.4873 9.95211 1.4873 10.7572V18.3355C1.4873 19.1398 2.13985 19.7927 2.94463 19.7927H3.56886V24.9803C3.56886 25.5424 4.02588 26 4.58846 26H21.4119C21.974 26 22.4315 25.5425 22.4315 24.9803V19.7927H23.0559C23.8604 19.7927 24.5131 19.14 24.5131 18.3355V10.7574C24.513 9.95211 23.8608 9.30008 23.0561 9.30008ZM4.58841 1.01965H16.3985V6.23616C16.3985 6.51783 16.627 6.74597 16.9083 6.74597H21.4119V9.30008H4.58841V1.01965ZM16.0288 16.7264V18.2051H11.1643V10.4181H12.9326V16.7264H16.0288ZM3.50508 18.2048L5.75813 14.2653L3.58585 10.4181H5.60773L6.28931 11.8389C6.52056 12.3124 6.69394 12.694 6.87889 13.133H6.90169C7.08701 12.6359 7.23688 12.2893 7.43316 11.8389L8.09184 10.4181H10.1022L7.90675 14.2192L10.2179 18.205H8.18431L7.47961 16.7956C7.19095 16.2524 7.00587 15.8482 6.78646 15.3977H6.76333C6.60138 15.8485 6.40539 16.2529 6.1628 16.7956L5.51559 18.205H3.50508V18.2048ZM21.4119 24.7043H4.58841V19.7927H21.4119V24.7043H21.4119ZM18.9744 18.321C18.0852 18.321 17.2068 18.0896 16.7682 17.8471L17.1259 16.3914C17.5998 16.6338 18.3277 16.8768 19.079 16.8768C19.888 16.8768 20.3152 16.5417 20.3152 16.0334C20.3152 15.548 19.9455 15.2707 19.0095 14.9356C17.7156 14.4848 16.872 13.7686 16.872 12.6359C16.872 11.3071 17.9812 10.2907 19.8188 10.2907C20.6966 10.2907 21.3438 10.476 21.8058 10.6835L21.413 12.1048C21.1011 11.9544 20.5463 11.735 19.784 11.735C19.0216 11.735 18.6519 12.0813 18.6519 12.4861C18.6519 12.9829 19.0905 13.2027 20.0959 13.584C21.4707 14.0923 22.118 14.8083 22.118 15.906C22.1173 17.2118 21.1125 18.321 18.9744 18.321Z" fill="#0F9D58"/>
</svg>
