<svg width="26" height="26" viewBox="0 0 26 26" fill="none" xmlns="http://www.w3.org/2000/svg">
<path d="M23.0557 9.30007H22.4313V6.28771C22.4313 6.26893 22.4284 6.25001 22.4259 6.231C22.4249 6.11136 22.3867 5.9939 22.3049 5.90076L17.292 0.174364C17.2905 0.172894 17.289 0.172372 17.288 0.170807C17.2581 0.137423 17.2233 0.109635 17.1864 0.0856407C17.1755 0.078338 17.1645 0.0722208 17.1531 0.0658191C17.1212 0.0484633 17.0873 0.0340002 17.0525 0.0235204C17.043 0.0209123 17.0345 0.0170712 17.0251 0.0146054C16.9873 0.00559557 16.948 0 16.9082 0H4.58819C4.02565 0 3.56861 0.457556 3.56861 1.01963V9.29979H2.94437C2.13961 9.29979 1.48706 9.9521 1.48706 10.7571V18.3354C1.48706 19.1401 2.13961 19.7927 2.94437 19.7927H3.56861V24.9804C3.56861 25.5425 4.02565 26 4.58819 26H21.4117C21.9738 26 22.4313 25.5425 22.4313 24.9804V19.7928H23.0556C23.8601 19.7928 24.5128 19.1401 24.5128 18.3355V10.7574C24.5128 9.95238 23.8602 9.30007 23.0557 9.30007ZM4.58819 1.01986H16.3983V6.23655C16.3983 6.51817 16.6268 6.74631 16.9082 6.74631H21.4117V9.3004H4.58819V1.01986ZM15.3314 10.6049V18.218H13.6031V10.6049H15.3314ZM6.93795 12.0281V10.6049H12.4612V11.5992L8.91466 16.7499V16.7946H12.5179V18.218H6.59918V17.2915L10.2252 12.0735V12.0281H6.93795ZM21.4117 24.7043H4.58819V19.7928H21.4117V24.7043H21.4117ZM21.5892 14.728C21.0019 15.2815 20.1323 15.5296 19.1156 15.5296C18.8891 15.5296 18.6864 15.5186 18.5281 15.4959V18.2179H16.8227V10.7066C17.3534 10.6158 18.0987 10.5484 19.1492 10.5484C20.2114 10.5484 20.9677 10.7516 21.4764 11.1583C21.9618 11.5422 22.2894 12.1749 22.2894 12.9205C22.2896 13.6659 22.041 14.2984 21.5892 14.728Z" fill="#A5518E"/>
<path d="M19.2401 11.8473C18.8891 11.8473 18.6518 11.8813 18.5281 11.9154V14.163C18.6745 14.1969 18.8557 14.2083 19.1044 14.2083C20.0189 14.2083 20.584 13.7448 20.584 12.9659C20.5841 12.2654 20.0983 11.8473 19.2401 11.8473Z" fill="#A5518E"/>
</svg>
