<svg width="120" height="120" viewBox="0 0 120 120" fill="none" xmlns="http://www.w3.org/2000/svg">
<rect width="120" height="120" fill="white"/>
<path d="M60 84.0002C50.9 84.0002 42.5 79.1002 37.9 71.2002C37.7 70.9002 37.3 70.7002 36.9 70.7002C36.7 70.7002 36.5 70.7002 36.4 70.8002L17.2 81.7002C16.9 81.9002 16.8 82.1002 16.7 82.3002C16.6 82.6002 16.7 82.9002 16.8 83.2002C25.6 98.7002 42.2 108.3 60 108.3C72.7 108.3 84.7 103.6 93.9 94.9002" stroke="#183D68" stroke-width="1.5" stroke-miterlimit="10" stroke-linecap="round"/>
<path d="M75 82.3001C75.8837 82.3001 76.6 81.5838 76.6 80.7001C76.6 79.8164 75.8837 79.1001 75 79.1001C74.1164 79.1001 73.4 79.8164 73.4 80.7001C73.4 81.5838 74.1164 82.3001 75 82.3001Z" fill="#183D68"/>
<path d="M49.8 32.3002C50.3 32.1002 50.5 31.7002 50.5 31.3002V13.8002C50.5 13.5002 50.3 13.1002 50.1 12.9002C50 12.8002 49.8 12.7002 49.6 12.7002C49.5 12.7002 49.5 12.7002 49.4 12.7002C27.9 17.8002 13 36.6002 13 58.6002C13 63.0002 13.6 67.5002 14.9 71.9002C15 72.2002 15.2 72.4002 15.6 72.6002C15.8 72.7002 16.1 72.7002 16.5 72.5002L31.8 63.7002C32.3 63.4002 32.3 62.9002 32.3 62.6002C32.1 61.4002 31.9 60.1002 31.9 58.6002C31.9 46.9002 38.9 36.6002 49.8 32.3002Z" stroke="#183D68" stroke-width="1.5" stroke-miterlimit="10"/>
<path d="M102.4 80.1L101.6 81.6L84.4 71.5L85 70.2C86.7 66.6 87.6 62.5 87.6 58.6C87.6 44.3 76.8 32.4 62.5 31.1L61.1 31V11L62.8 11.1C87.9 12.6 107.6 33.4 107.6 58.6C107.6 66.1 105.8 73.4 102.4 80.1Z" stroke="#183D68" stroke-width="1.5" stroke-miterlimit="10"/>
<path d="M68.2 62.7999L78.1 52.8999" stroke="#183D68" stroke-width="1.5" stroke-miterlimit="10"/>
<path d="M75.9 58.8999C74.7 58.8999 73.7 59.8999 73.7 61.0999C73.7 62.2999 74.7 63.2999 75.9 63.2999C77.1 63.2999 78.1 62.2999 78.1 61.0999C78.1 59.7999 77.1 58.8999 75.9 58.8999Z" stroke="#183D68" stroke-width="1.5" stroke-miterlimit="10"/>
<path d="M69.9 57.1998C71.1 57.1998 72.1 56.1998 72.1 54.9998C72.1 53.7998 71.1 52.7998 69.9 52.7998C68.7 52.7998 67.7 53.7998 67.7 54.9998C67.7 56.1998 68.7 57.1998 69.9 57.1998Z" stroke="#183D68" stroke-width="1.5" stroke-miterlimit="10"/>
<path d="M46.7 62.6H45.5V54.7C45.2 55 44.8 55.3 44.3 55.6C43.8 55.9 43.4 56.1 43 56.2V55C43.7 54.7 44.3 54.3 44.8 53.8C45.3 53.3 45.7 52.9 45.9 52.5H46.7V62.6Z" fill="#183D68"/>
<path d="M49.9 57.5999C49.9 56.3999 50 55.3999 50.3 54.6999C50.5 53.9999 50.9 53.3999 51.4 52.9999C51.9 52.5999 52.5 52.3999 53.2 52.3999C53.7 52.3999 54.2 52.4999 54.6 52.6999C55 52.8999 55.3 53.1999 55.6 53.5999C55.9 53.9999 56.1 54.4999 56.2 55.0999C56.4 55.6999 56.4 56.4999 56.4 57.4999C56.4 58.6999 56.3 59.5999 56 60.3999C55.8 61.0999 55.4 61.6999 54.9 62.0999C54.4 62.4999 53.8 62.6999 53.1 62.6999C52.1 62.6999 51.4 62.3999 50.8 61.6999C50.2 60.8999 49.9 59.4999 49.9 57.5999ZM51.2 57.5999C51.2 59.2999 51.4 60.3999 51.8 60.8999C52.2 61.3999 52.7 61.6999 53.2 61.6999C53.8 61.6999 54.2 61.3999 54.6 60.8999C55 60.2999 55.2 59.1999 55.2 57.5999C55.2 55.8999 55 54.7999 54.6 54.2999C54.2 53.7999 53.7 53.4999 53.2 53.4999C52.6 53.4999 52.2 53.6999 51.8 54.1999C51.4 54.8999 51.2 55.9999 51.2 57.5999Z" fill="#183D68"/>
<path d="M57.7 57.5999C57.7 56.3999 57.8 55.3999 58.1 54.6999C58.3 53.9999 58.7 53.3999 59.2 52.9999C59.7 52.5999 60.3 52.3999 61 52.3999C61.5 52.3999 62 52.4999 62.4 52.6999C62.8 52.8999 63.1 53.1999 63.4 53.5999C63.7 53.9999 63.9 54.4999 64 55.0999C64.2 55.6999 64.2 56.4999 64.2 57.4999C64.2 58.6999 64.1 59.5999 63.8 60.3999C63.6 61.0999 63.2 61.6999 62.7 62.0999C62.2 62.4999 61.6 62.6999 60.9 62.6999C59.9 62.6999 59.2 62.3999 58.6 61.6999C58.1 60.8999 57.7 59.4999 57.7 57.5999ZM59 57.5999C59 59.2999 59.2 60.3999 59.6 60.8999C60 61.3999 60.5 61.6999 61 61.6999C61.6 61.6999 62 61.3999 62.4 60.8999C62.8 60.2999 63 59.1999 63 57.5999C63 55.8999 62.8 54.7999 62.4 54.2999C62 53.7999 61.5 53.4999 61 53.4999C60.4 53.4999 60 53.6999 59.6 54.1999C59.2 54.8999 59 55.9999 59 57.5999Z" fill="#183D68"/>
</svg>
