<svg width="99" height="94" viewBox="0 0 99 94" fill="none" xmlns="http://www.w3.org/2000/svg">
<path d="M21.866 10.2944H53.6392" stroke="#183D68" stroke-width="1.5" stroke-miterlimit="10"/>
<path d="M21.866 16.9336H47.0949" stroke="#183D68" stroke-width="1.5" stroke-miterlimit="10"/>
<path d="M45.8619 69.668H61.3217" stroke="#183D68" stroke-width="1.5" stroke-miterlimit="10"/>
<path d="M45.8619 74.7896H77.1608" stroke="#183D68" stroke-width="1.5" stroke-miterlimit="10"/>
<path d="M62.2701 28.2206V8.30309C62.2701 4.31959 59.0454 1 55.1567 1C55.1567 1 35.8082 1.09485 21.9608 1.09485C19.0206 1.09485 16.2701 1.09485 13.9938 1.09485C11.2433 1.09485 9.25155 1.09485 8.39794 1.09485C4.31959 1.09485 1 4.41443 1 8.30309V11.0536M45.8619 93H91.5773C95.1814 93 97.932 90.1546 97.932 86.1711C97.932 85.6021 97.932 83.8948 97.932 83.8948V83.0412L84.7484 82.9464H51.7423L50.4144 83.0412L50.7938 86.4557C50.9835 86.7402 50.9835 87.4041 50.9835 87.7835C50.9835 90.534 48.7072 92.9052 45.8619 92.9052C43.1113 92.9052 40.7402 90.6289 40.7402 87.7835L40.4557 34.8598C40.4557 32.868 39.6021 28.1258 33.532 28.2206H79.6268C82.3773 28.2206 84.7484 30.4969 84.7484 33.3423M59.9938 28.2206H35.9979C35.9979 28.2206 33.3423 28.2206 33.2474 28.2206C29.1691 28.2206 25.9443 31.5402 25.9443 35.5237V62.8392C25.9443 65.5897 23.668 67.9608 20.8227 67.9608C17.9773 67.9608 15.701 65.6845 15.701 62.8392V59.235V10.6742C15.701 8.68247 16.7443 1.18969 8.39794 1.18969M83.9897 58.3814L83.3258 59.1402L96.5093 71.0907C96.9835 71.5649 97.268 72.134 97.268 72.8928C97.268 73.6515 96.9835 74.2206 96.5093 74.6948C96.035 75.1691 95.466 75.4536 94.8021 75.4536C94.0433 75.4536 93.4742 75.1691 93 74.5052L81.6186 60.6577L80.6701 61.2268C77.9196 63.2186 74.7897 64.2619 71.3753 64.2619C63.5031 64.2619 56.4845 58.1918 55.6309 50.4144C55.0619 45.8619 56.5794 41.499 59.6144 37.9897C62.934 34.3856 67.6763 32.3938 72.7979 32.6783C80.6701 33.2474 86.9299 39.7918 87.2144 47.6639C87.4041 51.7423 86.266 55.5361 83.9897 58.3814Z" stroke="#183D68" stroke-width="1.5" stroke-miterlimit="10"/>
</svg>
