<svg width="120" height="120" viewBox="0 0 120 120" fill="none" xmlns="http://www.w3.org/2000/svg">
<rect width="120" height="120" fill="white"/>
<path d="M36.6909 26.8843H78.4027" stroke="#183D68" stroke-width="1.5" stroke-miterlimit="10"/>
<path d="M36.6909 38.9668H65.2693" stroke="#183D68" stroke-width="1.5" stroke-miterlimit="10"/>
<path d="M36.6909 51.0498H62.3274" stroke="#183D68" stroke-width="1.5" stroke-miterlimit="10"/>
<path d="M36.6909 62.9219H68.5264" stroke="#183D68" stroke-width="1.5" stroke-miterlimit="10"/>
<path d="M36.6909 75.0049H59.9108" stroke="#183D68" stroke-width="1.5" stroke-miterlimit="10"/>
<path d="M36.5858 106H99.7314C104.459 106 108.032 102.218 108.032 97.1743C108.032 96.4388 108.032 94.2324 108.032 94.2324V93.1817H93.5325M93.2172 23.627C93.2172 18.4787 89.0146 14.1709 83.9713 14.0659H22.1916C21.8764 14.0659 21.5612 14.0659 21.4561 14.0659C16.3078 14.3811 12 18.5838 12 23.9422V26.779M93.8477 93.1817L46.8824 93.602L43.9406 93.497C43.9406 93.497 44.2558 94.7578 44.4659 96.1236C44.571 97.0693 44.4659 98.0149 44.4659 98.5402C44.2558 102.743 40.7885 106 36.6909 106C32.5932 106 28.9159 102.533 28.9159 98.3301V21.6307C28.7057 16.1672 26.6044 13.5405 20.7206 14.0659" stroke="#183D68" stroke-width="1.5" stroke-miterlimit="10"/>
<path d="M93.2172 64.4982C86.8081 64.4982 81.6598 59.3499 81.6598 52.9407C81.6598 46.5316 86.8081 41.3833 93.2172 41.3833C99.6263 41.3833 104.775 46.5316 104.775 52.9407C104.775 59.3499 99.5213 64.4982 93.2172 64.4982Z" stroke="#183D68" stroke-width="1.5" stroke-miterlimit="10"/>
<path d="M82.3953 65.4443V84.2514C82.3953 84.5666 82.5004 84.7768 82.8156 84.9869C83.0257 85.092 83.446 85.092 83.6561 84.8818L89.5399 80.6791C90.6956 79.8386 91.9564 79.5234 93.3223 79.5234C94.6882 79.5234 95.949 79.9437 97.1048 80.6791L102.989 84.8818C103.199 84.9869 103.304 85.092 103.409 85.092C103.514 85.092 103.619 85.092 103.829 84.9869C104.144 84.7768 104.144 84.5666 104.144 84.3565V65.4443" stroke="#183D68" stroke-width="1.5" stroke-miterlimit="10"/>
<path d="M18.4091 95.3883V35.8149" stroke="#183D68" stroke-width="1.5" stroke-miterlimit="10"/>
<path d="M12 41.4888L18.4091 34.9746L24.8182 41.4888" stroke="#183D68" stroke-width="1.5" stroke-miterlimit="10"/>
<path d="M24.8182 88.979L18.4091 95.3881L12 88.979" stroke="#183D68" stroke-width="1.5" stroke-miterlimit="10"/>
</svg>
