<svg width="120" height="120" viewBox="0 0 120 120" fill="none" xmlns="http://www.w3.org/2000/svg">
<rect width="120" height="120" fill="white"/>
<path d="M97.6738 80.1085C97.9618 79.5325 98.4417 78.7647 98.7297 78.0928" stroke="#183D68" stroke-width="1.5" stroke-miterlimit="10"/>
<path d="M100.362 74.4461C100.65 73.6783 100.841 73.1023 101.129 72.3345" stroke="#183D68" stroke-width="1.5" stroke-miterlimit="10"/>
<path d="M94.6025 94.5056C93.1627 95.9454 91.339 96.7132 89.3233 96.7132C87.3076 96.7132 85.5799 95.9454 84.0442 94.5056C83.8522 94.3136 83.6602 94.1217 83.6602 93.9297C82.4124 92.4899 81.8365 90.6662 82.0285 89.0345C82.0285 88.8425 82.0285 88.8425 82.0285 88.6506C82.2205 87.0188 82.8924 85.3871 84.0442 84.1393C85.292 82.8915 87.1157 81.9316 89.1313 81.9316C89.3233 81.9316 89.3233 81.9316 89.5153 81.9316C91.147 81.9316 92.7787 82.6995 94.0265 83.7553C94.2185 83.9473 94.2185 83.9473 94.4105 84.1393C97.578 87.0188 97.578 91.6261 94.6025 94.5056Z" stroke="#183D68" stroke-width="1.5" stroke-miterlimit="10"/>
<path d="M78.0932 98.8254C78.8611 98.5374 79.437 98.2495 80.1089 97.7695" stroke="#183D68" stroke-width="1.5" stroke-miterlimit="10"/>
<path d="M72.334 100.841C73.1019 100.649 73.8698 100.361 74.4457 100.073" stroke="#183D68" stroke-width="1.5" stroke-miterlimit="10"/>
<path d="M59.952 109C56.0166 109 52.5612 105.736 52.5612 101.609C52.5612 101.417 52.5612 101.225 52.5612 101.033C52.7531 99.4013 53.425 97.9616 54.5768 96.7138C54.9608 96.3298 55.1527 96.1379 55.4407 95.8499C56.6885 94.9861 58.1283 94.4102 59.76 94.4102H59.952C61.5837 94.4102 63.0235 94.9861 64.0793 95.8499C64.4632 96.2339 64.8472 96.4258 65.1351 96.7138C66.191 97.7696 66.9588 99.2094 67.1508 100.841C67.1508 101.033 67.1508 101.225 67.1508 101.609C67.3428 105.544 63.8873 109 59.952 109Z" stroke="#183D68" stroke-width="1.5" stroke-miterlimit="10"/>
<path d="M45.3624 100.265C46.1303 100.553 46.7062 100.745 47.4741 101.033" stroke="#183D68" stroke-width="1.5" stroke-miterlimit="10"/>
<path d="M39.6034 97.6729C40.1793 97.9608 40.9472 98.4407 41.6191 98.7287" stroke="#183D68" stroke-width="1.5" stroke-miterlimit="10"/>
<path d="M18.8708 72.2383C19.0628 73.0062 19.3507 73.774 19.6387 74.3499" stroke="#183D68" stroke-width="1.5" stroke-miterlimit="10"/>
<path d="M21.0784 77.9966C21.3663 78.7645 21.6543 79.3404 22.1342 80.0123" stroke="#183D68" stroke-width="1.5" stroke-miterlimit="10"/>
<path d="M11 59.8568C11 55.9215 14.1675 52.562 18.2948 52.562C18.4868 52.562 18.6788 52.562 18.9667 52.562C22.7101 52.9459 25.5896 56.1134 25.5896 59.6649C25.5896 63.4083 22.7101 66.5757 18.9667 66.9597C18.7747 66.9597 18.5828 66.9597 18.3908 66.9597C14.1675 67.1516 11 63.7922 11 59.8568Z" stroke="#183D68" stroke-width="1.5" stroke-miterlimit="10"/>
<path d="M19.5427 45.2661C19.2547 46.034 19.0627 46.6099 18.7748 47.3778" stroke="#183D68" stroke-width="1.5" stroke-miterlimit="10"/>
<path d="M22.1342 39.5083C21.8462 40.0842 21.3663 40.8521 21.0784 41.524" stroke="#183D68" stroke-width="1.5" stroke-miterlimit="10"/>
<path d="M25.2057 25.1105C26.6455 23.6707 28.4692 22.9028 30.3889 22.9028C32.3086 22.9028 34.1323 23.6707 35.5721 25.1105L35.764 25.3024L35.956 25.6864C37.2038 27.1261 37.7797 28.9499 37.5877 30.7736V30.9655C37.3958 32.5973 36.8199 34.421 35.3801 35.6688C32.8845 38.1644 28.3732 38.5483 25.4937 36.0527C25.3017 35.8607 25.3017 35.8607 25.1098 35.6688C22.3262 32.6932 22.3262 27.99 25.2057 25.1105Z" stroke="#183D68" stroke-width="1.5" stroke-miterlimit="10"/>
<path d="M47.4741 18.7734C46.7062 18.9654 45.9383 19.2534 45.3624 19.5413" stroke="#183D68" stroke-width="1.5" stroke-miterlimit="10"/>
<path d="M41.811 20.9834C41.0431 21.2714 40.4672 21.5593 39.7953 22.0392" stroke="#183D68" stroke-width="1.5" stroke-miterlimit="10"/>
<path d="M59.952 11C63.7913 11 67.1508 14.1675 67.1508 18.1988C67.1508 18.3908 67.1508 18.7747 67.1508 18.8707C66.9588 20.5025 66.2869 22.0382 65.2311 23.094C64.8472 23.478 64.5592 23.6699 64.1753 23.9579C62.9275 24.8218 61.4877 25.3977 59.952 25.3977C59.952 25.3977 59.952 25.3977 59.76 25.3977C58.1283 25.3977 56.5925 24.8218 55.3447 23.7659C54.9608 23.574 54.7688 23.19 54.4808 23.094C53.425 22.0382 52.7531 20.5984 52.5612 19.0627V18.8707C52.5612 18.6788 52.5612 18.4868 52.5612 18.2948C52.6571 14.1675 56.0166 11 59.952 11Z" stroke="#183D68" stroke-width="1.5" stroke-miterlimit="10"/>
<path d="M74.5416 19.4456C73.7738 19.1577 73.1979 18.9657 72.43 18.6777" stroke="#183D68" stroke-width="1.5" stroke-miterlimit="10"/>
<path d="M80.2048 22.0392C79.6289 21.7513 78.861 21.2714 78.1891 20.9834" stroke="#183D68" stroke-width="1.5" stroke-miterlimit="10"/>
<path d="M100.937 47.3778C100.746 46.6099 100.458 45.842 100.17 45.2661" stroke="#183D68" stroke-width="1.5" stroke-miterlimit="10"/>
<path d="M98.8257 41.7154C98.5378 40.9475 98.2498 40.3716 97.7699 39.6997" stroke="#183D68" stroke-width="1.5" stroke-miterlimit="10"/>
<path d="M25.2057 94.602C22.3262 91.7225 22.3262 87.0192 25.2057 84.1397L25.3977 83.9477L25.5897 83.7558C26.8375 82.6999 28.4692 82.124 30.1009 82.124C30.2929 82.124 30.2929 82.124 30.4849 82.124C32.5005 82.124 34.1323 82.8919 35.5721 84.3317C36.8198 85.5795 37.5877 87.2112 37.7797 89.0349V89.2269C37.7797 91.0506 37.2038 92.8743 36.148 94.314C35.956 94.506 35.764 94.698 35.764 94.89C32.7885 97.2896 27.8933 97.2896 25.2057 94.602Z" stroke="#183D68" stroke-width="1.5" stroke-miterlimit="10"/>
<path d="M101.705 67.2478C101.513 67.2478 101.321 67.2478 100.937 67.2478C97.1941 66.8638 94.2186 63.6004 94.2186 60.0489C94.2186 56.3055 97.0981 53.0421 100.937 52.8501C101.129 52.8501 101.321 52.8501 101.513 52.8501C105.449 52.8501 108.904 56.1136 108.904 60.2409C109.096 63.7923 105.737 67.2478 101.705 67.2478Z" stroke="#183D68" stroke-width="1.5" stroke-miterlimit="10"/>
<path d="M94.6025 25.1103C97.482 27.9899 97.482 32.6931 94.6025 35.3807L94.4105 35.5726L94.2185 35.7646C92.9707 36.8204 91.339 37.3963 89.5153 37.3963C87.4996 37.3963 85.6759 36.6285 84.2361 35.1887C82.9883 33.9409 82.2205 32.1172 82.0285 30.2935C82.0285 28.4698 82.6044 26.6461 83.6602 25.2063C83.8522 25.0144 83.8522 25.0144 84.0442 24.8224C85.4839 23.3826 87.3076 22.6147 89.3233 22.6147C91.435 22.9987 93.1627 23.6706 94.6025 25.1103Z" stroke="#183D68" stroke-width="1.5" stroke-miterlimit="10"/>
<path d="M59.8562 57.8406C64.5741 57.8406 68.3988 54.0159 68.3988 49.298C68.3988 44.58 64.5741 40.7554 59.8562 40.7554C55.1382 40.7554 51.3135 44.58 51.3135 49.298C51.3135 54.0159 55.1382 57.8406 59.8562 57.8406Z" stroke="#183D68" stroke-width="1.5" stroke-miterlimit="10"/>
<path d="M64.2715 75.0213H42.675V70.702C42.675 63.5991 54.0012 60.4316 59.8562 60.4316C65.7113 60.4316 77.0374 63.5031 77.0374 70.702V75.1173H74.5418" stroke="#183D68" stroke-width="1.5" stroke-miterlimit="10"/>
<path d="M69.9344 76.5578C70.7825 76.5578 71.4701 75.8702 71.4701 75.0221C71.4701 74.1739 70.7825 73.4863 69.9344 73.4863C69.0862 73.4863 68.3986 74.1739 68.3986 75.0221C68.3986 75.8702 69.0862 76.5578 69.9344 76.5578Z" fill="#183D68"/>
</svg>
