<svg width="120" height="120" viewBox="0 0 120 120" fill="none" xmlns="http://www.w3.org/2000/svg">
<rect width="120" height="120" fill="white"/>
<path d="M56.042 68.4952L75.6329 48.9043" stroke="#183D68" stroke-width="1.5" stroke-miterlimit="10"/>
<path d="M71.2675 60.6162C68.9251 60.6162 67.0086 62.5327 67.0086 64.8751C67.0086 67.2175 68.9251 69.2405 71.374 69.2405C73.7164 69.2405 75.7393 67.324 75.7393 64.8751C75.7393 62.5327 73.8228 60.6162 71.2675 60.6162Z" stroke="#183D68" stroke-width="1.5" stroke-miterlimit="10"/>
<path d="M59.4491 57.4216C61.7915 57.4216 63.8145 55.5051 63.8145 53.0563C63.8145 50.7139 61.898 48.6909 59.4491 48.6909C57.1067 48.6909 55.0837 50.6074 55.0837 53.0563C55.0837 55.5051 57.0002 57.4216 59.4491 57.4216Z" stroke="#183D68" stroke-width="1.5" stroke-miterlimit="10"/>
<path d="M57.0003 34.6369C59.875 33.4657 62.9627 32.9333 66.0504 32.9333C72.3323 32.9333 78.2947 35.2757 82.873 39.4281L83.6183 39.9605L100.334 25.6932L99.4827 24.8414C90.6455 16.0042 78.7206 11 66.0504 11C59.3427 11 52.8478 12.4906 46.566 15.2589L45.5013 15.6848L56.1485 34.9563L57.0003 34.6369Z" stroke="#183D68" stroke-width="1.5" stroke-miterlimit="10"/>
<path d="M51.3572 79.036C44.9689 74.4576 40.8164 67.0046 40.8164 58.4868C40.8164 50.5014 44.7559 42.9418 51.1443 38.1506L51.8896 37.6182L41.3488 18.1338L40.2841 18.6662C26.7621 27.5034 18.7767 42.303 18.7767 58.2739C18.7767 84.2531 39.9647 105.441 65.9439 105.441C72.6517 105.441 79.1465 103.95 85.4283 101.182L86.4931 100.756" stroke="#183D68" stroke-width="1.5" stroke-miterlimit="10"/>
<path d="M113.324 62.4268L91.0713 56.8902M104.274 30.5915L103.529 29.7397L86.8124 44.007L87.3448 44.7523C90.0066 48.7983 91.3907 53.5895 91.3907 58.3808C91.3907 66.3662 87.4513 73.9258 81.0629 78.717L80.3176 79.2494L90.9649 98.5209L92.0296 97.9885C105.552 89.2578 113.537 74.4581 113.537 58.4873C113.218 48.3724 110.13 38.7899 104.274 30.5915ZM110.769 42.9423L92.9878 38.6834L110.769 42.9423ZM113.218 52.8442L89.0484 47.2012L113.218 52.8442ZM103.209 87.6607L82.66 82.763L103.209 87.6607ZM108.426 79.6753L85.4283 74.1387L108.426 79.6753ZM111.727 71.1575L89.6872 65.9403L111.727 71.1575Z" stroke="#183D68" stroke-width="1.5" stroke-miterlimit="10"/>
<path d="M26.2297 109.7C37.4023 109.7 46.4595 100.643 46.4595 89.47C46.4595 78.2974 37.4023 69.2402 26.2297 69.2402C15.0572 69.2402 6 78.2974 6 89.47C6 100.643 15.0572 109.7 26.2297 109.7Z" fill="white" stroke="#183D68" stroke-width="1.5" stroke-miterlimit="10"/>
<path d="M15.0502 96.8164H13.1337V84.785C12.7078 85.2109 12.069 85.6368 11.3237 86.0627C10.5784 86.4886 9.93952 86.808 9.30069 87.021V85.2109C10.3654 84.6786 11.3237 84.1462 12.069 83.4009C12.8143 82.6556 13.4531 82.0168 13.7725 81.3779H14.9437V96.8164H15.0502Z" fill="#183D68"/>
<path d="M19.8414 89.2573C19.8414 87.4473 20.0543 85.9567 20.3737 84.892C20.7996 83.8273 21.332 82.9755 22.0773 82.3366C22.8226 81.6978 23.7808 81.4849 24.8456 81.4849C25.6973 81.4849 26.3362 81.6978 26.975 82.0172C27.6138 82.3366 28.1462 82.869 28.4656 83.4014C28.8915 84.0402 29.2109 84.7855 29.4239 85.6373C29.6368 86.4891 29.7433 87.7667 29.7433 89.2573C29.7433 91.0674 29.5303 92.558 29.2109 93.6227C28.8915 94.6874 28.2527 95.5392 27.5074 96.178C26.7621 96.8169 25.8038 97.0298 24.7391 97.0298C23.2485 97.0298 22.0773 96.4975 21.2255 95.4327C20.3737 94.2615 19.8414 92.1321 19.8414 89.2573ZM21.7579 89.2573C21.7579 91.8127 22.0773 93.4098 22.6096 94.2615C23.2485 95.1133 23.8873 95.5392 24.7391 95.5392C25.5909 95.5392 26.3362 95.1133 26.8685 94.2615C27.5074 93.4098 27.7203 91.7062 27.7203 89.2573C27.7203 86.702 27.4009 85.1049 26.8685 84.2531C26.2297 83.4014 25.5909 82.9755 24.6326 82.9755C23.7808 82.9755 23.0355 83.2949 22.6096 84.0402C22.0773 84.9984 21.7579 86.702 21.7579 89.2573Z" fill="#183D68"/>
<path d="M31.7663 89.2573C31.7663 87.4473 31.9792 85.9567 32.2987 84.892C32.7245 83.8273 33.2569 82.9755 34.0022 82.3366C34.7475 81.6978 35.7058 81.4849 36.7705 81.4849C37.6223 81.4849 38.2611 81.6978 38.8999 82.0172C39.5388 82.3366 40.0711 82.869 40.3906 83.4014C40.8164 84.0402 41.1359 84.7855 41.3488 85.6373C41.5617 86.4891 41.6682 87.7667 41.6682 89.2573C41.6682 91.0674 41.4553 92.558 41.1359 93.6227C40.8164 94.6874 40.1776 95.5392 39.4323 96.178C38.687 96.8169 37.7287 97.0298 36.664 97.0298C35.1734 97.0298 34.0022 96.4975 33.1504 95.4327C32.2987 94.2615 31.7663 92.1321 31.7663 89.2573ZM33.6828 89.2573C33.6828 91.8127 34.0022 93.4098 34.5346 94.2615C35.1734 95.1133 35.8122 95.5392 36.664 95.5392C37.5158 95.5392 38.2611 95.1133 38.7935 94.2615C39.4323 93.4098 39.6452 91.7062 39.6452 89.2573C39.6452 86.702 39.3258 85.1049 38.7935 84.2531C38.1546 83.4014 37.5158 82.9755 36.5575 82.9755C35.7058 82.9755 34.9605 83.2949 34.5346 84.0402C34.0022 84.9984 33.6828 86.702 33.6828 89.2573Z" fill="#183D68"/>
<path d="M62.7498 84.4657C63.6906 84.4657 64.4533 83.703 64.4533 82.7621C64.4533 81.8213 63.6906 81.0586 62.7498 81.0586C61.8089 81.0586 61.0462 81.8213 61.0462 82.7621C61.0462 83.703 61.8089 84.4657 62.7498 84.4657Z" fill="#183D68"/>
</svg>
