<svg width="120" height="120" viewBox="0 0 120 120" fill="none" xmlns="http://www.w3.org/2000/svg">
<rect width="120" height="120" fill="white"/>
<path d="M56.042 68.4952L75.6329 48.9043" stroke="#183D68" stroke-width="1.5" stroke-miterlimit="10"/>
<path d="M71.2675 60.6162C68.9251 60.6162 67.0086 62.5327 67.0086 64.8751C67.0086 67.2175 68.9251 69.2405 71.374 69.2405C73.7164 69.2405 75.7393 67.324 75.7393 64.8751C75.7393 62.5327 73.8228 60.6162 71.2675 60.6162Z" stroke="#183D68" stroke-width="1.5" stroke-miterlimit="10"/>
<path d="M59.4491 57.4216C61.7915 57.4216 63.8145 55.5051 63.8145 53.0563C63.8145 50.7139 61.898 48.6909 59.4491 48.6909C57.1067 48.6909 55.0837 50.6074 55.0837 53.0563C55.0837 55.5051 57.0002 57.4216 59.4491 57.4216Z" stroke="#183D68" stroke-width="1.5" stroke-miterlimit="10"/>
<path d="M57.0002 34.6369C59.875 33.4657 62.9627 32.9333 66.0504 32.9333C72.3322 32.9333 78.2947 35.2757 82.873 39.4281L83.6183 39.9605L100.334 25.6932L99.4827 24.8414C90.6455 16.0042 78.7206 11 66.0504 11C59.3426 11 52.8478 12.4906 46.5659 15.2589L45.5012 15.6848L56.1485 34.9563L57.0002 34.6369Z" stroke="#183D68" stroke-width="1.5" stroke-miterlimit="10"/>
<path d="M51.3572 79.036C44.9689 74.4576 40.8164 67.0046 40.8164 58.4868C40.8164 50.5014 44.7559 42.9418 51.1443 38.1506L51.8896 37.6182L41.3488 18.1338L40.2841 18.6662C26.7621 27.5034 18.7767 42.303 18.7767 58.2739C18.7767 84.2531 39.9647 105.441 65.9439 105.441C72.6517 105.441 79.1465 103.95 85.4283 101.182L86.4931 100.756" stroke="#183D68" stroke-width="1.5" stroke-miterlimit="10"/>
<path d="M113.324 62.4268L91.0713 56.8902M104.274 30.5915L103.529 29.7397L86.8124 44.007L87.3448 44.7523C90.0066 48.7983 91.3907 53.5895 91.3907 58.3808C91.3907 66.3662 87.4513 73.9258 81.0629 78.717L80.3176 79.2494L90.9649 98.5209L92.0296 97.9885C105.552 89.2578 113.537 74.4581 113.537 58.4873C113.218 48.3724 110.13 38.7899 104.274 30.5915ZM110.769 42.9423L92.9878 38.6834L110.769 42.9423ZM113.218 52.8442L89.0484 47.2012L113.218 52.8442ZM103.209 87.6607L82.66 82.763L103.209 87.6607ZM108.426 79.6753L85.4283 74.1387L108.426 79.6753ZM111.727 71.1575L89.6872 65.9403L111.727 71.1575Z" stroke="#183D68" stroke-width="1.5" stroke-miterlimit="10"/>
<path d="M26.2297 109.7C37.4023 109.7 46.4595 100.643 46.4595 89.47C46.4595 78.2974 37.4023 69.2402 26.2297 69.2402C15.0572 69.2402 6 78.2974 6 89.47C6 100.643 15.0572 109.7 26.2297 109.7Z" fill="white" stroke="#183D68" stroke-width="1.5" stroke-miterlimit="10"/>
<path d="M16 92.4L17.7 92.2C17.9 93.2 18.2 93.9 18.7 94.3C19.2 94.7 19.8 94.9 20.4 94.9C21.2 94.9 21.9 94.6 22.4 94.1C23 93.5 23.2 92.8 23.2 92C23.2 91.2 22.9 90.6 22.4 90C21.9 89.5 21.2 89.2 20.4 89.2C20.1 89.2 19.7 89.3 19.2 89.4L19.4 87.9C19.5 87.9 19.6 87.9 19.7 87.9C20.4 87.9 21.1 87.7 21.7 87.3C22.3 86.9 22.6 86.3 22.6 85.5C22.7 85 22.5 84.4 22.1 84C21.7 83.6 21.1 83.4 20.4 83.4C19.8 83.4 19.2 83.6 18.7 84C18.2 84.4 18 85.1 17.9 85.9L16.2 85.6C16.4 84.4 16.9 83.6 17.6 82.9C18.3 82.3 19.3 82 20.4 82C21.2 82 21.9 82.2 22.5 82.5C23.1 82.8 23.6 83.3 24 83.8C24.4 84.3 24.5 85 24.5 85.6C24.5 86.2 24.3 86.8 24 87.3C23.7 87.8 23.2 88.2 22.5 88.5C23.4 88.7 24 89.1 24.5 89.7C24.9 90.3 25.2 91 25.2 91.9C25.2 93.1 24.8 94.2 23.9 95C23 95.8 21.9 96.3 20.5 96.3C19.3 96.3 18.3 95.9 17.4 95.2C16.6 94.5 16.1 93.5 16 92.4Z" fill="#183D68"/>
<path d="M26.9 89.1C26.9 87.4 27.1 86.1 27.4 85.1C27.7 84.1 28.2 83.3 28.9 82.8C29.6 82.3 30.4 82 31.4 82C32.2 82 32.8 82.2 33.4 82.5C34 82.8 34.4 83.2 34.8 83.8C35.2 84.4 35.5 85.1 35.7 85.9C35.9 86.7 36 87.8 36 89.1C36 90.7 35.8 92.1 35.5 93.1C35.2 94.1 34.7 94.9 34 95.4C33.3 95.9 32.5 96.2 31.5 96.2C30.2 96.2 29.1 95.7 28.3 94.7C27.3 93.7 26.9 91.8 26.9 89.1ZM28.6 89.1C28.6 91.4 28.9 92.9 29.4 93.7C29.9 94.5 30.6 94.8 31.4 94.8C32.2 94.8 32.9 94.4 33.4 93.7C33.9 93 34.2 91.4 34.2 89.1C34.2 86.8 33.9 85.3 33.4 84.5C32.9 83.7 32.2 83.4 31.4 83.4C30.6 83.4 30 83.7 29.5 84.4C28.9 85.3 28.6 86.9 28.6 89.1Z" fill="#183D68"/>
<path d="M62.7498 84.4657C63.6906 84.4657 64.4533 83.703 64.4533 82.7621C64.4533 81.8213 63.6906 81.0586 62.7498 81.0586C61.8089 81.0586 61.0462 81.8213 61.0462 82.7621C61.0462 83.703 61.8089 84.4657 62.7498 84.4657Z" fill="#183D68"/>
</svg>
