<svg width="120" height="120" viewBox="0 0 120 120" fill="none" xmlns="http://www.w3.org/2000/svg">
<rect width="120" height="120" fill="white"/>
<path d="M25.5394 105.984H30.5288V101.725H37.7086L60.4649 109.27C62.0469 109.757 63.5072 110 65.0892 110C67.523 110 69.7135 109.513 72.0256 108.296L111.575 87.6086C114.861 86.27 116.443 82.4976 114.983 79.2119C114.253 77.6299 113.036 76.413 111.575 75.8045C109.993 75.0744 108.29 75.0744 106.586 75.8045L82.9779 86.27C82.9779 85.905 83.0996 85.5399 83.0996 85.2965C83.0996 82.0108 80.544 79.4553 77.2584 79.3336C77.2584 79.3336 77.2584 79.3336 77.1367 79.3336H60.83L48.4174 73.4924C45.8619 72.2755 42.9413 71.5453 40.1424 71.5453H30.5288V67.2861H4M82.9779 84.9314C82.9779 87.0002 81.1525 88.7039 78.962 88.7039H56.3274H56.084C53.8936 89.0689 49.9994 90.7726 49.9994 94.6668" stroke="#183D68" stroke-width="1.5" stroke-miterlimit="10"/>
<path d="M70.5652 56.5774L78.7185 61.4451C79.2053 61.8101 80.0571 61.5668 80.4222 61.08L83.0994 57.6726M90.8877 47.4505L113.401 18.1228C113.766 17.6361 113.766 17.1493 113.401 16.5409C113.036 16.0541 112.427 15.8107 111.819 16.1758L48.9041 41.2442C48.4173 41.3659 48.1739 41.9744 48.0522 42.2178C48.1739 42.7045 48.4173 43.1913 48.7824 43.4347L59.2479 49.7627V61.6884C59.2479 62.1752 59.6129 62.662 60.0997 62.9054C60.2214 62.9054 60.4648 62.9054 60.4648 62.9054C60.8299 62.9054 61.1949 62.7837 61.4383 62.4186L67.9112 54.3543M67.5229 54.752L82.6127 39.2972C83.0994 38.8104 83.0994 38.0803 82.7344 37.5935C82.3693 37.1067 81.7608 36.8634 81.1524 37.2284L59.2479 49.8844" stroke="#183D68" stroke-width="1.5" stroke-miterlimit="10"/>
<path d="M87.1157 54.5074C88.191 54.5074 89.0627 53.6357 89.0627 52.5603C89.0627 51.485 88.191 50.6133 87.1157 50.6133C86.0403 50.6133 85.1686 51.485 85.1686 52.5603C85.1686 53.6357 86.0403 54.5074 87.1157 54.5074Z" fill="#183D68"/>
</svg>
