<svg width="120" height="120" viewBox="0 0 120 120" fill="none" xmlns="http://www.w3.org/2000/svg">
<path d="M120 0H0V120H120V0Z" fill="white"/>
<path d="M106.85 45.6998V15.0798C106.85 14.5998 106.53 14.2798 106.05 14.2798H44.83" stroke="#183D68" stroke-width="1.5" stroke-miterlimit="10" stroke-linecap="round"/>
<path d="M48.65 42.6699H73.91" stroke="#183D68" stroke-width="1.5" stroke-miterlimit="10" stroke-linecap="round"/>
<path d="M89.22 42.6699H94.58" stroke="#183D68" stroke-width="1.5" stroke-miterlimit="10" stroke-linecap="round"/>
<path d="M48.65 57.9697H64.72" stroke="#183D68" stroke-width="1.5" stroke-miterlimit="10" stroke-linecap="round"/>
<path d="M48.65 73.2798H64.72" stroke="#183D68" stroke-width="1.5" stroke-miterlimit="10" stroke-linecap="round"/>
<path d="M41 88.5898H64.73" stroke="#183D68" stroke-width="1.5" stroke-miterlimit="10" stroke-linecap="round"/>
<path d="M39.5 65.5999V33.4499C39.5 29.0799 36.08 25.3999 31.7 25.0699H28.73M28.72 84.4199C28.72 88.9199 27.64 93.5199 25.58 97.7099L21.86 105.15L18.15 97.7199C16.09 93.5199 15.01 88.9299 15.01 84.4199V22.7399C15.01 18.9599 18.09 15.8799 21.87 15.8799C25.65 15.8799 28.73 18.9599 28.73 22.7399V84.4199H28.72Z" stroke="#183D68" stroke-width="1.5" stroke-miterlimit="10" stroke-linecap="round" stroke-linejoin="round"/>
<path d="M33.35 107.72H71.62" stroke="#183D68" stroke-width="1.5" stroke-miterlimit="10" stroke-linecap="round"/>
<path d="M93.04 84.6998C86.31 84.6998 80.83 79.2198 80.83 72.4898C80.83 65.7598 86.31 60.2798 93.04 60.2798C99.78 60.2798 105.25 65.7598 105.25 72.4898C105.25 79.2198 99.78 84.6998 93.04 84.6998Z" stroke="#183D68" stroke-width="1.5" stroke-miterlimit="10"/>
<path d="M81.61 91.6196V106.93C81.61 107.24 81.78 107.54 82.01 107.65C82.28 107.78 82.63 107.76 82.88 107.59L89.12 103.17C90.31 102.33 91.7 101.91 93.09 101.91C94.48 101.91 95.87 102.33 97.06 103.17L103.33 107.61C103.54 107.77 103.67 107.79 103.77 107.79C103.9 107.79 104 107.77 104.22 107.69C104.51 107.52 104.57 107.22 104.57 106.99V91.6896" stroke="#183D68" stroke-width="1.5" stroke-miterlimit="10" stroke-linecap="round"/>
<path d="M28.72 84.4199C28.72 88.9199 27.64 93.5199 25.58 97.7099L21.86 105.15L18.15 97.7199C16.09 93.5199 15.01 88.9299 15.01 84.4199V22.7399C15.01 18.9599 18.09 15.8799 21.87 15.8799C25.65 15.8799 28.73 18.9599 28.73 22.7399V84.4199H28.72Z" stroke="#183D68" stroke-miterlimit="10"/>
</svg>
