<svg width="120" height="120" viewBox="0 0 120 120" fill="none" xmlns="http://www.w3.org/2000/svg">
<path d="M120 0H0V120H120V0Z" fill="white"/>
<path d="M24.71 71.04V106.2" stroke="#183D68" stroke-width="1.5" stroke-miterlimit="10" stroke-linecap="round" stroke-linejoin="round"/>
<path d="M41.4599 38.6499H27.65C23.3 38.6499 19.65 41.7899 18.97 46.1099L15.95 64.7699" stroke="#183D68" stroke-width="1.5" stroke-miterlimit="10" stroke-linecap="round"/>
<path d="M101.07 105.96V72.1901L102.08 71.8401C104.29 71.0801 105.83 68.8901 105.83 66.5101V47.4601C105.83 42.6001 101.87 38.6401 97.0101 38.6401H84.3101" stroke="#183D68" stroke-width="1.5" stroke-miterlimit="10" stroke-linecap="round" stroke-linejoin="round"/>
<path d="M43.75 74.4502V85.5602" stroke="#183D68" stroke-width="1.5" stroke-miterlimit="10" stroke-linecap="round" stroke-linejoin="round"/>
<path d="M15.98 74.4502V85.5602" stroke="#183D68" stroke-width="1.5" stroke-miterlimit="10" stroke-linecap="round" stroke-linejoin="round"/>
<path d="M73.29 105.31V67.4299L74.3 67.0799C76.51 66.3199 78.05 64.1299 78.05 61.7499V47.4599C78.05 43.3799 77.19 33.8799 69.23 33.8799H55.59C51.14 33.8799 47.38 37.1999 46.84 41.6099L43.74 66.3699" stroke="#183D68" stroke-width="1.5" stroke-miterlimit="10" stroke-linecap="round" stroke-linejoin="round"/>
<path d="M38.28 105.31H87.49" stroke="#183D68" stroke-width="1.5" stroke-miterlimit="10" stroke-linecap="round" stroke-linejoin="round"/>
<path d="M52.48 66.5103V105.31" stroke="#183D68" stroke-width="1.5" stroke-miterlimit="10" stroke-linecap="round" stroke-linejoin="round"/>
<path d="M62.01 71.27V105.31" stroke="#183D68" stroke-width="1.5" stroke-miterlimit="10" stroke-linecap="round" stroke-linejoin="round"/>
<path d="M90.6699 30.7098C94.569 30.7098 97.7299 27.549 97.7299 23.6498C97.7299 19.7507 94.569 16.5898 90.6699 16.5898C86.7707 16.5898 83.6099 19.7507 83.6099 23.6498C83.6099 27.549 86.7707 30.7098 90.6699 30.7098Z" stroke="#183D68" stroke-width="1.5" stroke-miterlimit="10"/>
<path d="M62.8898 25.9501C66.789 25.9501 69.9498 22.7892 69.9498 18.8901C69.9498 14.9909 66.789 11.8301 62.8898 11.8301C58.9907 11.8301 55.8298 14.9909 55.8298 18.8901C55.8298 22.7892 58.9907 25.9501 62.8898 25.9501Z" stroke="#183D68" stroke-width="1.5" stroke-miterlimit="10"/>
<path d="M35.1101 30.7098C39.0092 30.7098 42.17 27.549 42.17 23.6498C42.17 19.7507 39.0092 16.5898 35.1101 16.5898C31.2109 16.5898 28.05 19.7507 28.05 23.6498C28.05 27.549 31.2109 30.7098 35.1101 30.7098Z" stroke="#183D68" stroke-width="1.5" stroke-miterlimit="10"/>
</svg>
