<svg width="120" height="120" viewBox="0 0 120 120" fill="none" xmlns="http://www.w3.org/2000/svg">
<rect width="120" height="120" fill="white"/>
<path d="M85.7149 88.1206C86.043 86.6991 86.4804 86.1523 87.9019 85.8243C90.5262 85.2776 93.1505 84.8402 95.7748 84.2935C97.3056 83.9654 98.8364 83.6374 100.367 83.3093C100.258 82.872 100.149 82.6533 100.149 82.4346C98.8364 78.7168 97.6336 74.9991 96.3215 71.2813C95.8841 69.8598 95.9934 69.3131 97.1962 68.2196C99.0551 66.6888 100.805 65.0486 102.664 63.5178C103.976 62.3149 105.397 61.1121 106.819 59.9093C106.491 59.5813 106.163 59.3626 105.944 59.0346C102.992 56.5196 100.149 54.0047 97.1962 51.3804C96.1028 50.5056 95.9934 49.8495 96.4308 48.5374C96.7589 47.5533 97.0869 46.5692 97.4149 45.585C98.3991 42.5234 99.4925 39.571 100.586 36.4C100.258 36.2907 100.149 36.2907 99.9299 36.1813C95.9934 35.4159 92.057 34.6505 88.1205 33.885C86.5897 33.557 86.1523 33.1196 85.8243 31.5888C85.4963 29.7299 85.0589 27.7617 84.7308 25.9028C84.2934 23.7159 83.8561 21.529 83.4187 19.2327C82.7626 19.3421 82.4346 19.4514 81.9972 19.6701C78.3888 20.8729 74.7804 22.185 71.172 23.3878C69.7505 23.8252 69.2037 23.7159 68.2196 22.6224C65.7047 19.6701 63.1897 16.8271 60.5654 13.8748C60.3467 13.5467 60.0187 13.328 59.8 13C56.957 16.2804 54.2234 19.3421 51.4897 22.5131C50.3963 23.7159 49.8495 23.9346 48.428 23.3878C44.8196 22.185 41.2112 20.9822 37.7121 19.6701C37.1654 19.4514 36.8374 19.3421 36.4 19.2327C36.2906 19.5607 36.2906 19.6701 36.1813 19.8888C35.4159 23.8252 34.6505 27.7617 33.885 31.6981C33.557 33.1196 33.1196 33.6664 31.6981 33.9944C29.0738 34.5411 26.4495 34.9785 23.8252 35.5252C22.2944 35.8533 20.7635 36.1813 19.2327 36.5093C19.4514 37.0561 19.5607 37.3841 19.6701 37.8215C20.8729 41.4299 22.0757 45.0383 23.3878 48.5374C23.8252 49.9589 23.7159 50.5056 22.5131 51.5991C21.2009 52.6925 19.8888 53.786 18.686 54.9888C16.8271 56.629 14.9682 58.2692 13 59.9093C13.328 60.2374 13.5467 60.4561 13.7654 60.6748C16.6084 63.1897 19.5607 65.7047 22.4037 68.2196C23.6065 69.3131 23.8252 69.8598 23.2785 71.3906C22.0757 74.9991 20.8729 78.6075 19.5607 82.1065C19.4514 82.4346 19.3421 82.872 19.2327 83.3093C19.4514 83.4187 19.5607 83.4187 19.7794 83.4187C23.7159 84.1841 27.6523 84.9495 31.6981 85.7149C33.229 86.043 33.6663 86.4804 33.9944 88.0112C34.3224 89.8701 34.7598 91.8383 35.0878 93.6972C35.5252 95.8841 35.9626 98.071 36.4 100.367C36.9467 100.258 37.2748 100.149 37.7121 99.9299C41.3206 98.7271 44.929 97.415 48.5374 96.2121C49.9589 95.7748 50.5056 95.8841 51.4897 96.9776C54.0047 99.8206 56.5196 102.773 59.0346 105.616C59.2533 105.944 59.5813 106.163 59.9093 106.6C62.7523 103.32 65.486 100.149 68.329 96.9776C69.3131 95.8841 69.8598 95.6654 71.2813 96.2121C74.343 97.1963 77.2953 98.2897 80.357 99.2738C81.3411 99.6019 82.3252 99.9299 83.3093 100.258C83.4187 99.9299 83.4187 99.8206 83.528 99.6019" stroke="#183D68" stroke-width="1.5" stroke-miterlimit="10"/>
<path d="M43.5075 75.8748L77.2953 42.1963" stroke="#183D68" stroke-width="1.5" stroke-miterlimit="10"/>
<path d="M70.5159 63.3008C66.2514 63.3008 62.7523 66.7998 62.7523 71.0643C62.7523 75.3288 66.2514 79.0466 70.7346 79.0466C74.9991 79.0466 78.7168 75.5475 78.7168 71.0643C78.4981 66.7998 74.9991 63.3008 70.5159 63.3008Z" stroke="#183D68" stroke-width="1.5" stroke-miterlimit="10"/>
<path d="M49.0841 57.5021C53.3486 57.5021 57.0663 54.003 57.0663 49.5198C57.0663 45.2554 53.5673 41.5376 49.0841 41.5376C44.8196 41.5376 41.1019 45.0367 41.1019 49.5198C41.1019 54.003 44.6009 57.5021 49.0841 57.5021Z" stroke="#183D68" stroke-width="1.5" stroke-miterlimit="10"/>
<path d="M84.4028 95.6646C85.3691 95.6646 86.1524 94.8813 86.1524 93.9151C86.1524 92.9488 85.3691 92.1655 84.4028 92.1655C83.4366 92.1655 82.6533 92.9488 82.6533 93.9151C82.6533 94.8813 83.4366 95.6646 84.4028 95.6646Z" fill="#183D68"/>
</svg>
