<svg width="120" height="120" viewBox="0 0 120 120" fill="none" xmlns="http://www.w3.org/2000/svg">
<rect width="120" height="120" fill="white"/>
<path d="M30.1778 78.1V106.7H105.078V26.5L92.3778 14H30.2778M26.4778 62.9L25.5778 62.4L13.1778 82.5C11.2778 85.1 8.87778 83.9 8.37778 83.6C7.57778 83 6.07778 81.1 7.77778 78.7L22.7778 60.6L21.9778 59.8C18.8778 57 16.7778 53.2 15.9778 49C14.0778 39.1 19.9778 28.9 29.5778 26C31.5778 25.4 33.5778 25.1 35.7778 25.1C46.0778 25.1 54.7778 32.8 55.8778 43.2C56.1778 46 55.8778 48.6 55.0778 51.2C52.8778 58 47.3778 63.2 40.5778 64.8C35.5778 65.8 30.6778 65.2 26.4778 62.9Z" stroke="#183D68" stroke-width="1.5" stroke-miterlimit="10"/>
<path d="M96.0778 38.7998H63.9778" stroke="#183D68" stroke-width="1.5" stroke-miterlimit="10"/>
<path d="M90.1778 47.6001H63.9778" stroke="#183D68" stroke-width="1.5" stroke-miterlimit="10"/>
<path d="M84.1778 56.5H63.9778" stroke="#183D68" stroke-width="1.5" stroke-miterlimit="10"/>
<path d="M42.1778 99.7998H92.9778" stroke="#183D68" stroke-width="1.5" stroke-miterlimit="10"/>
<path d="M48.2778 85.8999V99.5999" stroke="#183D68" stroke-width="1.5" stroke-miterlimit="10"/>
<path d="M57.3778 76.7998V99.5998" stroke="#183D68" stroke-width="1.5" stroke-miterlimit="10"/>
<path d="M66.4778 78.6001V99.6001" stroke="#183D68" stroke-width="1.5" stroke-miterlimit="10"/>
<path d="M75.5778 83.3999V99.5999" stroke="#183D68" stroke-width="1.5" stroke-miterlimit="10"/>
<path d="M84.6778 74.2998V99.5998" stroke="#183D68" stroke-width="1.5" stroke-miterlimit="10"/>
</svg>
