<svg width="120" height="120" viewBox="0 0 120 120" fill="none" xmlns="http://www.w3.org/2000/svg">
<rect width="120" height="120" fill="white"/>
<path d="M29.7619 38.1426H83.5714" stroke="#183D68" stroke-width="1.5" stroke-miterlimit="10"/>
<path d="M29.7619 51.9521H60.9048" stroke="#183D68" stroke-width="1.5" stroke-miterlimit="10"/>
<path d="M29.7619 65.667H54.8095" stroke="#183D68" stroke-width="1.5" stroke-miterlimit="10"/>
<path d="M29.7619 79.4766H57.6667" stroke="#183D68" stroke-width="1.5" stroke-miterlimit="10"/>
<path d="M29.7619 93.2861H70.1428" stroke="#183D68" stroke-width="1.5" stroke-miterlimit="10"/>
<path d="M20.9999 99.5714V107H92.5237M92.619 36.619V28.8095H104.428V27.7619C104.428 27.7619 104.619 25.381 104.619 24.5238C104.619 19.0952 100.809 15 95.6666 15H31.5714C31.5714 15 31.5714 15 31.3809 15C25.6666 15.0952 20.9999 19.7619 20.9999 25.381V28.7143M29.7618 15.0952C35.0952 15.2857 39.2857 19.5714 39.2857 24.8095C39.2857 25.4762 39.0952 26.5238 38.9047 27.381L38.5237 28.7143H41.9523H100.714M98.7142 71.0952C98.7142 81 90.5237 89.1905 80.619 89.1905C70.7142 89.1905 62.5237 81 62.5237 71.0952C62.5237 61.1905 70.7142 53 80.619 53C90.5237 53 98.7142 61.1905 98.7142 71.0952Z" stroke="#183D68" stroke-width="1.5" stroke-miterlimit="10"/>
<path d="M25.0952 47.4761H17M17 45.2857V88.9047C17 91.0952 18.7143 92.8095 21.0952 92.8095C23.2857 92.8095 25.1905 91.0952 25.1905 88.7142V81.9523V72.238V50.9047V45.1904L21 37.1904L17 45.2857ZM17 83.7619H25.1905H17Z" stroke="#183D68" stroke-width="1.5" stroke-miterlimit="10"/>
<path d="M92.0477 71.0956C91.8572 70.9051 88.4286 67.4765 83.6667 66.1432C82.6191 65.8575 81.5715 65.667 80.5239 65.667C80.4286 65.667 80.3334 65.667 80.2382 65.667C80.1429 65.667 80.0477 65.667 79.9524 65.667C78.9048 65.667 77.8572 65.8575 76.8096 66.1432C72.0477 67.4765 68.6191 70.9051 68.4286 71.0956L68.2382 71.286L68.4286 71.4765C68.5239 71.5718 70.3334 73.3813 73.0953 74.9051C75.4763 76.2384 77.8572 76.8098 80.1429 76.9051C80.1429 76.9051 80.1429 76.9051 80.2382 76.9051C80.3334 76.9051 80.2382 76.9051 80.3334 76.9051C82.6191 76.9051 85.0001 76.2384 87.381 74.9051C90.2382 73.3813 92.0477 71.5718 92.0477 71.4765L92.2382 71.286L92.0477 71.0956Z" stroke="#183D68" stroke-width="1.5" stroke-miterlimit="10"/>
<path d="M80.238 65.667C77.1904 65.667 74.7142 68.1432 74.7142 71.1908C74.7142 74.2384 77.1904 76.7146 80.238 76.7146C83.2857 76.7146 85.7619 74.2384 85.7619 71.1908C85.7619 68.3337 83.2857 65.667 80.238 65.667Z" stroke="#183D68" stroke-width="1.5" stroke-miterlimit="10"/>
</svg>
