<svg width="120" height="120" viewBox="0 0 120 120" fill="none" xmlns="http://www.w3.org/2000/svg">
<rect width="120" height="120" fill="white"/>
<path d="M108.363 48.6677C107.442 51.0855 104.448 52.3519 101.801 51.3157C100.534 50.8552 99.6131 49.819 99.1526 48.898L97.4256 45.0988L92.1297 57.9932L65.1896 46.4803L70.3704 33.701L66.6863 35.0826C65.4198 35.5431 64.2686 35.5431 63.0021 35.0826C60.5844 34.1615 59.318 31.1682 60.3542 28.5202C61.2752 26.1025 64.2686 24.8361 66.6863 25.8723C67.9527 26.3328 68.6434 27.3689 69.3342 28.29L71.0612 32.2043L76.5873 19.3099L89.4818 24.6058L87.9851 20.6915C87.5246 19.425 87.5246 18.2738 87.9851 17.0073C88.3305 16.2014 88.791 15.6258 89.4818 15.0502C90.8633 14.014 92.7054 13.6686 94.5474 14.3594C96.9651 15.2804 98.2315 18.2738 97.1954 20.6915C96.7349 21.9579 95.6987 22.8789 94.7777 23.3394L90.9784 25.1815L103.873 30.4774L98.4618 42.6811L102.376 41.6449C103.643 41.1844 104.794 41.1844 106.06 41.6449C107.327 42.1054 108.248 43.1416 108.708 44.2929C108.823 46.0198 108.823 47.5165 108.363 48.6677Z" stroke="#183D68" stroke-width="1.5" stroke-miterlimit="10"/>
<path d="M49.7622 88.3853C50.6832 88.3853 51.7194 88.155 52.4102 87.9248V94.7174H50.453H38.5947L41.4729 97.8258C42.394 98.7469 42.9696 100.013 42.9696 101.165C42.9696 103.813 40.7822 106 38.1342 106C35.4863 106 33.2988 103.813 33.2988 101.165C33.2988 99.8982 33.7593 98.7469 34.5652 97.8258L37.4434 94.7174H29.3844H23.3977V90.4576V80.6717L20.1741 83.5499C19.2531 84.4709 17.9867 85.0466 16.8354 85.0466C14.1874 85.0466 12 82.8591 12 80.2111C12 77.5632 14.1874 75.3757 16.8354 75.3757C18.1018 75.3757 19.2531 75.8363 20.1741 76.6422L23.2826 79.5204V65.3595H52.6404V71.9219C51.7194 71.6916 50.9135 71.4614 49.9925 71.4614C48.7261 71.4614 47.5748 71.6916 46.6537 72.1521C43.5453 73.4186 41.3578 76.527 41.3578 79.8658M83.8403 65.3595H85.5672V79.175L88.6757 76.2968C89.3665 75.606 90.4027 74.8001 92.0145 74.8001C94.6624 74.8001 96.8499 76.9875 96.8499 79.6355C96.8499 82.2835 94.6624 84.4709 92.0145 84.4709C90.748 84.4709 89.5967 84.0104 88.6757 83.2045L85.5672 80.3263V94.372H71.6367L74.5149 97.4805C75.4359 98.4015 76.0116 99.6679 76.0116 100.819C76.0116 103.467 73.8241 105.655 71.1762 105.655C68.5282 105.655 66.3408 103.467 66.3408 100.819C66.3408 99.5528 66.8013 98.4015 67.6072 97.4805L70.4854 94.372L56.5548 94.4871L56.6699 82.5137V80.5565L53.2161 83.2045C52.7556 83.665 52.295 83.8953 51.7194 84.1255C51.2589 84.3558 50.453 84.3558 49.9925 84.3558C47.3445 84.3558 45.1571 82.1683 45.1571 79.5204C45.1571 77.5632 46.4235 75.606 48.0353 74.9152C48.4958 74.685 49.3017 74.4547 49.9925 74.4547C51.2589 74.4547 52.4102 74.9152 53.3312 75.7211L56.4397 78.5993L56.3246 65.2444H57.4758H75.0905M23.2826 61.6754V47.6297L20.1741 50.5079C19.2531 51.5441 17.9867 52.0046 16.8354 52.0046C14.1874 52.0046 12 49.8172 12 47.1692C12 44.5212 14.1874 42.3338 16.8354 42.3338C18.1018 42.3338 19.2531 42.7943 20.1741 43.6002L23.2826 46.4784V32.4327H37.3283L34.4501 29.3243C33.5291 28.6335 32.9534 27.3671 32.9534 26.2158C32.9534 23.5678 35.1409 21.3804 37.7888 21.3804C40.4368 21.3804 42.6242 23.5678 42.6242 26.2158C42.6242 27.4822 42.1637 28.6335 41.1276 29.5545L38.4796 32.4327H52.295V39.2253C51.374 38.9951 50.5681 38.7648 49.6471 38.7648C45.0419 38.7648 41.1276 42.6792 41.1276 47.2843C41.1276 51.8895 45.0419 55.8039 49.6471 55.8039C50.5681 55.8039 51.6043 55.5736 52.295 55.3433V61.6754H42.6242" stroke="#183D68" stroke-width="1.5" stroke-miterlimit="10" stroke-linecap="square"/>
</svg>
