<svg width="120" height="120" viewBox="0 0 120 120" fill="none" xmlns="http://www.w3.org/2000/svg">
<rect width="120" height="120" fill="white"/>
<path d="M36.7611 27.8496H78.4528" stroke="#183D68" stroke-width="1.5" stroke-miterlimit="10"/>
<path d="M36.7611 39.9126H65.2258" stroke="#183D68" stroke-width="1.5" stroke-miterlimit="10"/>
<path d="M36.7611 51.9756H62.2629" stroke="#183D68" stroke-width="1.5" stroke-miterlimit="10"/>
<path d="M36.7611 63.9326H68.5061" stroke="#183D68" stroke-width="1.5" stroke-miterlimit="10"/>
<path d="M36.7611 75.9961H59.9349" stroke="#183D68" stroke-width="1.5" stroke-miterlimit="10"/>
<path d="M36.5495 107H99.722C104.378 107 108.081 103.191 108.081 98.2172C108.081 97.4765 108.081 95.2544 108.081 95.2544V94.1962H93.4788M36.5495 107C40.6763 107 44.1683 103.614 44.3799 99.487C44.3799 98.9579 44.4857 98.0056 44.3799 97.0532C44.1683 95.6776 43.8508 94.4078 43.8508 94.4078L46.8137 94.5136L93.7962 94.0904M36.5495 107C32.4226 107 28.9307 103.508 28.9307 99.3812V22.6641C28.719 17.1617 26.6027 14.6221 20.7828 15.0453M93.1613 34.4098V24.5688C93.1613 19.3838 88.9287 15.1512 83.9553 15.0453H22.1584C21.8409 15.0453 21.5235 15.0453 21.4177 15.0453C16.1268 15.257 12 19.4896 12 24.8863V62.7687" stroke="#183D68" stroke-width="1.5" stroke-miterlimit="10"/>
<path d="M93.1613 65.5197C86.8123 65.5197 81.6273 60.3347 81.6273 53.9857C81.6273 47.6367 86.8123 42.4517 93.1613 42.4517C99.5103 42.4517 104.695 47.6367 104.695 53.9857C104.695 60.3347 99.5103 65.5197 93.1613 65.5197Z" stroke="#183D68" stroke-width="1.5" stroke-miterlimit="10"/>
<path d="M82.3681 65.8374V84.5669C82.3681 84.8844 82.4739 85.096 82.7913 85.2018C83.003 85.3077 83.4262 85.3077 83.6379 85.096L89.5636 80.9692C90.7276 80.1226 91.9974 79.8052 93.2672 79.8052C94.537 79.8052 95.9126 80.2285 96.9707 80.9692L102.896 85.2018C103.108 85.3077 103.214 85.4135 103.32 85.4135C103.426 85.4135 103.531 85.4135 103.743 85.3077C104.06 85.096 104.06 84.8844 104.06 84.6728V65.9432" stroke="#183D68" stroke-width="1.5" stroke-miterlimit="10"/>
</svg>
