<svg width="120" height="120" viewBox="0 0 120 120" fill="none" xmlns="http://www.w3.org/2000/svg">
<rect width="120" height="120" fill="white"/>
<path d="M94.1588 64.3351V23.0292C94.1588 18.0476 90.1113 14 85.1297 14H22.0292C17.0476 14 13 18.0476 13 23.0292V86.1297C13 91.1113 17.0476 95.1588 22.0292 95.1588M42.0594 95.1588H67.0713M69.5621 81.667H26.5957V74.8172C26.5957 63.5048 44.4465 58.7308 53.5794 58.7308C60.4291 58.7308 72.2605 61.4291 77.6572 67.5524M53.5794 54.5794C46.107 54.5794 40.0875 48.4562 40.0875 41.0875C40.0875 33.7189 46.2108 27.5957 53.5794 27.5957C60.9481 27.5957 67.0713 33.7189 67.0713 41.0875C67.0713 48.4562 61.0518 54.5794 53.5794 54.5794Z" stroke="#183D68" stroke-width="1.5" stroke-miterlimit="10"/>
<path d="M92.8097 110C103.7 110 112.529 101.171 112.529 90.2809C112.529 79.3905 103.7 70.562 92.8097 70.562C81.9193 70.562 73.0908 79.3905 73.0908 90.2809C73.0908 101.171 81.9193 110 92.8097 110Z" fill="white" stroke="#183D68" stroke-width="1.5" stroke-miterlimit="10"/>
<path d="M85.4409 90.2806L91.2528 96.0925L102.877 84.4688" stroke="#183D68" stroke-width="1.5" stroke-miterlimit="10"/>
<path d="M33.6529 96.8196C34.57 96.8196 35.3134 96.0762 35.3134 95.1591C35.3134 94.242 34.57 93.4985 33.6529 93.4985C32.7358 93.4985 31.9924 94.242 31.9924 95.1591C31.9924 96.0762 32.7358 96.8196 33.6529 96.8196Z" fill="#183D68"/>
</svg>
