<svg width="120" height="120" viewBox="0 0 120 120" fill="none" xmlns="http://www.w3.org/2000/svg">
<rect width="120" height="120" fill="white"/>
<path d="M38.2053 97.1613L44.7336 90.6329L38.2053 84.1045L31.6769 90.6329L38.2053 97.1613Z" stroke="#183D68" stroke-width="1.5" stroke-miterlimit="10"/>
<path d="M24.8471 79.6855L22.7379 81.7947L29.2663 88.3231L35.7947 81.7947L33.9868 79.8864" stroke="#183D68" stroke-width="1.5" stroke-miterlimit="10"/>
<path d="M100.476 45.3362C101.179 43.2271 101.581 40.917 101.581 38.607C101.581 34.9913 100.576 31.5764 98.9694 28.6638C102.886 28.4629 106 25.2489 106 21.3319C106 17.3144 102.686 14 98.6681 14C94.7511 14 91.5371 17.1135 91.3362 21.0306C88.4236 19.3231 85.0087 18.4192 81.393 18.4192C75.9694 18.4192 70.9476 20.5284 67.0306 24.345L27.2576 64.0175L29.4672 66.2271L14 81.7948L38.2052 106L53.6725 90.5328M53.6725 90.5328L55.8821 92.7424L87.7203 60.9041M53.6725 90.5328L46.7424 83.5022" stroke="#183D68" stroke-width="1.5" stroke-miterlimit="10"/>
<path d="M93.345 46.4413L73.559 26.6553L44.9346 55.2797L64.7206 75.0657L79.7861 60.0002" stroke="#183D68" stroke-width="1.5" stroke-miterlimit="10"/>
<path d="M76.572 47.8472C78.9825 47.8472 80.9912 45.8385 80.9912 43.428C80.9912 41.0175 78.9825 39.0088 76.572 39.0088C74.1615 39.0088 72.1528 41.0175 72.1528 43.428C72.1528 44.1311 72.3537 44.7337 72.5545 45.3363L61.8078 56.083V50.7599H58.8951V61.1049H69.1397V58.1922" stroke="#183D68" stroke-width="1.5" stroke-miterlimit="10"/>
<path d="M92.1397 58.3932C93.0272 58.3932 93.7467 57.6737 93.7467 56.7862C93.7467 55.8987 93.0272 55.1792 92.1397 55.1792C91.2522 55.1792 90.5327 55.8987 90.5327 56.7862C90.5327 57.6737 91.2522 58.3932 92.1397 58.3932Z" fill="#183D68"/>
</svg>
