<svg width="13" height="14" viewBox="0 0 13 14" fill="none" xmlns="http://www.w3.org/2000/svg">
<g clip-path="url(#clip0_9060:32552)">
<rect y="0.5" width="13" height="13" rx="6.5" fill="white"/>
<path d="M13 2.66681C13 1.5283 11.9721 0.5 10.8333 0.5H2.16667C1.02787 0.5 0 1.5283 0 2.66681V11.3332C0 12.4717 1.02787 13.5 2.16681 13.5H6.5V8.58889H4.91111V6.42222H6.5V5.57809C6.5 4.12223 7.59316 2.81111 8.9375 2.81111H10.6889V4.97778H8.9375C8.74582 4.97778 8.52222 5.21048 8.52222 5.55902V6.42222H10.6889V8.58889H8.52222V13.5H10.8333C11.9721 13.5 13 12.4717 13 11.3332V2.66681Z" fill="#292C2E"/>
</g>
<defs>
<clipPath id="clip0_9060:32552">
<rect width="13" height="13" fill="white" transform="translate(0 0.5)"/>
</clipPath>
</defs>
</svg>
