<svg width="16" height="16" viewBox="0 0 16 16" fill="none" xmlns="http://www.w3.org/2000/svg">
<g clip-path="url(#clip0_9060:32547)">
<path d="M15.8591 3.17865L11.0066 7.99987L15.8591 12.8211C15.9468 12.6377 16 12.4351 16 12.2186V3.78112C16 3.56465 15.9468 3.36199 15.8591 3.17865Z" fill="#292C2E"/>
<path d="M14.5938 2.375H1.40627C1.1898 2.375 0.987147 2.42822 0.803804 2.51594L7.00577 8.68666C7.55415 9.23504 8.4459 9.23504 8.99427 8.68666L15.1962 2.51594C15.0129 2.42822 14.8102 2.375 14.5938 2.375Z" fill="#292C2E"/>
<path d="M0.140937 3.17865C0.0532188 3.36199 0 3.56465 0 3.78112V12.2186C0 12.4351 0.0532188 12.6378 0.140937 12.8211L4.99341 7.99987L0.140937 3.17865Z" fill="#292C2E"/>
<path d="M10.3438 8.66291L9.65711 9.34956C8.7434 10.2633 7.25662 10.2633 6.3429 9.34956L5.65627 8.66291L0.803804 13.4841C0.987147 13.5718 1.1898 13.6251 1.40627 13.6251H14.5938C14.8102 13.6251 15.0129 13.5718 15.1962 13.4841L10.3438 8.66291Z" fill="#292C2E"/>
</g>
<defs>
<clipPath id="clip0_9060:32547">
<rect width="16" height="16" fill="white"/>
</clipPath>
</defs>
</svg>
