<svg width="15" height="16" viewBox="0 0 15 16" fill="none" xmlns="http://www.w3.org/2000/svg">
<g clip-path="url(#clip0_9060:32549)">
<circle cx="7.5" cy="8" r="7.5" fill="white"/>
<path d="M7.5 0.5C3.36452 0.5 0 3.86452 0 8C0 12.1352 3.36452 15.5 7.5 15.5C11.6352 15.5 15 12.1352 15 8C15 3.86452 11.6358 0.5 7.5 0.5ZM10.8458 6.28345C10.8491 6.35777 10.8509 6.43269 10.8509 6.50761C10.8509 8.78879 9.11504 11.4183 5.93904 11.4183C4.96415 11.4183 4.05663 11.1334 3.29292 10.6434C3.42796 10.6594 3.56542 10.6676 3.70468 10.6676C4.51372 10.6676 5.25779 10.3914 5.84871 9.92862C5.09345 9.91473 4.45571 9.41565 4.23608 8.72958C4.34121 8.74952 4.44967 8.76069 4.56054 8.76069C4.71794 8.76069 4.8708 8.74015 5.01551 8.70058C4.22581 8.54227 3.63097 7.84472 3.63097 7.00789C3.63097 7.00064 3.63097 6.99309 3.63127 6.98614C3.86389 7.11514 4.13004 7.19308 4.41281 7.20184C3.94999 6.89279 3.64517 6.36411 3.64517 5.76535C3.64517 5.44874 3.73006 5.15208 3.8787 4.8971C4.72972 5.94177 6.00217 6.62876 7.43656 6.70126C7.40695 6.57468 7.39215 6.44327 7.39215 6.30762C7.39215 5.35449 8.16493 4.58141 9.11806 4.58141C9.61472 4.58141 10.0627 4.79107 10.3781 5.1264C10.7718 5.04906 11.1403 4.90586 11.4748 4.70738C11.3449 5.11069 11.0721 5.44874 10.7147 5.66263C11.0642 5.62094 11.3977 5.5285 11.7062 5.39104C11.476 5.73665 11.1832 6.04086 10.8458 6.28345Z" fill="#292C2E"/>
</g>
<defs>
<clipPath id="clip0_9060:32549">
<rect width="15" height="15" fill="white" transform="translate(0 0.5)"/>
</clipPath>
</defs>
</svg>
