<svg width="31" height="32" viewBox="0 0 31 32" fill="none" xmlns="http://www.w3.org/2000/svg">
<path d="M26.6893 4.375C29.5313 7.292 30.9533 11.125 30.9533 15.875C30.9533 20.209 29.5313 23.979 26.6893 27.187C23.8473 30.396 20.2473 32 15.8903 32C11.5743 32 8.00527 30.396 5.18427 27.188C2.36227 23.979 0.952271 20.209 0.952271 15.875C0.952271 11.125 2.34227 7.292 5.12327 4.375C7.90227 1.459 11.4923 0 15.8903 0C20.2473 0 23.8473 1.459 26.6893 4.375ZM21.2433 11.062C21.1193 9.771 20.8703 8.51 20.4963 7.281C20.1233 6.052 19.5523 5.104 18.7853 4.437C18.0163 3.771 17.0523 3.437 15.8903 3.437C14.7283 3.437 13.7743 3.76 13.0273 4.406C12.2803 5.053 11.7303 6 11.3783 7.25C11.0263 8.5 10.7873 9.75 10.6623 11C10.5383 12.25 10.4753 13.771 10.4753 15.562C10.4753 16.687 10.4963 17.635 10.5373 18.406C10.5773 19.177 10.6503 20.115 10.7553 21.218C10.8583 22.322 11.0253 23.249 11.2533 23.999C11.4813 24.749 11.7913 25.489 12.1873 26.218C12.5813 26.947 13.0893 27.499 13.7113 27.874C14.3333 28.249 15.0593 28.436 15.8903 28.436C16.7193 28.436 17.4553 28.248 18.1003 27.874C18.7433 27.499 19.2613 26.947 19.6563 26.218C20.0503 25.49 20.3723 24.75 20.6213 24C20.8703 23.25 21.0573 22.323 21.1813 21.219C21.3063 20.115 21.3783 19.167 21.4003 18.375C21.4203 17.584 21.4303 16.646 21.4303 15.563C21.4303 13.854 21.3683 12.354 21.2433 11.062Z" fill="#EA3939"/>
</svg>
